<?xml version="1.0" standalone="no"?>
<!DOCTYPE svg PUBLIC "-//W3C//DTD SVG 1.1//EN" "http://www.w3.org/Graphics/SVG/1.1/DTD/svg11.dtd" >
<svg xmlns="http://www.w3.org/2000/svg" xmlns:xlink="http://www.w3.org/1999/xlink" version="1.1">
<metadata>
Created by FontForge 20170731 at Fri Dec 17 21:18:01 2021
 By Aleksey,,,
Copyright 2016 The Smooch Sans Project Authors (https://github.com/googlefonts/smooch-sans)
</metadata>
<defs>
<font id="SmoochSans-Regular" horiz-adv-x="396" >
  <font-face 
    font-family="Smooch Sans"
    font-weight="400"
    font-stretch="normal"
    units-per-em="1000"
    panose-1="0 0 0 0 0 0 0 0 0 0"
    ascent="800"
    descent="-200"
    x-height="470"
    cap-height="620"
    bbox="-123 -257 761 930"
    underline-thickness="50"
    underline-position="-175"
    unicode-range="U+000D-FB02"
  />
<missing-glyph horiz-adv-x="494" 
d="M87 40v498h320v-498h-320zM158 117l83 150l85 -150l13 22l-86 151l86 153l-13 23l-85 -152l-83 151l-11 -22l83 -151l-83 -153zM52 -5l-12 12v568l12 12h391l11 -12v-568l-11 -12h-391zM430 21v540h-364v-540h364z" />
    <glyph glyph-name="fi" unicode="fi" horiz-adv-x="395" 
d="M70 441h-43v29h43v79q0 41 18.5 57t67.5 16h82v-29h-59q-33 0 -45 -11.5t-12 -40.5v-71h199l-4 -29h-195v-441h-52v441zM301 470h50v-470h-50v470z" />
    <glyph glyph-name="fl" unicode="fl" horiz-adv-x="402" 
d="M70 441h-43v29h43v79q0 41 18.5 57t67.5 16l185 -2l-23 -27h-139q-33 0 -45 -11.5t-12 -40.5v-71h86l-4 -29h-82v-441h-52v441zM292 620h50v-620h-50v620z" />
    <glyph glyph-name="f_f" unicode="ff" horiz-adv-x="469" 
d="M70 441h-43v29h43v79q0 41 18.5 57t67.5 16h82v-29h-59q-33 0 -45 -11.5t-12 -40.5v-71h164l-6 -29h-158v-441h-52v441zM283 441h-43v29h43v79q0 41 19 57t68 16h83v-29h-60q-34 0 -45 -11.5t-11 -40.5v-71h86l-6 -29h-80v-441h-54v441z" />
    <glyph glyph-name="f_f_i" unicode="ffi" horiz-adv-x="614" 
d="M283 441h-43v29h43v79q0 41 19 57t68 16h83v-29h-60q-34 0 -45 -11.5t-11 -40.5v-71h207l-6 -29h-201v-441h-54v441zM70 441h-43v29h43v79q0 41 18.5 57t67.5 16h82v-29h-59q-33 0 -45 -11.5t-12 -40.5v-71h164l-6 -29h-158v-441h-52v441zM524 470h50v-470h-50v470z" />
    <glyph glyph-name="f_f_l" unicode="ffl" horiz-adv-x="655" 
d="M70 0v441h-43v29h43v79q0 41 18.5 57t67.5 16h82v-29h-59q-33 0 -45 -11.5t-12 -40.5v-71h205l-4 -29h-201v-441h-52zM323 0v441h-43v29h43v79q0 41 18 57t68 16l181 -2l-23 -27h-135q-34 0 -45.5 -11.5t-11.5 -40.5v-71h87l-5 -29h-82v-441h-52zM545 0v620h50v-620h-50z
" />
    <glyph glyph-name=".notdef" horiz-adv-x="494" 
d="M87 40v498h320v-498h-320zM158 117l83 150l85 -150l13 22l-86 151l86 153l-13 23l-85 -152l-83 151l-11 -22l83 -151l-83 -153zM52 -5l-12 12v568l12 12h391l11 -12v-568l-11 -12h-391zM430 21v540h-364v-540h364z" />
    <glyph glyph-name=".null" horiz-adv-x="600" 
 />
    <glyph glyph-name="nonmarkingreturn" horiz-adv-x="333" 
 />
    <glyph glyph-name="CR" unicode="&#xd;" horiz-adv-x="172" 
 />
    <glyph glyph-name="space" unicode=" " horiz-adv-x="165" 
 />
    <glyph glyph-name="exclam" unicode="!" horiz-adv-x="225" 
d="M95 188l-15 432h52l-15 -432h-22zM105 4q-18 0 -20.5 6t-2.5 18q0 13 2.5 19.5t20.5 6.5t21.5 -6.5t3.5 -19.5q0 -12 -3.5 -18t-21.5 -6z" />
    <glyph glyph-name="quotedbl" unicode="&#x22;" horiz-adv-x="336" 
d="M76 407l-9 214h52l-7 -214h-36zM224 407l-9 214h52l-7 -214h-36z" />
    <glyph glyph-name="numbersign" unicode="#" horiz-adv-x="569" 
d="M84 0l67 218h-135l9 24h135l39 126h-136l8 25h137l57 181h31l-57 -181h130l57 181h33l-58 -181h132l-9 -25h-131l-39 -126h133l-8 -24h-133l-68 -218h-33l69 218h-130l-69 -218h-31zM321 242l40 126h-130l-40 -126h130z" />
    <glyph glyph-name="dollar" unicode="$" horiz-adv-x="347" 
d="M180 -4q-43 1 -76 7.5t-52 23.5t-19 49v129l51 7v-118q0 -27 20.5 -42t72.5 -15q36 0 54.5 7.5t25.5 24t7 42.5v91q0 37 -18 58.5t-52 31.5l-78 21q-44 14 -63.5 35t-19.5 66v110q0 44 18.5 65t51.5 27.5t77 6.5q42 0 72 -7t46.5 -24t16.5 -49v-129l-51 -9v116
q0 34 -17 48.5t-70 14.5q-52 0 -72.5 -17t-20.5 -60v-84q0 -32 18.5 -50.5t45.5 -26.5l81 -23q46 -13 66 -37t20 -70v-118q0 -43 -16 -65t-46 -29t-73 -8zM98 -93l13 116l35 -4l-14 -112h-34zM217 599l-33 7l14 111h35z" />
    <glyph glyph-name="percent" unicode="%" horiz-adv-x="537" 
d="M66 -44l340 674h36l-342 -674h-34zM403 7q-35 0 -53 8.5t-25 21.5t-7 26v140q0 14 7 27.5t26.5 22t57.5 8.5q36 0 55 -8.5t26 -21t7 -27.5v-134q0 -17 -7 -31.5t-27 -23t-60 -8.5zM403 32q32 0 48 8.5t16 32.5v125q0 22 -15.5 30.5t-42.5 8.5q-28 0 -44 -8.5t-16 -30.5
v-129q0 -21 15 -29t39 -8zM125 365q-35 0 -53.5 8.5t-25 22t-6.5 26.5v141q0 14 6.5 27t26 21.5t57.5 8.5q36 0 55.5 -8.5t26.5 -21.5t7 -27v-134q0 -17 -7.5 -31.5t-27.5 -23.5t-59 -9zM125 391q32 0 48 9t16 31v127q0 20 -15.5 28.5t-43.5 8.5q-27 0 -43.5 -8.5
t-16.5 -28.5v-130q0 -20 15.5 -28.5t39.5 -8.5z" />
    <glyph glyph-name="ampersand" unicode="&#x26;" horiz-adv-x="477" 
d="M222 3q-66 0 -96.5 15.5t-39 42t-8.5 59.5v112q0 33 7 57.5t31.5 38.5t76.5 15q-48 2 -72 13t-32 33t-8 55v87q0 42 12 63t42.5 28t85.5 7q57 0 87 -7.5t41 -28.5t11 -62v-105l-50 -16v107q0 25 -6 39t-25.5 20t-60.5 6q-37 0 -56 -6t-25 -19t-6 -36v-73q0 -37 6.5 -57
t30.5 -28t73 -8h65v-22h-65q-48 0 -72 -10t-32 -31.5t-9 -58.5v-105q0 -14 1.5 -29t8.5 -27t25.5 -19.5t53.5 -7.5q37 0 56.5 7.5t27 20t8.5 27t1 28.5v184h124l-13 -39h-60v-133q0 -29 -3 -54t-16 -43.5t-41.5 -29t-78.5 -10.5z" />
    <glyph glyph-name="quotesingle" unicode="'" horiz-adv-x="189" 
d="M77 407l-9 214h52l-7 -214h-36z" />
    <glyph glyph-name="parenleft" unicode="(" horiz-adv-x="377" 
d="M301 -119q-61 3 -109.5 35t-82.5 84t-52.5 117.5t-18.5 135.5q0 78 20.5 152t57 133t86.5 95t110 39v-25q-45 -3 -81 -28.5t-63 -66t-45.5 -90.5t-27.5 -103.5t-9 -103.5q0 -60 12.5 -119t39 -109t67 -83t96.5 -39v-24z" />
    <glyph glyph-name="parenright" unicode=")" horiz-adv-x="377" 
d="M76 673q61 -4 109.5 -35.5t82.5 -83.5t52 -117t18 -136q0 -78 -20 -152t-56.5 -133t-86.5 -95.5t-110 -38.5v25q44 3 80 28.5t63.5 66t45.5 90.5t27.5 103.5t9.5 102.5q0 61 -13 120t-39 109t-66.5 83t-96.5 39v24z" />
    <glyph glyph-name="asterisk" unicode="*" horiz-adv-x="429" 
d="M134 315l-29 21l99 115l-146 35l9 30l143 -51l-12 148h35l-10 -148l139 55l10 -29l-144 -40l97 -115l-28 -20l-81 128z" />
    <glyph glyph-name="plus" unicode="+" horiz-adv-x="403" 
d="M54 295v29h295v-29h-295zM214 155h-29v295h29v-295zM54 295v29h295v-29h-295z" />
    <glyph glyph-name="comma" unicode="," horiz-adv-x="191" 
d="M42 -109q16 30 24 58t8 57q-14 0 -17 6t-3 15t1 15t6.5 9t18.5 3q17 0 20.5 -6.5t3.5 -19.5q0 -23 -5.5 -49t-13 -49.5t-17.5 -38.5h-26z" />
    <glyph glyph-name="hyphen" unicode="-" horiz-adv-x="390" 
d="M65 283v41h261v-41h-261z" />
    <glyph glyph-name="period" unicode="." horiz-adv-x="164" 
d="M76 4q-18 0 -21 6t-3 18q0 13 3 19.5t21 6.5t21.5 -6.5t3.5 -19.5q0 -12 -4 -18t-21 -6z" />
    <glyph glyph-name="slash" unicode="/" horiz-adv-x="450" 
d="M38 -44l340 674h34l-342 -674h-32z" />
    <glyph glyph-name="zero" unicode="0" horiz-adv-x="378" 
d="M43 177v315q0 43 12.5 68.5t34 39.5t46.5 18.5t52 4.5t53.5 -4.5t47.5 -18.5t33.5 -40t12.5 -69v-314h-51v305q0 44 -14 65t-36.5 27.5t-45.5 6.5q-21 0 -42.5 -7.5t-36 -28t-14.5 -62.5v-306h-52zM188 -6q-27 0 -52 4.5t-46.5 18.5t-34 40t-12.5 68v315h52v-306
q0 -41 14.5 -62t36 -28.5t42.5 -7.5q23 0 45.5 7t36.5 28.5t14 63.5v305h51v-314q0 -43 -12.5 -69t-33.5 -40t-47.5 -18.5t-53.5 -4.5z" />
    <glyph glyph-name="one" unicode="1" horiz-adv-x="269" 
d="M161 0v550l-117 -139l-29 27l146 182h50v-620h-50z" />
    <glyph glyph-name="two" unicode="2" horiz-adv-x="351" 
d="M35 0v31q1 60 8.5 100t22 67.5t36.5 48.5t51 42q10 7 20 13.5t19 13.5q40 32 57.5 61.5t17.5 76.5v35q0 50 -20.5 71.5t-55.5 21.5h-23q-32 0 -49 -14.5t-23 -35t-6 -38.5v-99l-51 9v89q0 48 14.5 76t43 39.5t71.5 11.5h30q40 0 66.5 -12t39.5 -38t13 -69v-54
q0 -55 -25.5 -91t-69.5 -72q-11 -10 -24 -20t-26 -19q-40 -32 -58.5 -67t-23.5 -70.5t-5 -66.5h232l-11 -41h-271z" />
    <glyph glyph-name="three" unicode="3" horiz-adv-x="363" 
d="M169 -1q-48 0 -76.5 14t-40.5 43t-12 75v86l50 -7v-64q0 -51 17.5 -78t60.5 -27h26q44 0 60.5 28.5t16.5 74.5v52q0 43 -11 65.5t-30 31t-45 8.5h-69v36h63q26 0 46.5 9t33 32.5t12.5 67.5v46q0 53 -17.5 71.5t-57.5 18.5h-31q-30 0 -46.5 -13t-22.5 -33.5t-6 -43.5v-81
l-50 11v72q0 63 30.5 94.5t85.5 31.5h48q37 0 63 -10.5t40 -38.5t14 -81v-42q0 -32 -9 -56.5t-24.5 -41t-33.5 -24.5t-34 -8v-1q16 0 34 -6t33.5 -19t24.5 -34.5t9 -51.5l1 -74q0 -69 -33.5 -101t-91.5 -32h-28z" />
    <glyph glyph-name="four" unicode="4" horiz-adv-x="413" 
d="M255 0l2 128h-231l-17 26l240 466h61l-1 -451h99l-11 -41h-87v-128h-55zM68 169h191v383z" />
    <glyph glyph-name="five" unicode="5" horiz-adv-x="364" 
d="M164 -2q-45 0 -71 15t-37 45t-11 76v83l52 -11v-68q0 -44 14 -71.5t56 -27.5h33q37 0 58 27t21 72v101q0 52 -8.5 79t-25.5 37t-44 10h-19q-27 0 -45.5 -12.5t-28 -28t-11.5 -23.5l-50 10v309h270v-41h-220v-224q3 4 15.5 15.5t33.5 21.5t49 10h26q27 0 47 -7t33.5 -25
t20.5 -48.5t7 -76.5v-104q0 -44 -12 -72t-31 -43.5t-39.5 -21.5t-38.5 -6h-44z" />
    <glyph glyph-name="six" unicode="6" horiz-adv-x="364" 
d="M181 -4q-29 0 -54 6t-44 22.5t-29.5 48t-10.5 81.5v343q0 42 13.5 70t45 42.5t83.5 14.5q48 0 78.5 -13.5t45.5 -39t15 -63.5v-60l-50 -8v54q0 43 -20.5 65t-68.5 22q-49 0 -70.5 -22t-21.5 -65v-164q6 27 33.5 45t76.5 18t75.5 -18.5t36 -47.5t9.5 -62v-111
q0 -50 -10 -81.5t-28.5 -48t-45 -22.5t-59.5 -6zM180 38q30 0 51 9.5t32 37t11 81.5v92q0 25 -6.5 48.5t-25.5 38t-58 14.5q-48 0 -69.5 -27t-21.5 -74v-92q0 -54 12 -81.5t32 -37t43 -9.5z" />
    <glyph glyph-name="seven" unicode="7" horiz-adv-x="342" 
d="M26 0l243 579h-251l9 41h315l-258 -620h-58z" />
    <glyph glyph-name="eight" unicode="8" horiz-adv-x="368" 
d="M171 -2q-45 0 -74 14t-42.5 46.5t-13.5 87.5v45q0 44 10.5 71t29.5 40.5t42 15.5q-22 7 -40 20t-28.5 38.5t-10.5 69.5v37q0 50 13 80.5t41.5 44.5t72.5 14h28q65 0 95 -31.5t30 -105.5v-39q0 -42 -11 -68t-29 -39.5t-42 -20.5q25 -2 44 -16t30 -41t11 -70v-29
q0 -63 -14.5 -98.5t-45 -50.5t-78.5 -15h-18zM181 39q29 0 50.5 8.5t33 35t11.5 79.5v41q0 33 -7 55t-26.5 34t-58.5 12q-38 0 -58 -12t-27.5 -34t-7.5 -55v-51q0 -48 13 -72.5t33 -32.5t44 -8zM184 343q29 0 49 8t31 30.5t11 63.5v37q0 31 -6.5 54t-26 35.5t-58.5 12.5
q-38 0 -58 -12.5t-26.5 -35t-6.5 -51.5v-41q0 -41 10.5 -63t31 -30t49.5 -8z" />
    <glyph glyph-name="nine" unicode="9" horiz-adv-x="364" 
d="M180 -5q-48 0 -79 13.5t-45.5 39.5t-14.5 63v73l49 -7v-52q0 -43 21 -65t69 -22q49 0 70 22t21 65v164q-6 -27 -33 -45t-75 -18q-50 0 -76.5 18.5t-36.5 48t-10 61.5v111q0 50 10 81.5t29 48t45.5 22.5t58.5 6q29 0 54.5 -6t44.5 -22.5t29 -48t10 -81.5v-343
q0 -42 -13.5 -70t-44 -42.5t-83.5 -14.5zM181 260q48 0 69 27.5t21 73.5v92q0 54 -12 81.5t-31.5 37t-43.5 9.5q-29 0 -50.5 -9.5t-32.5 -37t-11 -81.5v-92q0 -25 6.5 -48t26.5 -38t58 -15z" />
    <glyph glyph-name="colon" unicode=":" horiz-adv-x="175" 
d="M76 354q-18 0 -21 6t-3 18q0 13 3 19.5t21 6.5t21.5 -6.5t3.5 -19.5q0 -12 -4 -18t-21 -6zM76 4q-18 0 -21 6t-3 18q0 13 3 19.5t21 6.5t21.5 -6.5t3.5 -19.5q0 -12 -4 -18t-21 -6z" />
    <glyph glyph-name="semicolon" unicode=";" horiz-adv-x="196" 
d="M42 -109q16 30 24 58t8 57q-13 0 -16 6t-3 15t0.5 15t6.5 9t18 3q16 0 19.5 -6.5t3.5 -19.5q0 -23 -5 -49t-12.5 -49.5t-17.5 -38.5h-26zM76 354q-18 0 -21 6t-3 18q0 13 3 19.5t21 6.5t21.5 -6.5t3.5 -19.5q0 -12 -4 -18t-21 -6z" />
    <glyph glyph-name="less" unicode="&#x3c;" horiz-adv-x="385" 
d="M295 122l-247 188v33l247 189v-42l-216 -164l216 -162v-42z" />
    <glyph glyph-name="equal" unicode="=" horiz-adv-x="384" 
d="M54 295v29h287v-29h-287zM54 103v30h287v-30h-287z" />
    <glyph glyph-name="greater" unicode="&#x3e;" horiz-adv-x="385" 
d="M92 122v42l216 162l-216 164v42l247 -189v-33z" />
    <glyph glyph-name="question" unicode="?" horiz-adv-x="385" 
d="M113 146l-3 174h103q33 0 46 9.5t15.5 26t2.5 37.5v99q0 46 -22 66.5t-53 20.5h-29q-30 0 -47 -14t-23.5 -34t-6.5 -39v-104l-50 7v94q0 70 34 101.5t98 31.5h26q58 0 90.5 -32.5t32.5 -92.5v-110q0 -57 -22.5 -80.5t-78.5 -24.5h-71l-8 -136h-34zM130 0q-15 0 -19 5
t-4 18q0 15 4 20.5t19 5.5q17 0 21 -5.5t4 -20.5q0 -13 -4 -18t-21 -5z" />
    <glyph glyph-name="at" unicode="@" horiz-adv-x="591" 
d="M296 -73q-88 1 -145 30.5t-84.5 96.5t-27.5 177q0 90 16 148.5t48 92t81 47t115 13.5q79 0 135.5 -25t87 -82.5t30.5 -156.5q0 -27 -2 -58.5t-9 -62t-21 -56t-37 -41t-57 -15.5q-32 0 -47 17t-15 65q-6 -17 -18.5 -26t-36.5 -9h-37q-31 0 -46 11t-20 30.5t-5 43.5v20
q0 42 11.5 64.5t46.5 22.5h90v52q-1 25 -8.5 38.5t-33.5 13.5h-22q-39 0 -39 -52v-24h-37v26q0 35 16.5 53.5t48.5 18.5h30q34 0 52 -9t25 -26t7 -43v-162q0 -42 3 -62.5t11 -27t23 -6.5q22 0 37 16t24 44.5t12.5 63.5t3.5 73q0 47 -8 91t-29 77.5t-60.5 53t-104.5 19.5
q-76 0 -122.5 -26t-67.5 -85t-21 -160q0 -86 17.5 -147.5t63 -94t130.5 -32.5q21 0 46 3.5t47.5 10t32.5 12.5l11 -21q-21 -16 -61 -25.5t-80 -9.5zM304 106q21 0 33 13t12 39v93h-71q-21 0 -30 -11.5t-9 -42.5v-34q0 -34 12 -45.5t34 -11.5h19z" />
    <glyph glyph-name="A" unicode="A" horiz-adv-x="376" 
d="M18 0l132 620h76l130 -620h-53l-32 151l11 -10h-191l9 10l-30 -151h-52zM101 176l-5 6h182l-7 -6l-73 379l-2 7h-17l-2 -7z" />
    <glyph glyph-name="B" unicode="B" horiz-adv-x="388" 
d="M58 0v620h162q42 0 66.5 -8t35 -30t10.5 -64v-55q0 -35 -11 -60.5t-27.5 -39t-33.5 -16.5l1 -1q29 -4 46.5 -18.5t25.5 -36.5t8 -52v-118q0 -45 -8.5 -71.5t-33.5 -38t-72 -11.5h-169zM110 41h102q26 0 43 5.5t25 24t8 56.5v118q0 42 -26 59.5t-65 17.5h-87v-281z
M110 363h98q17 0 34 8.5t28 29.5t11 60v36q0 32 -4 50.5t-19.5 26.5t-48.5 8h-99v-219z" />
    <glyph glyph-name="C" unicode="C" horiz-adv-x="371" 
d="M188 -6q-69 0 -104 26t-35 78v418q0 56 32 84t104 28q74 0 108.5 -27t34.5 -86v-132l-51 -8v129q0 37 -18 59t-72 22q-51 0 -69 -22.5t-18 -57.5v-397q0 -31 20.5 -51.5t66.5 -20.5q48 0 69 20.5t21 52.5v122l51 8v-141q0 -52 -36.5 -78t-103.5 -26z" />
    <glyph glyph-name="D" unicode="D" horiz-adv-x="388" 
d="M58 620h197q47 0 65.5 -24.5t18.5 -71.5v-427q0 -52 -17 -74.5t-73 -22.5h-191v620zM220 41q40 0 54 14.5t14 55.5v399q0 35 -15.5 52t-44.5 17h-119v-538h111z" />
    <glyph glyph-name="E" unicode="E" horiz-adv-x="364" 
d="M58 620h276v-41h-225v-210h209l-8 -40h-201v-289h225v-40h-276v620z" />
    <glyph glyph-name="F" unicode="F" horiz-adv-x="360" 
d="M58 620h276v-41h-225v-210h209l-8 -40h-201v-329h-51v620z" />
    <glyph glyph-name="G" unicode="G" horiz-adv-x="377" 
d="M193 -3q-46 0 -78.5 7.5t-49 28t-16.5 57.5v441q0 56 37.5 74.5t106.5 18.5q67 0 102.5 -19t35.5 -75v-106l-51 -5v102q0 38 -22.5 50t-64.5 12t-67.5 -11t-25.5 -50v-425q0 -26 11.5 -38.5t33 -16t48.5 -3.5t46.5 3.5t30.5 16t11 38.5v193h-110l6 43h154v-243
q0 -37 -16 -57.5t-47 -28t-75 -7.5z" />
    <glyph glyph-name="H" unicode="H" horiz-adv-x="397" 
d="M58 620h51v-251h179v251h51v-620h-51v329h-179v-329h-51v620z" />
    <glyph glyph-name="I" unicode="I" horiz-adv-x="168" 
d="M58 620h51v-620h-51v620z" />
    <glyph glyph-name="J" unicode="J" horiz-adv-x="194" 
d="M8 0l-8 41h51q19 0 27 5t9.5 20t1.5 46v508h50v-522q0 -41 -3.5 -62.5t-20 -28.5t-54.5 -7h-53z" />
    <glyph glyph-name="K" unicode="K" horiz-adv-x="362" 
d="M306 -9l-180 343l169 291l39 -24l-155 -264l173 -323zM58 620h52v-620h-52v620z" />
    <glyph glyph-name="L" unicode="L" horiz-adv-x="324" 
d="M58 620h51v-580h201v-40h-252v620z" />
    <glyph glyph-name="M" unicode="M" horiz-adv-x="550" 
d="M58 0v620h65l150 -479l1 -4h1l1 4l150 479h66v-620h-51v514v2l-2 -13l-143 -441h-42l-143 437v10l-2 2v-511h-51z" />
    <glyph glyph-name="N" unicode="N" horiz-adv-x="406" 
d="M58 0v620h52l185 -508l1 -5l1 -1v514h51v-620h-54l-182 488l-3 7v0v-495h-51z" />
    <glyph glyph-name="O" unicode="O" horiz-adv-x="379" 
d="M189 -3q-69 0 -104.5 25t-35.5 71v441q0 41 32.5 68t107.5 26t108.5 -27t33.5 -68v-439q0 -46 -35.5 -71.5t-106.5 -25.5zM189 39q48 0 70 19t22 48v416q0 25 -19.5 44.5t-74.5 19.5q-50 0 -69 -19t-19 -44v-418q0 -29 21.5 -47.5t68.5 -18.5z" />
    <glyph glyph-name="P" unicode="P" horiz-adv-x="372" 
d="M58 620h188q43 0 63.5 -10.5t27 -32t6.5 -53.5v-156q0 -36 -6 -67.5t-31 -51t-82 -19.5h-115v-230h-51v620zM211 271q40 0 60.5 20.5t20.5 67.5v145q0 43 -14.5 59t-53.5 16h-115v-308h102z" />
    <glyph glyph-name="Q" unicode="Q" horiz-adv-x="376" 
d="M190 -6q-69 0 -105 26t-36 78v418q0 57 33.5 84.5t106.5 27.5q73 -1 107.5 -28t34.5 -85v-417q0 -52 -37.5 -78t-103.5 -26zM189 36q48 0 69.5 19.5t21.5 51.5v398q0 38 -18.5 59t-72.5 21q-52 0 -70.5 -21.5t-18.5 -57.5v-402q0 -31 21.5 -49.5t67.5 -18.5zM328 -116
l-112 116l34 35l115 -116z" />
    <glyph glyph-name="R" unicode="R" horiz-adv-x="390" 
d="M58 620h188q43 0 63.5 -10.5t27 -32t6.5 -53.5v-112q0 -36 -6 -67.5t-31 -51t-82 -19.5h-115v-274h-51v620zM318 -13l-115 290l36 4l14 -4l3 -7l109 -265zM211 315q40 0 60.5 20t20.5 68v101q0 43 -14.5 59t-53.5 16h-115v-264h102z" />
    <glyph glyph-name="S" unicode="S" horiz-adv-x="368" 
d="M190 -4q-43 1 -76 7.5t-52.5 23.5t-19.5 49v129l51 7v-118q0 -27 20.5 -42t73.5 -15q36 0 54.5 7.5t25 24t6.5 42.5v91q0 37 -17.5 58.5t-51.5 31.5l-78 21q-44 14 -64 35t-20 66v110q0 44 19 65t52 27.5t76 6.5t72.5 -7t46 -24t16.5 -49v-129l-51 -9v116q0 34 -17 48.5
t-69 14.5q-53 0 -73.5 -17t-20.5 -60v-84q0 -32 18.5 -50.5t46.5 -26.5l81 -23q46 -13 65.5 -37t19.5 -70v-118q0 -43 -16 -65t-45.5 -29t-72.5 -8z" />
    <glyph glyph-name="T" unicode="T" horiz-adv-x="311" 
d="M129 579h-110v41h273v-41h-112v-579h-51v579z" />
    <glyph glyph-name="U" unicode="U" horiz-adv-x="389" 
d="M194 -5q-38 0 -70 9t-51 29.5t-19 55.5v531h51v-514q0 -18 7.5 -34t26.5 -26t55 -10q39 0 58 10t25.5 26t6.5 34v514h51v-531q0 -35 -18 -55.5t-50 -29.5t-73 -9z" />
    <glyph glyph-name="V" unicode="V" horiz-adv-x="359" 
d="M152 0l-131 620h51l106 -540l1 -14h1l1 14l104 540h53l-131 -620h-55z" />
    <glyph glyph-name="W" unicode="W" horiz-adv-x="559" 
d="M140 0l-118 620h51l93 -517l1 -14h1v14l96 485h40l88 -485l1 -14h1l1 14l90 517h52l-116 -620h-52l-83 467v11h-1l-1 -11l-92 -467h-52z" />
    <glyph glyph-name="X" unicode="X" horiz-adv-x="365" 
d="M20 0l126 325l-120 295h52l102 -256l2 -17h1l3 17l101 256h52l-120 -295l127 -325h-54l-107 277l-2 20h-1l-3 -20l-107 -277h-52z" />
    <glyph glyph-name="Y" unicode="Y" horiz-adv-x="345" 
d="M147 0v253l-136 367h47l113 -301l2 -14h1l1 14l111 301h48l-137 -367v-253h-50z" />
    <glyph glyph-name="Z" unicode="Z" horiz-adv-x="297" 
d="M11 0l197 579h-181v41h246l-198 -579h203v-41h-267z" />
    <glyph glyph-name="bracketleft" unicode="[" horiz-adv-x="217" 
d="M36 630h142v-22h-92v-643h92v-22h-142v687z" />
    <glyph glyph-name="backslash" unicode="\" horiz-adv-x="450" 
d="M380 -44l-342 674h34l340 -674h-32z" />
    <glyph glyph-name="bracketright" unicode="]" horiz-adv-x="217" 
d="M39 -35h91v643h-91v22h141v-687h-141v22z" />
    <glyph glyph-name="asciicircum" unicode="^" horiz-adv-x="301" 
d="M38 648l88 93h50l88 -93h-34l-79 73l-79 -73h-34z" />
    <glyph glyph-name="underscore" unicode="_" horiz-adv-x="630" 
d="M0 -107v42h642v-42h-642z" />
    <glyph glyph-name="grave" unicode="`" horiz-adv-x="136" 
d="M103 534l-103 95h50l86 -95h-33z" />
    <glyph glyph-name="a" unicode="a" 
d="M128 0q-35 0 -51 10t-19 37.5t-3 79.5v250q0 39 8 59t31 27t68 7h174v-470h-50v429h-127q-28 0 -39.5 -7t-13 -23.5t-1.5 -45.5v-238q0 -31 3 -47t13 -21.5t31 -5.5h103l-7 -41h-120z" />
    <glyph glyph-name="b" unicode="b" horiz-adv-x="395" 
d="M60 0v629h50v-159h124q45 0 68 -7t31 -27t8 -59v-246q0 -54 -3.5 -82.5t-19.5 -38.5t-55 -10h-203zM110 41h132q22 0 32 5.5t13.5 21.5t3.5 47v238q0 29 -2 45.5t-13 23.5t-39 7h-127v-388z" />
    <glyph glyph-name="c" unicode="c" horiz-adv-x="379" 
d="M185 -4q-56 0 -85 16t-39 41t-10 50v265q0 26 10 50.5t40.5 40.5t90.5 16q57 0 87 -15.5t41.5 -40t11.5 -51.5v-68l-50 -7v67q0 38 -24.5 57t-66.5 19q-41 0 -65.5 -19t-24.5 -57v-248q0 -38 24 -56.5t60 -18.5q47 0 72 19.5t25 62.5v59l50 6v-69q0 -32 -12 -59
t-43.5 -43.5t-91.5 -16.5z" />
    <glyph glyph-name="d" unicode="d" 
d="M131 0q-31 0 -48 6.5t-22.5 29.5t-5.5 70v273q0 37 8 57t29.5 27t63.5 7h130v159h50v-629h-205zM286 41v388h-125q-35 0 -45.5 -10t-10.5 -45v-275q0 -38 10 -48t38 -10h133z" />
    <glyph glyph-name="e" unicode="e" horiz-adv-x="383" 
d="M185 -4q-56 0 -85 16t-39 41t-10 50v265q0 26 10 50.5t40.5 40.5t90.5 16q57 0 87 -15.5t41.5 -40t11.5 -51.5v-114l-50 -2v108q0 38 -24.5 57t-66.5 19q-41 0 -65.5 -19t-24.5 -57v-248q0 -38 24 -56.5t60 -18.5q47 0 72 19.5t25 62.5v50l50 5v-59q0 -32 -12 -59
t-43.5 -43.5t-91.5 -16.5zM59 230v29h273v-29h-273z" />
    <glyph glyph-name="f" unicode="f" horiz-adv-x="216" 
d="M70 441h-43v29h43v79q0 41 18.5 57t67.5 16h81v-29h-60q-33 0 -45 -11.5t-12 -40.5v-71h87l-5 -29h-82v-441h-50v441z" />
    <glyph glyph-name="g" unicode="g" 
d="M108 -173l-7 40h139q29 0 37.5 14.5t8.5 46.5v501h-127q-28 0 -39.5 -7t-13 -23.5t-1.5 -45.5v-238q0 -31 3 -47t13 -21.5t31 -5.5h103l-7 -41h-120q-35 0 -51 10t-19 37.5t-3 79.5v250q0 39 8 59t31 27t68 7h174v-554q0 -46 -17 -67.5t-62 -21.5h-149z" />
    <glyph glyph-name="h" unicode="h" horiz-adv-x="395" 
d="M60 629h50v-206q16 25 42 38.5t68 13.5q52 0 77.5 -16t34.5 -39.5t9 -45.5v-374h-50v357q0 42 -24.5 60t-66.5 18q-37 0 -57.5 -14t-32.5 -36v-385h-50v629z" />
    <glyph glyph-name="i" unicode="i" horiz-adv-x="169" 
d="M59 0v470h50v-470h-50zM84 535q-19 0 -24.5 5.5t-5.5 20.5q0 16 5.5 21.5t24.5 5.5t24.5 -5.5t5.5 -21.5q0 -15 -5.5 -20.5t-24.5 -5.5z" />
    <glyph glyph-name="j" unicode="j" horiz-adv-x="185" 
d="M-38 -173l-7 40h75q28 0 36.5 14.5t8.5 46.5v542h50v-554q0 -46 -16.5 -67.5t-61.5 -21.5h-85zM100 535q-19 0 -24.5 5.5t-5.5 20.5q0 16 5.5 21.5t24.5 5.5q20 0 25 -5.5t5 -21.5q0 -15 -5 -20.5t-25 -5.5z" />
    <glyph glyph-name="k" unicode="k" horiz-adv-x="349" 
d="M60 0v628h50v-628h-50zM295 0l-152 222h-55v38h55l132 222l47 -18l-134 -218l165 -246h-58z" />
    <glyph glyph-name="l" unicode="l" horiz-adv-x="169" 
d="M60 628h50v-628h-50v628z" />
    <glyph glyph-name="m" unicode="m" horiz-adv-x="626" 
d="M60 0v472h40l5 -49q16 25 44.5 39.5t70.5 14.5q41 0 65.5 -11t37.5 -28.5t16 -36.5l-12 -9q6 32 25.5 50.5t46.5 26.5t53 8q52 0 77 -16.5t34 -40t9 -45.5v-375h-50v358q0 42 -25 60t-65 18q-38 0 -64.5 -18t-26.5 -60v-358h-50v359q0 41 -25 59t-66 18
q-37 0 -57.5 -14.5t-32.5 -36.5v-385h-50z" />
    <glyph glyph-name="n" unicode="n" horiz-adv-x="395" 
d="M60 472h40l5 -49q16 24 44.5 39t70.5 15q60 0 90.5 -26t30.5 -76v-375h-50v358q0 41 -24.5 59.5t-66.5 18.5q-35 0 -56.5 -14.5t-33.5 -36.5v-385h-50v472z" />
    <glyph glyph-name="o" unicode="o" horiz-adv-x="383" 
d="M185 -4q-56 0 -85 16t-39 41t-10 50v265q0 26 10 50.5t40.5 40.5t90.5 16q57 0 87 -15.5t41.5 -40t11.5 -51.5v-253q0 -32 -12 -59t-43.5 -43.5t-91.5 -16.5zM185 37q47 0 72 19.5t25 62.5v241q0 38 -24.5 57t-66.5 19q-41 0 -65.5 -19t-24.5 -57v-248q0 -38 24 -56.5
t60 -18.5z" />
    <glyph glyph-name="p" unicode="p" horiz-adv-x="395" 
d="M60 470h203q39 0 55 -10t19.5 -38.5t3.5 -82.5v-246q0 -39 -8 -59t-31 -27t-68 -7h-124v-159h-50v629zM110 429v-388h127q28 0 39 7t13 24t2 45v238q0 31 -3.5 47t-13.5 21.5t-32 5.5h-132z" />
    <glyph glyph-name="q" unicode="q" horiz-adv-x="395" 
d="M336 470v-629h-50v159h-125q-44 0 -67 7t-31 27t-8 59v246q0 54 3 82.5t19 38.5t55 10h204zM286 429h-133q-21 0 -31.5 -5.5t-13.5 -21.5t-3 -47v-238q0 -28 1.5 -45t13 -24t39.5 -7h127v388z" />
    <glyph glyph-name="r" unicode="r" horiz-adv-x="274" 
d="M60 0v470h40l5 -49q16 26 42.5 40.5t55.5 14.5q24 0 37 -3t24 -8l-2 -44q-13 5 -27 8t-35 3q-32 0 -55 -16.5t-35 -44.5v-371h-50z" />
    <glyph glyph-name="s" unicode="s" horiz-adv-x="360" 
d="M176 -6q-71 0 -101 29.5t-30 82.5v68l45 7v-73q0 -19 7 -37t25.5 -29.5t53.5 -11.5q43 0 67.5 15t24.5 63q0 42 -12.5 62.5t-48.5 37.5q-6 3 -20 9t-30 12t-29.5 12t-19.5 9q-24 13 -38 26.5t-19.5 32t-5.5 44.5v12q0 57 32.5 83.5t104.5 26.5q71 0 101.5 -25t30.5 -81
v-70l-46 -6v71q0 44 -22.5 59.5t-65.5 15.5q-41 0 -60 -12.5t-24 -30.5t-5 -34q0 -37 8.5 -52t33.5 -29q13 -7 31.5 -14.5t38 -15.5t34.5 -16q44 -20 60.5 -44.5t16.5 -71.5v-9q0 -57 -29.5 -86.5t-108.5 -29.5z" />
    <glyph glyph-name="t" unicode="t" horiz-adv-x="219" 
d="M164 0q-38 0 -61 9.5t-33 32t-10 60.5v330h-33v38h39l8 88h36v-88h85l-11 -38h-74v-319q0 -43 18 -57.5t50 -14.5h29v-41h-43z" />
    <glyph glyph-name="u" unicode="u" 
d="M175 0q-51 0 -77 15t-34.5 37.5t-8.5 44.5v373h50v-353q0 -41 24.5 -58.5t65.5 -17.5h91v429h50v-470h-161z" />
    <glyph glyph-name="v" unicode="v" horiz-adv-x="315" 
d="M139 0l-127 470h48l99 -379l5 24l89 355h49l-128 -470h-35z" />
    <glyph glyph-name="w" unicode="w" horiz-adv-x="553" 
d="M10 470h50l104 -371l90 371h41l91 -366l104 366h50l-132 -470h-34l-99 390l-99 -390h-34z" />
    <glyph glyph-name="x" unicode="x" horiz-adv-x="310" 
d="M253 0l-93 241l91 229h44l-90 -229l92 -241h-44zM13 0l93 241l-91 229h45l91 -229l-93 -241h-45zM123 218v41h66v-41h-66z" />
    <glyph glyph-name="y" unicode="y" horiz-adv-x="327" 
d="M-8 -170l5 33h37q36 0 58 16.5t33 65.5l16 61l-129 464h49l102 -385l1 -12h-3l1 12l102 385h50l-148 -537q-16 -56 -41 -79.5t-81 -23.5h-52z" />
    <glyph glyph-name="z" unicode="z" horiz-adv-x="293" 
d="M20 9l190 420h-187l10 41h232v-27l-182 -402h191l-17 -41h-237v9z" />
    <glyph glyph-name="braceleft" unicode="{" horiz-adv-x="313" 
d="M259 -135q-65 0 -103.5 14t-58.5 35t-27 42.5t-7 36.5q0 37 8 69t15.5 61.5t7.5 58.5q0 38 -15.5 58.5t-44.5 20.5v8q29 0 44.5 21t15.5 58q0 32 -7.5 60.5t-15.5 59t-8 69.5q0 15 7 36.5t27 42.5t58.5 35t103.5 14v-32q-46 0 -74 -11t-43 -27t-21 -34t-6 -33
q0 -28 7 -54.5t13.5 -54t6.5 -60.5q0 -38 -16 -62t-53 -32q37 -7 53 -31t16 -63q0 -31 -6.5 -58t-13.5 -53.5t-7 -57.5q0 -15 6 -33t21 -34t43 -27t74 -11v-32z" />
    <glyph glyph-name="bar" unicode="|" horiz-adv-x="218" 
d="M88 649h42v-722h-42v722z" />
    <glyph glyph-name="braceright" unicode="}" horiz-adv-x="313" 
d="M54 -135v32q46 0 74 11t43 27t20.5 34t5.5 33q0 31 -6.5 57.5t-13.5 53.5t-7 58q0 39 16.5 63t53.5 31q-37 8 -53.5 32t-16.5 62q0 33 7 60.5t13.5 54t6.5 54.5q0 15 -5.5 33t-20.5 34t-43 27t-74 11v32q65 0 103.5 -14t58.5 -35t27 -42.5t7 -36.5q0 -39 -7.5 -69.5
t-15.5 -59t-8 -60.5q0 -37 15.5 -58t44.5 -21v-8q-29 0 -44.5 -20.5t-15.5 -58.5q0 -29 8 -58.5t15.5 -61.5t7.5 -69q0 -15 -7 -36.5t-27 -42.5t-58.5 -35t-103.5 -14z" />
    <glyph glyph-name="asciitilde" unicode="~" horiz-adv-x="417" 
d="M52 621q0 42 23.5 61.5t60.5 19.5q31 0 53.5 -11t43 -22t44.5 -11q30 0 42.5 14.5t12.5 28.5h34q0 -42 -25.5 -59.5t-58.5 -17.5q-31 0 -53 11.5t-42 23t-44 11.5q-25 0 -40 -13.5t-15 -35.5h-36z" />
    <glyph glyph-name="uni00A0" unicode="&#xa0;" horiz-adv-x="165" 
 />
    <glyph glyph-name="exclamdown" unicode="&#xa1;" horiz-adv-x="225" 
d="M114 475q18 0 21.5 -6t3.5 -18q0 -14 -3.5 -20t-21.5 -6q-17 0 -20 6t-3 20q0 12 3 18t20 6zM104 291h22l15 -432h-52z" />
    <glyph glyph-name="cent" unicode="&#xa2;" horiz-adv-x="347" 
d="M167 92q-56 0 -84.5 16t-39 41t-10.5 50v263q0 27 10.5 51.5t41 40.5t90.5 16q56 0 86 -16t42 -40.5t12 -50.5v-70l-50 -6v67q0 38 -25 57t-66 19t-66 -19t-25 -57v-246q0 -39 24.5 -57t59.5 -18q47 0 72.5 19.5t25.5 62.5v59l50 5v-68q0 -32 -12 -59.5t-43.5 -43.5
t-92.5 -16zM137 -85l49 765h16l-50 -765h-15z" />
    <glyph glyph-name="sterling" unicode="&#xa3;" horiz-adv-x="431" 
d="M293 -2q-20 0 -53.5 4.5t-69.5 8.5t-62 4q-19 0 -33.5 -2.5t-22.5 -8.5v20q42 44 59 95t17 129q0 54 -11 100t-22 85.5t-11 72.5q0 65 36.5 94t95.5 29q62 0 97.5 -30.5t35.5 -104.5v-43h-52v37q0 63 -24 86t-59 23q-36 0 -58 -22.5t-22 -63.5q0 -33 10.5 -72t21.5 -86.5
t11 -107.5q0 -80 -18 -127t-48 -71h11h12q20 0 43 -3.5t45 -7t40 -3.5q27 0 45.5 16.5t18.5 64.5v59l54 10v-62q0 -34 -5.5 -62t-24.5 -44.5t-57 -16.5zM53 268l6 25h213l-7 -25h-212z" />
    <glyph glyph-name="currency" unicode="&#xa4;" horiz-adv-x="350" 
d="M178 235q-35 0 -63 17t-45 45.5t-17 62.5q0 35 17 63t45 45t63 17q34 0 62 -17t45 -45t17 -63q0 -34 -17 -62.5t-45 -45.5t-62 -17zM177 272q35 1 61 26.5t26 61.5t-25.5 62t-61.5 26q-37 0 -62.5 -26t-25.5 -62t25.5 -62t62.5 -26zM53 214l-21 21l58 58l22 -18zM298 217
l-58 59l22 19l58 -56zM262 425l-20 21l60 58l21 -21zM93 423l-64 62l21 22l62 -61z" />
    <glyph glyph-name="yen" unicode="&#xa5;" horiz-adv-x="362" 
d="M155 0v253l-136 367h48l113 -301l1 -14h1l2 14l110 301h48l-136 -367v-253h-51zM34 149l6 29h282l-6 -29h-282zM34 273l6 30h282l-6 -30h-282z" />
    <glyph glyph-name="brokenbar" unicode="&#xa6;" horiz-adv-x="218" 
d="M88 -73v316h42v-316h-42zM88 349v300h42v-300h-42z" />
    <glyph glyph-name="section" unicode="&#xa7;" horiz-adv-x="415" 
d="M200 -257q-51 1 -83.5 8t-48.5 25t-16 49v123l50 6v-111q0 -29 20.5 -43.5t72.5 -14.5q37 0 55.5 7.5t25 24.5t6.5 44v81q0 42 -19 62t-50 28l-78 22q-45 14 -71 36.5t-26 74.5v65q0 31 7 53t31 34.5t72 13.5q-33 14 -50 34.5t-17 56.5v100q0 41 15 62.5t47 29.5t83 8
t81 -8t42.5 -26t12.5 -50v-118l-51 -10v111q0 32 -16.5 47.5t-68.5 15.5q-54 0 -74 -17t-20 -60v-89q0 -34 19 -50t46 -24l85 -21q44 -10 69.5 -34t25.5 -68v-79q0 -37 -12 -61t-31.5 -35.5t-41.5 -14.5q17 -9 26 -21t11.5 -27.5t2.5 -35.5v-102q0 -40 -14 -62.5t-43 -30.5
t-75 -9zM270 52q23 2 40.5 25.5t17.5 59.5v64q0 35 -24 53t-52 25q-19 5 -28 8t-14 4t-10.5 2.5t-20.5 4.5q-43 0 -62.5 -10.5t-23.5 -28t-4 -39.5v-52q0 -26 11.5 -41.5t28.5 -23.5t33 -14q38 -10 57.5 -15.5t30 -9.5t20.5 -12z" />
    <glyph glyph-name="dieresis" unicode="&#xa8;" horiz-adv-x="187" 
d="M142 530q-17 0 -20 6.5t-3 17.5q0 14 3 19.5t20 5.5q18 0 21.5 -5.5t3.5 -19.5q0 -11 -3.5 -17.5t-21.5 -6.5zM43 530q-17 0 -20 6.5t-3 17.5q0 14 3 19.5t20 5.5q18 0 21 -5.5t3 -19.5q0 -11 -3 -17.5t-21 -6.5z" />
    <glyph glyph-name="copyright" unicode="&#xa9;" horiz-adv-x="767" 
d="M386 -3q-73 0 -134 24.5t-106.5 67.5t-70.5 99t-25 119q0 67 25 125t70.5 102t106.5 68.5t134 24.5q67 0 127 -24.5t106 -68.5t72 -102t26 -125q0 -63 -26 -119t-72 -99t-106 -67.5t-127 -24.5zM386 24q59 0 113 22.5t96.5 61.5t67 90t24.5 108q0 61 -24.5 114t-67 93
t-96.5 63t-113 23q-63 0 -118 -23t-97.5 -63t-66 -93t-23.5 -114q0 -57 23.5 -108t66 -90t97.5 -61.5t118 -22.5zM378 121q-44 0 -67 12.5t-31.5 32t-8.5 39.5v206q0 21 9 40t33 31.5t72 12.5q44 0 68 -12t33 -31.5t9 -39.5v-54l-40 -5v51q0 30 -19 45.5t-52 15.5
q-32 0 -52 -15t-20 -46v-191q0 -30 19 -44.5t47 -14.5q37 0 57 15t20 48v47l40 4v-54q0 -25 -9 -46.5t-34.5 -34t-73.5 -12.5z" />
    <glyph glyph-name="ordfeminine" unicode="&#xaa;" horiz-adv-x="279" 
d="M96 350q-26 0 -37 7t-13.5 25t-2.5 50v163q0 24 5 37t21.5 18t47.5 5h120v-305h-40v276h-78q-28 0 -32 -10.5t-4 -36.5v-154q0 -28 5.5 -37t26.5 -9h63l-4 -29h-78z" />
    <glyph glyph-name="guillemotleft" unicode="&#xab;" horiz-adv-x="523" 
d="M405 52l-129 185l133 193h45l-133 -193l128 -185h-44zM197 52l-129 185l134 193h45l-133 -193l128 -185h-45z" />
    <glyph glyph-name="logicalnot" unicode="&#xac;" horiz-adv-x="605" 
d="M511 63v231h-467v36h517v-267h-50z" />
    <glyph glyph-name="uni00AD" unicode="&#xad;" horiz-adv-x="127" 
 />
    <glyph glyph-name="registered" unicode="&#xae;" horiz-adv-x="600" 
d="M263 297q-56 0 -101.5 26.5t-71.5 72t-26 101.5q0 54 26 98t71.5 70t100.5 26t99.5 -26t71 -70t26.5 -98q0 -57 -26.5 -102t-71 -71.5t-98.5 -26.5zM262 321q49 1 87.5 24.5t61.5 63t23 88.5q0 46 -23 84.5t-61.5 61.5t-86.5 23q-50 0 -89 -23t-62 -61.5t-23 -84.5
q0 -48 23 -88t62 -64t88 -24zM314 356l-46 116l-41 2v-112h-25v258h81q30 0 37 -10t7 -30v-47q0 -23 -6 -38t-30 -18l46 -112zM227 497h43q16 0 24.5 6t8.5 26v39q0 18 -6 24.5t-23 6.5h-47v-102z" />
    <glyph glyph-name="macron" unicode="&#xaf;" horiz-adv-x="214" 
d="M0 540v33h214v-33h-214z" />
    <glyph glyph-name="degree" unicode="&#xb0;" horiz-adv-x="281" 
d="M141 552q-29 0 -51 12.5t-35 33t-13 45.5q0 26 13 47.5t35 34t51 12.5q26 0 48 -12.5t35.5 -34t13.5 -47.5q0 -25 -13.5 -45.5t-35.5 -33t-48 -12.5zM141 579q27 0 46.5 18t19.5 45t-19.5 46.5t-46.5 19.5q-29 0 -48 -19.5t-19 -46.5t19 -45t48 -18z" />
    <glyph glyph-name="plusminus" unicode="&#xb1;" horiz-adv-x="403" 
d="M186 449h28v-301h-28v301zM69 -9v31h268v-31h-268zM54 295v29h295v-29h-295z" />
    <glyph glyph-name="uni00B2" unicode="&#xb2;" horiz-adv-x="266" 
d="M30 226q0 46 4.5 76t14.5 50t24.5 34.5t34.5 28.5q7 4 12.5 8t10.5 8q24 15 36.5 28t17 28t4.5 33v23q0 32 -12.5 44.5t-35.5 12.5h-16q-20 0 -30 -8t-14 -20.5t-4 -24.5v-65l-44 7v57q0 47 20.5 65t63.5 18h38q39 0 59.5 -18t20.5 -60v-35q0 -36 -18.5 -62t-56.5 -50
q-6 -5 -13 -10.5t-14 -11.5q-28 -22 -40.5 -43.5t-15.5 -41.5t-3 -36l159 1l-7 -36h-196z" />
    <glyph glyph-name="uni00B3" unicode="&#xb3;" horiz-adv-x="273" 
d="M120 225q-44 0 -65.5 20.5t-21.5 65.5v57l44 -6v-42q0 -33 10 -48.5t38 -15.5h17q28 0 39 17t11 46v34q0 40 -15.5 52t-39.5 12h-45v29h40q26 0 43 14.5t17 54.5v31q0 33 -11 43.5t-37 10.5h-21q-28 0 -37 -16t-9 -38v-55l-44 9v50q0 39 18.5 59t53.5 20h55
q36 0 57.5 -16t21.5 -68v-27q0 -28 -11 -46.5t-25 -28t-26 -11.5l-19 -1l19 -1q12 -1 26.5 -8t25 -22t10.5 -40v-48q0 -45 -23 -66t-62 -21h-34z" />
    <glyph glyph-name="acute" unicode="&#xb4;" horiz-adv-x="136" 
d="M0 534l87 95h49l-103 -95h-33z" />
    <glyph glyph-name="uni00B5" unicode="&#xb5;" horiz-adv-x="364" 
d="M158 0q-51 0 -77 15t-34.5 37.5t-8.5 44.5v373h50v-353q0 -41 24 -58.5t66 -17.5h91v429h50v-470h-161zM116 -173q-45 0 -61.5 21.5t-16.5 67.5v554h50v-542q0 -32 8.5 -46.5t35.5 -14.5h10l-7 -40h-19z" />
    <glyph glyph-name="paragraph" unicode="&#xb6;" horiz-adv-x="406" 
d="M196 -115v345h-77q-57 0 -82 19.5t-31 51t-6 67.5v156q0 32 6.5 53.5t27.5 32t63 10.5h150v-735h-51zM301 620h41v-735h-41v735zM143 585v35h172v-35h-172z" />
    <glyph glyph-name="periodcentered" unicode="&#xb7;" horiz-adv-x="154" 
d="M76 232q-18 0 -21 6t-3 18q0 13 3 19.5t21 6.5t21.5 -6.5t3.5 -19.5q0 -12 -4 -18t-21 -6z" />
    <glyph glyph-name="cedilla" unicode="&#xb8;" horiz-adv-x="169" 
d="M70 -176q-21 0 -37.5 8t-27.5 16l15 21q5 -7 18.5 -14.5t28.5 -7.5q24 0 37.5 16.5t13.5 34.5q0 15 -11 29.5t-35 14.5q-16 0 -29 -6.5t-21 -16.5l-19 16l52 65h24l-42 -52q21 14 44 14q37 0 53.5 -19.5t16.5 -42.5q0 -26 -21 -51t-60 -25z" />
    <glyph glyph-name="uni00B9" unicode="&#xb9;" horiz-adv-x="204" 
d="M110 224v354l-74 -88l-19 19l94 118h43l1 -403h-45z" />
    <glyph glyph-name="ordmasculine" unicode="&#xba;" horiz-adv-x="274" 
d="M132 345q-38 0 -57 10.5t-25.5 26.5t-6.5 32v172q0 17 6.5 32.5t27 26t60.5 10.5q39 0 59 -10t28 -26t8 -33v-164q0 -21 -8.5 -38.5t-29.5 -28t-62 -10.5zM133 374q32 0 47 11.5t15 40.5v154q0 25 -15 36t-43 11q-27 0 -42.5 -11t-15.5 -36v-159q0 -25 15 -36t39 -11z
" />
    <glyph glyph-name="guillemotright" unicode="&#xbb;" horiz-adv-x="489" 
d="M265 52l128 185l-133 193h43l134 -193l-129 -185h-43zM57 52l128 185l-133 193h44l133 -193l-129 -185h-43z" />
    <glyph glyph-name="onequarter" unicode="&#xbc;" horiz-adv-x="634" 
d="M110 224v354l-74 -88l-19 19l94 118h43l1 -403h-45zM81 -44l381 674h43l-383 -674h-41zM527 5v80h-161l-18 30l172 293h57l-1 -293h56l-7 -30h-48v-80h-50zM395 115h133v236z" />
    <glyph glyph-name="onehalf" unicode="&#xbd;" horiz-adv-x="661" 
d="M110 224v354l-74 -88l-19 19l94 118h43l1 -403h-45zM81 -44l381 674h43l-383 -674h-41zM425 1q0 46 4.5 76t14.5 50t24.5 34.5t34.5 28.5q7 4 12.5 8t10.5 8q24 15 36.5 28t17 28t4.5 33v23q0 32 -12.5 44.5t-35.5 12.5h-16q-20 0 -30 -8t-14 -20.5t-4 -24.5v-65l-44 7
v57q0 47 20.5 65t63.5 18h38q39 0 59.5 -18t20.5 -60v-35q0 -36 -18.5 -62t-56.5 -50q-6 -5 -13 -10.5t-14 -11.5q-28 -22 -40.5 -43.5t-15.5 -41.5t-3 -36l159 1l-7 -36h-196z" />
    <glyph glyph-name="threequarters" unicode="&#xbe;" horiz-adv-x="621" 
d="M120 225q-44 0 -65.5 20.5t-21.5 65.5v57l44 -6v-42q0 -33 10 -48.5t38 -15.5h17q28 0 39 17t11 46v34q0 40 -15.5 52t-39.5 12h-45v29h40q26 0 43 14.5t17 54.5v31q0 33 -11 43.5t-37 10.5h-21q-28 0 -37 -16t-9 -38v-55l-44 9v50q0 39 18.5 59t53.5 20h55
q36 0 57.5 -16t21.5 -68v-27q0 -28 -11 -46.5t-25 -28t-26 -11.5l-19 -1l19 -1q12 -1 26.5 -8t25 -22t10.5 -40v-48q0 -45 -23 -66t-62 -21h-34zM118 -44l381 674h43l-383 -674h-41zM514 2v80h-161l-18 30l172 293h57l-1 -293h56l-7 -30h-48v-80h-50zM382 112h133v236z" />
    <glyph glyph-name="questiondown" unicode="&#xbf;" horiz-adv-x="385" 
d="M252 326l3 -174h-102q-32 0 -46 -9.5t-16 -26t-2 -37.5v-99q0 -46 21.5 -66.5t52.5 -20.5h30q31 0 47 14t23 34t7 39v104l50 -7v-94q0 -69 -34 -101t-98 -32h-26q-59 0 -91 33t-32 92v110q0 57 23 80.5t77 24.5h71l9 136h33zM235 472q16 0 20 -5t4 -18q0 -15 -4 -20.5
t-20 -5.5t-20 5.5t-4 20.5q0 13 4 18t20 5z" />
    <glyph glyph-name="Agrave" unicode="&#xc0;" horiz-adv-x="376" 
d="M18 0l132 620h76l130 -620h-53l-32 151l11 -10h-191l9 10l-30 -151h-52zM101 176l-5 6h182l-7 -6l-73 379l-2 7h-17l-2 -7zM186 684l-111 87h50l94 -87h-33z" />
    <glyph glyph-name="Aacute" unicode="&#xc1;" horiz-adv-x="376" 
d="M18 0l132 620h76l130 -620h-53l-32 151l11 -10h-191l9 10l-30 -151h-52zM101 176l-5 6h182l-7 -6l-73 379l-2 7h-17l-2 -7zM138 684l94 87h50l-111 -87h-33z" />
    <glyph glyph-name="Acircumflex" unicode="&#xc2;" horiz-adv-x="376" 
d="M18 0l132 620h76l130 -620h-53l-32 151l11 -10h-191l9 10l-30 -151h-52zM101 176l-5 6h182l-7 -6l-73 379l-2 7h-17l-2 -7zM76 684l85 89h50l84 -89h-35l-73 64l-74 -64h-37z" />
    <glyph glyph-name="Atilde" unicode="&#xc3;" horiz-adv-x="376" 
d="M18 0l132 620h76l130 -620h-53l-32 151l11 -10h-191l9 10l-30 -151h-52zM101 176l-5 6h182l-7 -6l-73 379l-2 7h-17l-2 -7zM85 679q0 41 15.5 59.5t38.5 18.5q21 0 35.5 -10.5t27.5 -21.5t28 -11q20 0 26.5 14t6.5 28h26q0 -41 -17 -57.5t-37 -16.5q-21 0 -35.5 11.5
t-26.5 22t-28 10.5t-24.5 -12.5t-8.5 -34.5h-27z" />
    <glyph glyph-name="Adieresis" unicode="&#xc4;" horiz-adv-x="376" 
d="M18 0l132 620h76l130 -620h-53l-32 151l11 -10h-191l9 10l-30 -151h-52zM101 176l-5 6h182l-7 -6l-73 379l-2 7h-17l-2 -7zM235 680q-17 0 -20 6.5t-3 17.5q0 14 3 19.5t20 5.5q18 0 21.5 -5.5t3.5 -19.5q0 -11 -3.5 -17.5t-21.5 -6.5zM136 680q-17 0 -20 6.5t-3 17.5
q0 14 3 19.5t20 5.5q18 0 21 -5.5t3 -19.5q0 -11 -3 -17.5t-21 -6.5z" />
    <glyph glyph-name="Aring" unicode="&#xc5;" horiz-adv-x="376" 
d="M18 0l132 620h76l130 -620h-53l-32 151l11 -10h-191l9 10l-30 -151h-52zM101 176l-5 6h182l-7 -6l-73 379l-2 7h-17l-2 -7zM187 679q-32 0 -53.5 20.5t-21.5 48.5q0 29 21.5 50t53.5 21q31 0 52.5 -21t21.5 -50q0 -28 -21.5 -48.5t-52.5 -20.5zM187 701q20 0 34.5 14
t14.5 32q0 21 -14.5 35.5t-34.5 14.5q-21 0 -35.5 -14.5t-14.5 -35.5q0 -18 14.5 -32t35.5 -14z" />
    <glyph glyph-name="AE" unicode="&#xc6;" horiz-adv-x="586" 
d="M273 620h283v-41h-231v-210h214l-8 -40h-206v-289h231v-40h-283v620zM70 141v41h218v-41h-218zM18 0l147 620h45l-141 -620h-51zM173 579v41h113v-41h-113z" />
    <glyph glyph-name="Ccedilla" unicode="&#xc7;" horiz-adv-x="371" 
d="M188 -6q-69 0 -104 26t-35 78v418q0 56 32 84t104 28q74 0 108.5 -27t34.5 -86v-132l-51 -8v129q0 37 -18 59t-72 22q-51 0 -69 -22.5t-18 -57.5v-397q0 -31 20.5 -51.5t66.5 -20.5q48 0 69 20.5t21 52.5v122l51 8v-141q0 -52 -36.5 -78t-103.5 -26zM193 -176
q-21 0 -37.5 8t-27.5 16l15 21q5 -7 18.5 -14.5t28.5 -7.5q24 0 37.5 16.5t13.5 34.5q0 15 -11 29.5t-35 14.5q-16 0 -29 -6.5t-21 -16.5l-19 16l52 65h24l-42 -52q21 14 44 14q37 0 53.5 -19.5t16.5 -42.5q0 -26 -21 -51t-60 -25z" />
    <glyph glyph-name="Egrave" unicode="&#xc8;" horiz-adv-x="364" 
d="M58 620h276v-41h-225v-210h209l-8 -40h-201v-289h225v-40h-276v620zM183 684l-111 87h50l94 -87h-33z" />
    <glyph glyph-name="Eacute" unicode="&#xc9;" horiz-adv-x="364" 
d="M58 620h276v-41h-225v-210h209l-8 -40h-201v-289h225v-40h-276v620zM135 684l94 87h50l-111 -87h-33z" />
    <glyph glyph-name="Ecircumflex" unicode="&#xca;" horiz-adv-x="364" 
d="M58 620h276v-41h-225v-210h209l-8 -40h-201v-289h225v-40h-276v620zM73 684l85 89h50l84 -89h-35l-73 64l-74 -64h-37z" />
    <glyph glyph-name="Edieresis" unicode="&#xcb;" horiz-adv-x="364" 
d="M58 620h276v-41h-225v-210h209l-8 -40h-201v-289h225v-40h-276v620zM232 680q-17 0 -20 6.5t-3 17.5q0 14 3 19.5t20 5.5q18 0 21.5 -5.5t3.5 -19.5q0 -11 -3.5 -17.5t-21.5 -6.5zM133 680q-17 0 -20 6.5t-3 17.5q0 14 3 19.5t20 5.5q18 0 21 -5.5t3 -19.5
q0 -11 -3 -17.5t-21 -6.5z" />
    <glyph glyph-name="Igrave" unicode="&#xcc;" horiz-adv-x="168" 
d="M58 620h51v-620h-51v620zM83 684l-111 87h50l94 -87h-33z" />
    <glyph glyph-name="Iacute" unicode="&#xcd;" horiz-adv-x="168" 
d="M58 620h51v-620h-51v620zM35 684l94 87h50l-111 -87h-33z" />
    <glyph glyph-name="Icircumflex" unicode="&#xce;" horiz-adv-x="168" 
d="M58 620h51v-620h-51v620zM-27 684l85 89h50l84 -89h-35l-73 64l-74 -64h-37z" />
    <glyph glyph-name="Idieresis" unicode="&#xcf;" horiz-adv-x="168" 
d="M58 620h51v-620h-51v620zM132 680q-17 0 -20 6.5t-3 17.5q0 14 3 19.5t20 5.5q18 0 21.5 -5.5t3.5 -19.5q0 -11 -3.5 -17.5t-21.5 -6.5zM33 680q-17 0 -20 6.5t-3 17.5q0 14 3 19.5t20 5.5q18 0 21 -5.5t3 -19.5q0 -11 -3 -17.5t-21 -6.5z" />
    <glyph glyph-name="Eth" unicode="&#xd0;" horiz-adv-x="389" 
d="M66 620h199q47 0 66.5 -24.5t19.5 -71.5v-427q0 -52 -17 -74.5t-74 -22.5h-194v620zM6 184v30h209v-30h-209zM232 41q40 0 54 14.5t14 55.5v399q0 35 -16 52t-45 17h-121v-538h114z" />
    <glyph glyph-name="Ntilde" unicode="&#xd1;" horiz-adv-x="406" 
d="M58 0v620h52l185 -508l1 -5l1 -1v514h51v-620h-54l-182 488l-3 7v0v-495h-51zM102 679q0 41 15.5 59.5t38.5 18.5q21 0 35.5 -10.5t27.5 -21.5t28 -11q20 0 26.5 14t6.5 28h26q0 -41 -17 -57.5t-37 -16.5q-21 0 -35.5 11.5t-26.5 22t-28 10.5t-24.5 -12.5t-8.5 -34.5h-27
z" />
    <glyph glyph-name="Ograve" unicode="&#xd2;" horiz-adv-x="379" 
d="M189 -3q-69 0 -104.5 25t-35.5 71v441q0 41 32.5 68t107.5 26t108.5 -27t33.5 -68v-439q0 -46 -35.5 -71.5t-106.5 -25.5zM189 39q48 0 70 19t22 48v416q0 25 -19.5 44.5t-74.5 19.5q-50 0 -69 -19t-19 -44v-418q0 -29 21.5 -47.5t68.5 -18.5zM189 684l-111 87h50l94 -87
h-33z" />
    <glyph glyph-name="Oacute" unicode="&#xd3;" horiz-adv-x="379" 
d="M189 -3q-69 0 -104.5 25t-35.5 71v441q0 41 32.5 68t107.5 26t108.5 -27t33.5 -68v-439q0 -46 -35.5 -71.5t-106.5 -25.5zM189 39q48 0 70 19t22 48v416q0 25 -19.5 44.5t-74.5 19.5q-50 0 -69 -19t-19 -44v-418q0 -29 21.5 -47.5t68.5 -18.5zM140 684l94 87h50l-111 -87
h-33z" />
    <glyph glyph-name="Ocircumflex" unicode="&#xd4;" horiz-adv-x="379" 
d="M189 -3q-69 0 -104.5 25t-35.5 71v441q0 41 32.5 68t107.5 26t108.5 -27t33.5 -68v-439q0 -46 -35.5 -71.5t-106.5 -25.5zM189 39q48 0 70 19t22 48v416q0 25 -19.5 44.5t-74.5 19.5q-50 0 -69 -19t-19 -44v-418q0 -29 21.5 -47.5t68.5 -18.5zM79 684l85 89h50l84 -89
h-35l-73 64l-74 -64h-37z" />
    <glyph glyph-name="Otilde" unicode="&#xd5;" horiz-adv-x="379" 
d="M189 -3q-69 0 -104.5 25t-35.5 71v441q0 41 32.5 68t107.5 26t108.5 -27t33.5 -68v-439q0 -46 -35.5 -71.5t-106.5 -25.5zM189 39q48 0 70 19t22 48v416q0 25 -19.5 44.5t-74.5 19.5q-50 0 -69 -19t-19 -44v-418q0 -29 21.5 -47.5t68.5 -18.5zM88 679q0 41 15.5 59.5
t38.5 18.5q21 0 35.5 -10.5t27.5 -21.5t28 -11q20 0 26.5 14t6.5 28h26q0 -41 -17 -57.5t-37 -16.5q-21 0 -35.5 11.5t-26.5 22t-28 10.5t-24.5 -12.5t-8.5 -34.5h-27z" />
    <glyph glyph-name="Odieresis" unicode="&#xd6;" horiz-adv-x="379" 
d="M189 -3q-69 0 -104.5 25t-35.5 71v441q0 41 32.5 68t107.5 26t108.5 -27t33.5 -68v-439q0 -46 -35.5 -71.5t-106.5 -25.5zM189 39q48 0 70 19t22 48v416q0 25 -19.5 44.5t-74.5 19.5q-50 0 -69 -19t-19 -44v-418q0 -29 21.5 -47.5t68.5 -18.5zM238 680q-17 0 -20 6.5
t-3 17.5q0 14 3 19.5t20 5.5q18 0 21.5 -5.5t3.5 -19.5q0 -11 -3.5 -17.5t-21.5 -6.5zM139 680q-17 0 -20 6.5t-3 17.5q0 14 3 19.5t20 5.5q18 0 21 -5.5t3 -19.5q0 -11 -3 -17.5t-21 -6.5z" />
    <glyph glyph-name="multiply" unicode="&#xd7;" horiz-adv-x="358" 
d="M68 401l21 22l209 -210l-22 -20zM82 189l-20 20l208 210l21 -21z" />
    <glyph glyph-name="Oslash" unicode="&#xd8;" horiz-adv-x="379" 
d="M189 -3q-69 0 -105 25t-36 71v437q0 47 33 72.5t106 25.5q75 -1 109 -26.5t34 -72.5v-435q0 -46 -37 -71.5t-104 -25.5zM187 39q50 0 71.5 19t21.5 47v412q0 18 -8 34t-28.5 25t-57.5 9q-52 0 -70 -21t-18 -46v-414q0 -27 21.5 -46t67.5 -19zM61 -44l223 678h25
l-225 -678h-23z" />
    <glyph glyph-name="Ugrave" unicode="&#xd9;" horiz-adv-x="389" 
d="M194 -5q-38 0 -70 9t-51 29.5t-19 55.5v531h51v-514q0 -18 7.5 -34t26.5 -26t55 -10q39 0 58 10t25.5 26t6.5 34v514h51v-531q0 -35 -18 -55.5t-50 -29.5t-73 -9zM194 684l-111 87h50l94 -87h-33z" />
    <glyph glyph-name="Uacute" unicode="&#xda;" horiz-adv-x="389" 
d="M194 -5q-38 0 -70 9t-51 29.5t-19 55.5v531h51v-514q0 -18 7.5 -34t26.5 -26t55 -10q39 0 58 10t25.5 26t6.5 34v514h51v-531q0 -35 -18 -55.5t-50 -29.5t-73 -9zM145 684l94 87h50l-111 -87h-33z" />
    <glyph glyph-name="Ucircumflex" unicode="&#xdb;" horiz-adv-x="389" 
d="M194 -5q-38 0 -70 9t-51 29.5t-19 55.5v531h51v-514q0 -18 7.5 -34t26.5 -26t55 -10q39 0 58 10t25.5 26t6.5 34v514h51v-531q0 -35 -18 -55.5t-50 -29.5t-73 -9zM84 684l85 89h50l84 -89h-35l-73 64l-74 -64h-37z" />
    <glyph glyph-name="Udieresis" unicode="&#xdc;" horiz-adv-x="389" 
d="M194 -5q-38 0 -70 9t-51 29.5t-19 55.5v531h51v-514q0 -18 7.5 -34t26.5 -26t55 -10q39 0 58 10t25.5 26t6.5 34v514h51v-531q0 -35 -18 -55.5t-50 -29.5t-73 -9zM243 680q-17 0 -20 6.5t-3 17.5q0 14 3 19.5t20 5.5q18 0 21.5 -5.5t3.5 -19.5q0 -11 -3.5 -17.5
t-21.5 -6.5zM144 680q-17 0 -20 6.5t-3 17.5q0 14 3 19.5t20 5.5q18 0 21 -5.5t3 -19.5q0 -11 -3 -17.5t-21 -6.5z" />
    <glyph glyph-name="Yacute" unicode="&#xdd;" horiz-adv-x="345" 
d="M147 0v253l-136 367h47l113 -301l2 -14h1l1 14l111 301h48l-137 -367v-253h-50zM123 684l94 87h50l-111 -87h-33z" />
    <glyph glyph-name="Thorn" unicode="&#xde;" horiz-adv-x="383" 
d="M33 679h50v-98h137q43 0 63.5 -10.5t27 -32t6.5 -53.5v-156q0 -36 -6 -67.5t-31 -51t-82 -19.5h-114v-191h-51v679zM186 232q40 0 60 20t20 68v145q0 43 -13.5 59t-54.5 16h-114v-308h102z" />
    <glyph glyph-name="germandbls" unicode="&#xdf;" horiz-adv-x="462" 
d="M-28 -173l-11 40h63q28 0 37 14.5t9 46.5v513h-43v29h43v68q0 48 20 66t81 18h55q37 0 59 -8t31.5 -28t9.5 -58v-50q0 -13 -5.5 -18.5t-18.5 -10.5q-27 -3 -41.5 -16t-19.5 -33t-5 -41q0 -34 7.5 -51t34.5 -31q28 -16 44.5 -25t29.5 -16q30 -16 44.5 -32t19 -36t4.5 -49
v-9q0 -57 -29 -86.5t-109 -29.5q-69 0 -99.5 29.5t-30.5 82.5v68l46 7v-73q0 -20 7 -38.5t25.5 -29.5t53.5 -11q42 0 66.5 15t24.5 64q0 29 -3 46.5t-14 30.5t-36 26q-13 8 -35 19.5t-40 21.5q-22 12 -34.5 25t-17.5 32.5t-5 49.5q0 54 20 83.5t66 33.5l-1 54q0 39 -15.5 51
t-55.5 12h-11q-46 0 -59.5 -12.5t-13.5 -50.5v-614q0 -46 -17 -67.5t-62 -21.5h-69z" />
    <glyph glyph-name="agrave" unicode="&#xe0;" 
d="M128 0q-35 0 -51 10t-19 37.5t-3 79.5v250q0 39 8 59t31 27t68 7h174v-470h-50v429h-127q-28 0 -39.5 -7t-13 -23.5t-1.5 -45.5v-238q0 -31 3 -47t13 -21.5t31 -5.5h103l-7 -41h-120zM200 534l-103 95h50l86 -95h-33z" />
    <glyph glyph-name="aacute" unicode="&#xe1;" 
d="M128 0q-35 0 -51 10t-19 37.5t-3 79.5v250q0 39 8 59t31 27t68 7h174v-470h-50v429h-127q-28 0 -39.5 -7t-13 -23.5t-1.5 -45.5v-238q0 -31 3 -47t13 -21.5t31 -5.5h103l-7 -41h-120zM151 534l87 95h49l-103 -95h-33z" />
    <glyph glyph-name="acircumflex" unicode="&#xe2;" 
d="M128 0q-35 0 -51 10t-19 37.5t-3 79.5v250q0 39 8 59t31 27t68 7h174v-470h-50v429h-127q-28 0 -39.5 -7t-13 -23.5t-1.5 -45.5v-238q0 -31 3 -47t13 -21.5t31 -5.5h103l-7 -41h-120zM90 534l85 89h50l84 -89h-35l-73 64l-74 -64h-37z" />
    <glyph glyph-name="atilde" unicode="&#xe3;" 
d="M128 0q-35 0 -51 10t-19 37.5t-3 79.5v250q0 39 8 59t31 27t68 7h174v-470h-50v429h-127q-28 0 -39.5 -7t-13 -23.5t-1.5 -45.5v-238q0 -31 3 -47t13 -21.5t31 -5.5h103l-7 -41h-120zM99 529q0 41 15.5 59.5t38.5 18.5q21 0 35.5 -10.5t27.5 -21.5t28 -11q20 0 26.5 14
t6.5 28h26q0 -41 -17 -57.5t-37 -16.5q-21 0 -35.5 11.5t-26.5 22t-28 10.5t-24.5 -12.5t-8.5 -34.5h-27z" />
    <glyph glyph-name="adieresis" unicode="&#xe4;" 
d="M128 0q-35 0 -51 10t-19 37.5t-3 79.5v250q0 39 8 59t31 27t68 7h174v-470h-50v429h-127q-28 0 -39.5 -7t-13 -23.5t-1.5 -45.5v-238q0 -31 3 -47t13 -21.5t31 -5.5h103l-7 -41h-120zM249 530q-17 0 -20 6.5t-3 17.5q0 14 3 19.5t20 5.5q18 0 21.5 -5.5t3.5 -19.5
q0 -11 -3.5 -17.5t-21.5 -6.5zM150 530q-17 0 -20 6.5t-3 17.5q0 14 3 19.5t20 5.5q18 0 21 -5.5t3 -19.5q0 -11 -3 -17.5t-21 -6.5z" />
    <glyph glyph-name="aring" unicode="&#xe5;" 
d="M128 0q-35 0 -51 10t-19 37.5t-3 79.5v250q0 39 8 59t31 27t68 7h174v-470h-50v429h-127q-28 0 -39.5 -7t-13 -23.5t-1.5 -45.5v-238q0 -31 3 -47t13 -21.5t31 -5.5h103l-7 -41h-120zM201 529q-32 0 -53.5 20.5t-21.5 48.5q0 29 21.5 50t53.5 21q31 0 52.5 -21t21.5 -50
q0 -28 -21.5 -48.5t-52.5 -20.5zM201 551q20 0 34.5 14t14.5 32q0 21 -14.5 35.5t-34.5 14.5q-21 0 -35.5 -14.5t-14.5 -35.5q0 -18 14.5 -32t35.5 -14z" />
    <glyph glyph-name="ae" unicode="&#xe6;" horiz-adv-x="581" 
d="M128 0q-35 0 -51 10t-19 37.5t-3 79.5v250q0 39 8 59t31 27t68 7h174v-470h-50v429h-127q-28 0 -39.5 -7t-13 -23.5t-1.5 -45.5v-238q0 -31 3 -47t13 -21.5t31 -5.5h103l-7 -41h-120zM419 -1q-56 0 -85 16t-39 41t-10 50v265q0 26 10 50.5t40.5 40.5t90.5 16
q57 0 87 -15.5t41.5 -40t11.5 -51.5v-114l-50 -2v108q0 38 -24.5 57t-66.5 19q-41 0 -65.5 -19t-24.5 -57v-248q0 -38 24 -56.5t60 -18.5q47 0 72 19.5t25 62.5v50l50 5v-59q0 -32 -12 -59t-43.5 -43.5t-91.5 -16.5zM293 233v29h273v-29h-273z" />
    <glyph glyph-name="ccedilla" unicode="&#xe7;" horiz-adv-x="379" 
d="M185 -4q-56 0 -85 16t-39 41t-10 50v265q0 26 10 50.5t40.5 40.5t90.5 16q57 0 87 -15.5t41.5 -40t11.5 -51.5v-68l-50 -7v67q0 38 -24.5 57t-66.5 19q-41 0 -65.5 -19t-24.5 -57v-248q0 -38 24 -56.5t60 -18.5q47 0 72 19.5t25 62.5v59l50 6v-69q0 -32 -12 -59
t-43.5 -43.5t-91.5 -16.5zM196 -176q-21 0 -37.5 8t-27.5 16l15 21q5 -7 18.5 -14.5t28.5 -7.5q24 0 37.5 16.5t13.5 34.5q0 15 -11 29.5t-35 14.5q-16 0 -29 -6.5t-21 -16.5l-19 16l52 65h24l-42 -52q21 14 44 14q37 0 53.5 -19.5t16.5 -42.5q0 -26 -21 -51t-60 -25z" />
    <glyph glyph-name="egrave" unicode="&#xe8;" horiz-adv-x="383" 
d="M185 -4q-56 0 -85 16t-39 41t-10 50v265q0 26 10 50.5t40.5 40.5t90.5 16q57 0 87 -15.5t41.5 -40t11.5 -51.5v-114l-50 -2v108q0 38 -24.5 57t-66.5 19q-41 0 -65.5 -19t-24.5 -57v-248q0 -38 24 -56.5t60 -18.5q47 0 72 19.5t25 62.5v50l50 5v-59q0 -32 -12 -59
t-43.5 -43.5t-91.5 -16.5zM59 230v29h273v-29h-273zM191 534l-103 95h50l86 -95h-33z" />
    <glyph glyph-name="eacute" unicode="&#xe9;" horiz-adv-x="383" 
d="M185 -4q-56 0 -85 16t-39 41t-10 50v265q0 26 10 50.5t40.5 40.5t90.5 16q57 0 87 -15.5t41.5 -40t11.5 -51.5v-114l-50 -2v108q0 38 -24.5 57t-66.5 19q-41 0 -65.5 -19t-24.5 -57v-248q0 -38 24 -56.5t60 -18.5q47 0 72 19.5t25 62.5v50l50 5v-59q0 -32 -12 -59
t-43.5 -43.5t-91.5 -16.5zM59 230v29h273v-29h-273zM142 534l87 95h49l-103 -95h-33z" />
    <glyph glyph-name="ecircumflex" unicode="&#xea;" horiz-adv-x="383" 
d="M185 -4q-56 0 -85 16t-39 41t-10 50v265q0 26 10 50.5t40.5 40.5t90.5 16q57 0 87 -15.5t41.5 -40t11.5 -51.5v-114l-50 -2v108q0 38 -24.5 57t-66.5 19q-41 0 -65.5 -19t-24.5 -57v-248q0 -38 24 -56.5t60 -18.5q47 0 72 19.5t25 62.5v50l50 5v-59q0 -32 -12 -59
t-43.5 -43.5t-91.5 -16.5zM59 230v29h273v-29h-273zM81 534l85 89h50l84 -89h-35l-73 64l-74 -64h-37z" />
    <glyph glyph-name="edieresis" unicode="&#xeb;" horiz-adv-x="383" 
d="M185 -4q-56 0 -85 16t-39 41t-10 50v265q0 26 10 50.5t40.5 40.5t90.5 16q57 0 87 -15.5t41.5 -40t11.5 -51.5v-114l-50 -2v108q0 38 -24.5 57t-66.5 19q-41 0 -65.5 -19t-24.5 -57v-248q0 -38 24 -56.5t60 -18.5q47 0 72 19.5t25 62.5v50l50 5v-59q0 -32 -12 -59
t-43.5 -43.5t-91.5 -16.5zM59 230v29h273v-29h-273zM240 530q-17 0 -20 6.5t-3 17.5q0 14 3 19.5t20 5.5q18 0 21.5 -5.5t3.5 -19.5q0 -11 -3.5 -17.5t-21.5 -6.5zM141 530q-17 0 -20 6.5t-3 17.5q0 14 3 19.5t20 5.5q18 0 21 -5.5t3 -19.5q0 -11 -3 -17.5t-21 -6.5z" />
    <glyph glyph-name="igrave" unicode="&#xec;" horiz-adv-x="169" 
d="M60 470h50v-470h-50v470zM84 534l-103 95h50l86 -95h-33z" />
    <glyph glyph-name="iacute" unicode="&#xed;" horiz-adv-x="169" 
d="M60 470h50v-470h-50v470zM35 534l87 95h49l-103 -95h-33z" />
    <glyph glyph-name="icircumflex" unicode="&#xee;" horiz-adv-x="169" 
d="M60 470h50v-470h-50v470zM-26 534l85 89h50l84 -89h-35l-73 64l-74 -64h-37z" />
    <glyph glyph-name="idieresis" unicode="&#xef;" horiz-adv-x="169" 
d="M60 470h50v-470h-50v470zM133 530q-17 0 -20 6.5t-3 17.5q0 14 3 19.5t20 5.5q18 0 21.5 -5.5t3.5 -19.5q0 -11 -3.5 -17.5t-21.5 -6.5zM34 530q-17 0 -20 6.5t-3 17.5q0 14 3 19.5t20 5.5q18 0 21 -5.5t3 -19.5q0 -11 -3 -17.5t-21 -6.5z" />
    <glyph glyph-name="eth" unicode="&#xf0;" horiz-adv-x="390" 
d="M192 -1q-55 0 -85.5 11.5t-41.5 45.5t-11 99v171q0 77 27 110.5t100 33.5q37 0 60 -9t39 -27l-6 -4q-5 68 -39.5 114t-105.5 46h-63v30h85q51 0 92.5 -26t66.5 -85.5t25 -158.5v-223q0 -38 -6 -63t-21.5 -39t-43.5 -20t-72 -6zM192 42q55 0 74 18.5t19 65.5v235
q0 33 -19 53.5t-71 20.5q-29 0 -49.5 -8t-31 -30.5t-10.5 -66.5v-187q0 -42 9 -64t28.5 -29.5t50.5 -7.5zM108 512l-16 12l103 136l15 -12z" />
    <glyph glyph-name="ntilde" unicode="&#xf1;" horiz-adv-x="395" 
d="M60 472h40l5 -49q16 24 44.5 39t70.5 15q60 0 90.5 -26t30.5 -76v-375h-50v358q0 41 -24.5 59.5t-66.5 18.5q-35 0 -56.5 -14.5t-33.5 -36.5v-385h-50v472zM97 529q0 41 15.5 59.5t38.5 18.5q21 0 35.5 -10.5t27.5 -21.5t28 -11q20 0 26.5 14t6.5 28h26q0 -41 -17 -57.5
t-37 -16.5q-21 0 -35.5 11.5t-26.5 22t-28 10.5t-24.5 -12.5t-8.5 -34.5h-27z" />
    <glyph glyph-name="ograve" unicode="&#xf2;" horiz-adv-x="383" 
d="M185 -4q-56 0 -85 16t-39 41t-10 50v265q0 26 10 50.5t40.5 40.5t90.5 16q57 0 87 -15.5t41.5 -40t11.5 -51.5v-253q0 -32 -12 -59t-43.5 -43.5t-91.5 -16.5zM185 37q47 0 72 19.5t25 62.5v241q0 38 -24.5 57t-66.5 19q-41 0 -65.5 -19t-24.5 -57v-248q0 -38 24 -56.5
t60 -18.5zM191 534l-103 95h50l86 -95h-33z" />
    <glyph glyph-name="oacute" unicode="&#xf3;" horiz-adv-x="383" 
d="M185 -4q-56 0 -85 16t-39 41t-10 50v265q0 26 10 50.5t40.5 40.5t90.5 16q57 0 87 -15.5t41.5 -40t11.5 -51.5v-253q0 -32 -12 -59t-43.5 -43.5t-91.5 -16.5zM185 37q47 0 72 19.5t25 62.5v241q0 38 -24.5 57t-66.5 19q-41 0 -65.5 -19t-24.5 -57v-248q0 -38 24 -56.5
t60 -18.5zM142 534l87 95h49l-103 -95h-33z" />
    <glyph glyph-name="ocircumflex" unicode="&#xf4;" horiz-adv-x="383" 
d="M185 -4q-56 0 -85 16t-39 41t-10 50v265q0 26 10 50.5t40.5 40.5t90.5 16q57 0 87 -15.5t41.5 -40t11.5 -51.5v-253q0 -32 -12 -59t-43.5 -43.5t-91.5 -16.5zM185 37q47 0 72 19.5t25 62.5v241q0 38 -24.5 57t-66.5 19q-41 0 -65.5 -19t-24.5 -57v-248q0 -38 24 -56.5
t60 -18.5zM81 534l85 89h50l84 -89h-35l-73 64l-74 -64h-37z" />
    <glyph glyph-name="otilde" unicode="&#xf5;" horiz-adv-x="383" 
d="M185 -4q-56 0 -85 16t-39 41t-10 50v265q0 26 10 50.5t40.5 40.5t90.5 16q57 0 87 -15.5t41.5 -40t11.5 -51.5v-253q0 -32 -12 -59t-43.5 -43.5t-91.5 -16.5zM185 37q47 0 72 19.5t25 62.5v241q0 38 -24.5 57t-66.5 19q-41 0 -65.5 -19t-24.5 -57v-248q0 -38 24 -56.5
t60 -18.5zM89 529q0 41 15.5 59.5t38.5 18.5q21 0 35.5 -10.5t27.5 -21.5t28 -11q20 0 26.5 14t6.5 28h26q0 -41 -17 -57.5t-37 -16.5q-21 0 -35.5 11.5t-26.5 22t-28 10.5t-24.5 -12.5t-8.5 -34.5h-27z" />
    <glyph glyph-name="odieresis" unicode="&#xf6;" horiz-adv-x="383" 
d="M185 -4q-56 0 -85 16t-39 41t-10 50v265q0 26 10 50.5t40.5 40.5t90.5 16q57 0 87 -15.5t41.5 -40t11.5 -51.5v-253q0 -32 -12 -59t-43.5 -43.5t-91.5 -16.5zM185 37q47 0 72 19.5t25 62.5v241q0 38 -24.5 57t-66.5 19q-41 0 -65.5 -19t-24.5 -57v-248q0 -38 24 -56.5
t60 -18.5zM240 530q-17 0 -20 6.5t-3 17.5q0 14 3 19.5t20 5.5q18 0 21.5 -5.5t3.5 -19.5q0 -11 -3.5 -17.5t-21.5 -6.5zM141 530q-17 0 -20 6.5t-3 17.5q0 14 3 19.5t20 5.5q18 0 21 -5.5t3 -19.5q0 -11 -3 -17.5t-21 -6.5z" />
    <glyph glyph-name="divide" unicode="&#xf7;" horiz-adv-x="403" 
d="M54 193v29h295v-29h-295zM199 354q-18 0 -21 6t-3 18q0 13 3 19.5t21 6.5t21.5 -6.5t3.5 -19.5q0 -12 -4 -18t-21 -6zM199 4q-18 0 -21 6t-3 18q0 13 3 19.5t21 6.5t21.5 -6.5t3.5 -19.5q0 -12 -4 -18t-21 -6z" />
    <glyph glyph-name="oslash" unicode="&#xf8;" horiz-adv-x="355" 
d="M171 -4q-56 0 -84.5 16t-39 41t-10.5 50v263q0 27 10.5 51.5t41 40.5t90.5 16q57 0 87 -16t41.5 -40.5t11.5 -50.5v-252q0 -32 -11.5 -59t-43.5 -43.5t-93 -16.5zM171 37q47 0 72.5 19.5t25.5 62.5v239q0 38 -24.5 57.5t-65.5 19.5t-66.5 -19t-25.5 -58v-246
q0 -38 24.5 -56.5t59.5 -18.5zM28 -96l-17 2l320 666l17 -2z" />
    <glyph glyph-name="ugrave" unicode="&#xf9;" 
d="M175 0q-51 0 -77 15t-34.5 37.5t-8.5 44.5v373h50v-353q0 -41 24.5 -58.5t65.5 -17.5h91v429h50v-470h-161zM197 534l-103 95h50l86 -95h-33z" />
    <glyph glyph-name="uacute" unicode="&#xfa;" 
d="M175 0q-51 0 -77 15t-34.5 37.5t-8.5 44.5v373h50v-353q0 -41 24.5 -58.5t65.5 -17.5h91v429h50v-470h-161zM148 534l87 95h49l-103 -95h-33z" />
    <glyph glyph-name="ucircumflex" unicode="&#xfb;" 
d="M175 0q-51 0 -77 15t-34.5 37.5t-8.5 44.5v373h50v-353q0 -41 24.5 -58.5t65.5 -17.5h91v429h50v-470h-161zM87 534l85 89h50l84 -89h-35l-73 64l-74 -64h-37z" />
    <glyph glyph-name="udieresis" unicode="&#xfc;" 
d="M175 0q-51 0 -77 15t-34.5 37.5t-8.5 44.5v373h50v-353q0 -41 24.5 -58.5t65.5 -17.5h91v429h50v-470h-161zM246 530q-17 0 -20 6.5t-3 17.5q0 14 3 19.5t20 5.5q18 0 21.5 -5.5t3.5 -19.5q0 -11 -3.5 -17.5t-21.5 -6.5zM147 530q-17 0 -20 6.5t-3 17.5q0 14 3 19.5
t20 5.5q18 0 21 -5.5t3 -19.5q0 -11 -3 -17.5t-21 -6.5z" />
    <glyph glyph-name="yacute" unicode="&#xfd;" horiz-adv-x="327" 
d="M-8 -170l5 33h37q36 0 58 16.5t33 65.5l16 61l-129 464h49l102 -385l1 -12h-3l1 12l102 385h50l-148 -537q-16 -56 -41 -79.5t-81 -23.5h-52zM116 534l87 95h49l-103 -95h-33z" />
    <glyph glyph-name="thorn" unicode="&#xfe;" horiz-adv-x="351" 
d="M37 -157v770h48v-143h156q39 0 55 -10t19 -38.5t3 -82.5v-246q0 -39 -8 -59t-31 -27t-68 -7h-124v-157h-50zM87 41h127q28 0 39 7t13 24t2 45v238q0 31 -3 47t-13 21.5t-32 5.5h-133v-388z" />
    <glyph glyph-name="ydieresis" unicode="&#xff;" horiz-adv-x="327" 
d="M-8 -170l5 33h37q36 0 58 16.5t33 65.5l16 61l-129 464h49l102 -385l1 -12h-3l1 12l102 385h50l-148 -537q-16 -56 -41 -79.5t-81 -23.5h-52zM214 530q-17 0 -20 6.5t-3 17.5q0 14 3 19.5t20 5.5q18 0 21.5 -5.5t3.5 -19.5q0 -11 -3.5 -17.5t-21.5 -6.5zM115 530
q-17 0 -20 6.5t-3 17.5q0 14 3 19.5t20 5.5q18 0 21 -5.5t3 -19.5q0 -11 -3 -17.5t-21 -6.5z" />
    <glyph glyph-name="Amacron" unicode="&#x100;" horiz-adv-x="376" 
d="M18 0l132 620h76l130 -620h-53l-32 151l11 -10h-191l9 10l-30 -151h-52zM101 176l-5 6h182l-7 -6l-73 379l-2 7h-17l-2 -7zM80 690v33h214v-33h-214z" />
    <glyph glyph-name="amacron" unicode="&#x101;" 
d="M128 0q-35 0 -51 10t-19 37.5t-3 79.5v250q0 39 8 59t31 27t68 7h174v-470h-50v429h-127q-28 0 -39.5 -7t-13 -23.5t-1.5 -45.5v-238q0 -31 3 -47t13 -21.5t31 -5.5h103l-7 -41h-120zM93 540v33h214v-33h-214z" />
    <glyph glyph-name="Abreve" unicode="&#x102;" horiz-adv-x="376" 
d="M18 0l132 620h76l130 -620h-53l-32 151l11 -10h-191l9 10l-30 -151h-52zM101 176l-5 6h182l-7 -6l-73 379l-2 7h-17l-2 -7zM185 678q-38 0 -59 14t-29 35.5t-8 42.5h33q0 -23 14 -44t49 -21q38 0 52.5 21t15.5 44h32q0 -40 -23 -66t-77 -26z" />
    <glyph glyph-name="abreve" unicode="&#x103;" 
d="M128 0q-35 0 -51 10t-19 37.5t-3 79.5v250q0 39 8 59t31 27t68 7h174v-470h-50v429h-127q-28 0 -39.5 -7t-13 -23.5t-1.5 -45.5v-238q0 -31 3 -47t13 -21.5t31 -5.5h103l-7 -41h-120zM198 528q-38 0 -59 14t-29 35.5t-8 42.5h33q0 -25 14 -44.5t49 -19.5q38 0 53 19
t15 45h32q0 -38 -23 -65t-77 -27z" />
    <glyph glyph-name="Aogonek" unicode="&#x104;" horiz-adv-x="376" 
d="M18 0l132 620h76l130 -620h-53l-32 151l11 -10h-191l9 10l-30 -151h-52zM101 176l-5 6h182l-7 -6l-73 379l-2 7h-17l-2 -7zM304 -169q-32 0 -52 21.5t-20 55.5q0 26 21.5 54.5t69.5 43.5l29 -3q-36 -15 -59 -37t-23 -53q0 -22 14 -37.5t35 -15.5q16 0 28.5 4t25.5 16
l6 -25q-19 -13 -36.5 -18.5t-38.5 -5.5z" />
    <glyph glyph-name="aogonek" unicode="&#x105;" 
d="M128 0q-35 0 -51 10t-19 37.5t-3 79.5v250q0 39 8 59t31 27t68 7h174v-470h-50v429h-127q-28 0 -39.5 -7t-13 -23.5t-1.5 -45.5v-238q0 -31 3 -47t13 -21.5t31 -5.5h103l-7 -41h-120zM285 -165q-32 0 -52 21.5t-20 55.5q0 26 21.5 54.5t69.5 43.5l29 -3q-36 -15 -59 -37
t-23 -53q0 -22 14 -37.5t35 -15.5q16 0 28.5 4t25.5 16l6 -25q-19 -13 -36.5 -18.5t-38.5 -5.5z" />
    <glyph glyph-name="Cacute" unicode="&#x106;" horiz-adv-x="371" 
d="M188 -6q-69 0 -104 26t-35 78v418q0 56 32 84t104 28q74 0 108.5 -27t34.5 -86v-132l-51 -8v129q0 37 -18 59t-72 22q-51 0 -69 -22.5t-18 -57.5v-397q0 -31 20.5 -51.5t66.5 -20.5q48 0 69 20.5t21 52.5v122l51 8v-141q0 -52 -36.5 -78t-103.5 -26zM137 684l94 87h50
l-111 -87h-33z" />
    <glyph glyph-name="cacute" unicode="&#x107;" horiz-adv-x="379" 
d="M185 -4q-56 0 -85 16t-39 41t-10 50v265q0 26 10 50.5t40.5 40.5t90.5 16q57 0 87 -15.5t41.5 -40t11.5 -51.5v-68l-50 -7v67q0 38 -24.5 57t-66.5 19q-41 0 -65.5 -19t-24.5 -57v-248q0 -38 24 -56.5t60 -18.5q47 0 72 19.5t25 62.5v59l50 6v-69q0 -32 -12 -59
t-43.5 -43.5t-91.5 -16.5zM140 534l87 95h49l-103 -95h-33z" />
    <glyph glyph-name="Ccircumflex" unicode="&#x108;" horiz-adv-x="371" 
d="M188 -6q-69 0 -104 26t-35 78v418q0 56 32 84t104 28q74 0 108.5 -27t34.5 -86v-132l-51 -8v129q0 37 -18 59t-72 22q-51 0 -69 -22.5t-18 -57.5v-397q0 -31 20.5 -51.5t66.5 -20.5q48 0 69 20.5t21 52.5v122l51 8v-141q0 -52 -36.5 -78t-103.5 -26zM76 684l85 89h50
l84 -89h-35l-73 64l-74 -64h-37z" />
    <glyph glyph-name="ccircumflex" unicode="&#x109;" horiz-adv-x="379" 
d="M185 -4q-56 0 -85 16t-39 41t-10 50v265q0 26 10 50.5t40.5 40.5t90.5 16q57 0 87 -15.5t41.5 -40t11.5 -51.5v-68l-50 -7v67q0 38 -24.5 57t-66.5 19q-41 0 -65.5 -19t-24.5 -57v-248q0 -38 24 -56.5t60 -18.5q47 0 72 19.5t25 62.5v59l50 6v-69q0 -32 -12 -59
t-43.5 -43.5t-91.5 -16.5zM79 534l85 89h50l84 -89h-35l-73 64l-74 -64h-37z" />
    <glyph glyph-name="Cdotaccent" unicode="&#x10a;" horiz-adv-x="371" 
d="M188 -6q-69 0 -104 26t-35 78v418q0 56 32 84t104 28q74 0 108.5 -27t34.5 -86v-132l-51 -8v129q0 37 -18 59t-72 22q-51 0 -69 -22.5t-18 -57.5v-397q0 -31 20.5 -51.5t66.5 -20.5q48 0 69 20.5t21 52.5v122l51 8v-141q0 -52 -36.5 -78t-103.5 -26zM186 682q-18 0 -21 6
t-3 18q0 13 3 19t20 6q18 0 21 -6t3 -19q0 -12 -3 -18t-20 -6z" />
    <glyph glyph-name="cdotaccent" unicode="&#x10b;" horiz-adv-x="379" 
d="M185 -4q-56 0 -85 16t-39 41t-10 50v265q0 26 10 50.5t40.5 40.5t90.5 16q57 0 87 -15.5t41.5 -40t11.5 -51.5v-68l-50 -7v67q0 38 -24.5 57t-66.5 19q-41 0 -65.5 -19t-24.5 -57v-248q0 -38 24 -56.5t60 -18.5q47 0 72 19.5t25 62.5v59l50 6v-69q0 -32 -12 -59
t-43.5 -43.5t-91.5 -16.5zM189 532q-18 0 -21 6t-3 18q0 13 3 19t20 6q18 0 21 -6t3 -19q0 -12 -3 -18t-20 -6z" />
    <glyph glyph-name="Ccaron" unicode="&#x10c;" horiz-adv-x="371" 
d="M76 773h37l73 -63l73 63h36l-84 -89h-51zM188 -6q-69 0 -104 26t-35 78v418q0 56 32 84t104 28q74 0 108.5 -27t34.5 -86v-132l-51 -8v129q0 37 -18 59t-72 22q-51 0 -69 -22.5t-18 -57.5v-397q0 -31 20.5 -51.5t66.5 -20.5q48 0 69 20.5t21 52.5v122l51 8v-141
q0 -52 -36.5 -78t-103.5 -26z" />
    <glyph glyph-name="ccaron" unicode="&#x10d;" horiz-adv-x="379" 
d="M79 623h37l73 -63l74 63h35l-84 -89h-51zM185 -4q-56 0 -85 16t-39 41t-10 50v265q0 26 10 50.5t40.5 40.5t90.5 16q57 0 87 -15.5t41.5 -40t11.5 -51.5v-68l-50 -7v67q0 38 -24.5 57t-66.5 19q-41 0 -65.5 -19t-24.5 -57v-248q0 -38 24 -56.5t60 -18.5q47 0 72 19.5
t25 62.5v59l50 6v-69q0 -32 -12 -59t-43.5 -43.5t-91.5 -16.5z" />
    <glyph glyph-name="Dcaron" unicode="&#x10e;" horiz-adv-x="388" 
d="M85 773h37l73 -63l74 63h35l-84 -89h-51zM58 620h197q47 0 65.5 -24.5t18.5 -71.5v-427q0 -52 -17 -74.5t-73 -22.5h-191v620zM220 41q40 0 54 14.5t14 55.5v399q0 35 -15.5 52t-44.5 17h-119v-538h111z" />
    <glyph glyph-name="dcaron" unicode="&#x10f;" horiz-adv-x="395" 
d="M131 0q-31 0 -48 6.5t-22.5 29.5t-5.5 70v273q0 37 8 57t29.5 27t63.5 7h130v159h50v-629h-205zM286 41v388h-125q-35 0 -45.5 -10t-10.5 -45v-275q0 -38 10 -48t38 -10h133zM375 506l25 142h34l-35 -142h-24z" />
    <glyph glyph-name="Dcroat" unicode="&#x110;" horiz-adv-x="388" 
d="M-5 191v42h158v-42h-158zM58 620h197q47 0 65.5 -24.5t18.5 -71.5v-427q0 -52 -17 -74.5t-73 -22.5h-191v620zM220 41q40 0 54 14.5t14 55.5v399q0 35 -15.5 52t-44.5 17h-119v-538h111z" />
    <glyph glyph-name="dcroat" unicode="&#x111;" 
d="M131 0q-31 0 -48 6.5t-22.5 29.5t-5.5 70v273q0 37 8 57t29.5 27t63.5 7h130v159h50v-629h-205zM286 41v388h-125q-35 0 -45.5 -10t-10.5 -45v-275q0 -38 10 -48t38 -10h133zM142 527v26h233v-26h-233z" />
    <glyph glyph-name="Emacron" unicode="&#x112;" horiz-adv-x="364" 
d="M58 620h276v-41h-225v-210h209l-8 -40h-201v-289h225v-40h-276v620zM77 690v33h214v-33h-214z" />
    <glyph glyph-name="emacron" unicode="&#x113;" horiz-adv-x="383" 
d="M185 -4q-56 0 -85 16t-39 41t-10 50v265q0 26 10 50.5t40.5 40.5t90.5 16q57 0 87 -15.5t41.5 -40t11.5 -51.5v-114l-50 -2v108q0 38 -24.5 57t-66.5 19q-41 0 -65.5 -19t-24.5 -57v-248q0 -38 24 -56.5t60 -18.5q47 0 72 19.5t25 62.5v50l50 5v-59q0 -32 -12 -59
t-43.5 -43.5t-91.5 -16.5zM59 230v29h273v-29h-273zM84 540v33h214v-33h-214z" />
    <glyph glyph-name="Ebreve" unicode="&#x114;" horiz-adv-x="364" 
d="M58 620h276v-41h-225v-210h209l-8 -40h-201v-289h225v-40h-276v620zM182 678q-38 0 -59 14t-29 35.5t-8 42.5h33q0 -23 14 -44t49 -21q38 0 52.5 21t15.5 44h32q0 -40 -23 -66t-77 -26z" />
    <glyph glyph-name="ebreve" unicode="&#x115;" horiz-adv-x="383" 
d="M185 -4q-56 0 -85 16t-39 41t-10 50v265q0 26 10 50.5t40.5 40.5t90.5 16q57 0 87 -15.5t41.5 -40t11.5 -51.5v-114l-50 -2v108q0 38 -24.5 57t-66.5 19q-41 0 -65.5 -19t-24.5 -57v-248q0 -38 24 -56.5t60 -18.5q47 0 72 19.5t25 62.5v50l50 5v-59q0 -32 -12 -59
t-43.5 -43.5t-91.5 -16.5zM59 230v29h273v-29h-273zM189 528q-38 0 -59 14t-29 35.5t-8 42.5h33q0 -25 14 -44.5t49 -19.5q38 0 53 19t15 45h32q0 -38 -23 -65t-77 -27z" />
    <glyph glyph-name="Edotaccent" unicode="&#x116;" horiz-adv-x="364" 
d="M58 620h276v-41h-225v-210h209l-8 -40h-201v-289h225v-40h-276v620zM183 682q-18 0 -21 6t-3 18q0 13 3 19t20 6q18 0 21 -6t3 -19q0 -12 -3 -18t-20 -6z" />
    <glyph glyph-name="edotaccent" unicode="&#x117;" horiz-adv-x="383" 
d="M185 -4q-56 0 -85 16t-39 41t-10 50v265q0 26 10 50.5t40.5 40.5t90.5 16q57 0 87 -15.5t41.5 -40t11.5 -51.5v-114l-50 -2v108q0 38 -24.5 57t-66.5 19q-41 0 -65.5 -19t-24.5 -57v-248q0 -38 24 -56.5t60 -18.5q47 0 72 19.5t25 62.5v50l50 5v-59q0 -32 -12 -59
t-43.5 -43.5t-91.5 -16.5zM59 230v29h273v-29h-273zM191 532q-18 0 -21 6t-3 18q0 13 3 19t20 6q18 0 21 -6t3 -19q0 -12 -3 -18t-20 -6z" />
    <glyph glyph-name="Eogonek" unicode="&#x118;" horiz-adv-x="364" 
d="M58 620h276v-41h-225v-210h209l-8 -40h-201v-289h225v-40h-276v620zM284 -167q-32 0 -52 21.5t-20 55.5q0 26 21.5 54.5t69.5 43.5l29 -3q-36 -15 -59 -37t-23 -53q0 -22 14 -37.5t35 -15.5q16 0 28.5 4t25.5 16l6 -25q-19 -13 -36.5 -18.5t-38.5 -5.5z" />
    <glyph glyph-name="eogonek" unicode="&#x119;" horiz-adv-x="383" 
d="M185 -4q-56 0 -85 16t-39 41t-10 50v265q0 26 10 50.5t40.5 40.5t90.5 16q57 0 87 -15.5t41.5 -40t11.5 -51.5v-114l-50 -2v108q0 38 -24.5 57t-66.5 19q-41 0 -65.5 -19t-24.5 -57v-248q0 -38 24 -56.5t60 -18.5q47 0 72 19.5t25 62.5v50l50 5v-59q0 -32 -12 -59
t-43.5 -43.5t-91.5 -16.5zM59 230v29h273v-29h-273zM219 -165q-32 0 -52 21.5t-20 55.5q0 26 21.5 54.5t69.5 43.5l29 -3q-36 -15 -59 -37t-23 -53q0 -22 14 -37.5t35 -15.5q16 0 28.5 4t25.5 16l6 -25q-19 -13 -36.5 -18.5t-38.5 -5.5z" />
    <glyph glyph-name="Ecaron" unicode="&#x11a;" horiz-adv-x="364" 
d="M74 773h37l73 -63l73 63h36l-84 -89h-51zM58 620h276v-41h-225v-210h209l-8 -40h-201v-289h225v-40h-276v620z" />
    <glyph glyph-name="ecaron" unicode="&#x11b;" horiz-adv-x="383" 
d="M81 623h37l73 -63l74 63h35l-84 -89h-51zM185 -4q-56 0 -85 16t-39 41t-10 50v265q0 26 10 50.5t40.5 40.5t90.5 16q57 0 87 -15.5t41.5 -40t11.5 -51.5v-114l-50 -2v108q0 38 -24.5 57t-66.5 19q-41 0 -65.5 -19t-24.5 -57v-248q0 -38 24 -56.5t60 -18.5q47 0 72 19.5
t25 62.5v50l50 5v-59q0 -32 -12 -59t-43.5 -43.5t-91.5 -16.5zM59 230v29h273v-29h-273z" />
    <glyph glyph-name="Gcircumflex" unicode="&#x11c;" horiz-adv-x="377" 
d="M193 -3q-46 0 -78.5 7.5t-49 28t-16.5 57.5v441q0 56 37.5 74.5t106.5 18.5q67 0 102.5 -19t35.5 -75v-106l-51 -5v102q0 38 -22.5 50t-64.5 12t-67.5 -11t-25.5 -50v-425q0 -26 11.5 -38.5t33 -16t48.5 -3.5t46.5 3.5t30.5 16t11 38.5v193h-110l6 43h154v-243
q0 -37 -16 -57.5t-47 -28t-75 -7.5zM77 684l85 89h50l84 -89h-35l-73 64l-74 -64h-37z" />
    <glyph glyph-name="gcircumflex" unicode="&#x11d;" 
d="M108 -173l-7 40h139q29 0 37.5 14.5t8.5 46.5v501h-127q-28 0 -39.5 -7t-13 -23.5t-1.5 -45.5v-238q0 -31 3 -47t13 -21.5t31 -5.5h103l-7 -41h-120q-35 0 -51 10t-19 37.5t-3 79.5v250q0 39 8 59t31 27t68 7h174v-554q0 -46 -17 -67.5t-62 -21.5h-149zM87 534l85 89h50
l84 -89h-35l-73 64l-74 -64h-37z" />
    <glyph glyph-name="Gbreve" unicode="&#x11e;" horiz-adv-x="377" 
d="M193 -3q-46 0 -78.5 7.5t-49 28t-16.5 57.5v441q0 56 37.5 74.5t106.5 18.5q67 0 102.5 -19t35.5 -75v-106l-51 -5v102q0 38 -22.5 50t-64.5 12t-67.5 -11t-25.5 -50v-425q0 -26 11.5 -38.5t33 -16t48.5 -3.5t46.5 3.5t30.5 16t11 38.5v193h-110l6 43h154v-243
q0 -37 -16 -57.5t-47 -28t-75 -7.5zM185 678q-38 0 -59 14t-29 35.5t-8 42.5h33q0 -23 14 -44t49 -21q38 0 52.5 21t15.5 44h32q0 -40 -23 -66t-77 -26z" />
    <glyph glyph-name="gbreve" unicode="&#x11f;" 
d="M108 -173l-7 40h139q29 0 37.5 14.5t8.5 46.5v501h-127q-28 0 -39.5 -7t-13 -23.5t-1.5 -45.5v-238q0 -31 3 -47t13 -21.5t31 -5.5h103l-7 -41h-120q-35 0 -51 10t-19 37.5t-3 79.5v250q0 39 8 59t31 27t68 7h174v-554q0 -46 -17 -67.5t-62 -21.5h-149zM196 528
q-38 0 -59 14t-29 35.5t-8 42.5h33q0 -25 14 -44.5t49 -19.5q38 0 53 19t15 45h32q0 -38 -23 -65t-77 -27z" />
    <glyph glyph-name="Gdotaccent" unicode="&#x120;" horiz-adv-x="377" 
d="M193 -3q-46 0 -78.5 7.5t-49 28t-16.5 57.5v441q0 56 37.5 74.5t106.5 18.5q67 0 102.5 -19t35.5 -75v-106l-51 -5v102q0 38 -22.5 50t-64.5 12t-67.5 -11t-25.5 -50v-425q0 -26 11.5 -38.5t33 -16t48.5 -3.5t46.5 3.5t30.5 16t11 38.5v193h-110l6 43h154v-243
q0 -37 -16 -57.5t-47 -28t-75 -7.5zM187 682q-18 0 -21 6t-3 18q0 13 3 19t20 6q18 0 21 -6t3 -19q0 -12 -3 -18t-20 -6z" />
    <glyph glyph-name="gdotaccent" unicode="&#x121;" 
d="M108 -173l-7 40h139q29 0 37.5 14.5t8.5 46.5v501h-127q-28 0 -39.5 -7t-13 -23.5t-1.5 -45.5v-238q0 -31 3 -47t13 -21.5t31 -5.5h103l-7 -41h-120q-35 0 -51 10t-19 37.5t-3 79.5v250q0 39 8 59t31 27t68 7h174v-554q0 -46 -17 -67.5t-62 -21.5h-149zM197 532
q-18 0 -21 6t-3 18q0 13 3 19t20 6q18 0 21 -6t3 -19q0 -12 -3 -18t-20 -6z" />
    <glyph glyph-name="uni0122" unicode="&#x122;" horiz-adv-x="377" 
d="M193 -3q-46 0 -78.5 7.5t-49 28t-16.5 57.5v441q0 56 37.5 74.5t106.5 18.5q67 0 102.5 -19t35.5 -75v-106l-51 -5v102q0 38 -22.5 50t-64.5 12t-67.5 -11t-25.5 -50v-425q0 -26 11.5 -38.5t33 -16t48.5 -3.5t46.5 3.5t30.5 16t11 38.5v193h-110l6 43h154v-243
q0 -37 -16 -57.5t-47 -28t-75 -7.5zM155 -161q14 21 23 41t9 42q-14 0 -17 4t-3 11q0 10 3 14.5t21 4.5q17 0 20 -4.5t3 -14.5q0 -16 -4.5 -35t-12.5 -35.5t-17 -27.5h-25z" />
    <glyph glyph-name="uni0123" unicode="&#x123;" 
d="M108 -173l-7 40h139q29 0 37.5 14.5t8.5 46.5v501h-127q-28 0 -39.5 -7t-13 -23.5t-1.5 -45.5v-238q0 -31 3 -47t13 -21.5t31 -5.5h103l-7 -41h-120q-35 0 -51 10t-19 37.5t-3 79.5v250q0 39 8 59t31 27t68 7h174v-554q0 -46 -17 -67.5t-62 -21.5h-149zM194 534
q-13 0 -17.5 4t-4.5 13q0 15 5 34t14 37t17 28h27q-15 -21 -24 -41t-10 -41q13 0 16 -3t3 -9q0 -11 -4.5 -16.5t-21.5 -5.5z" />
    <glyph glyph-name="Hcircumflex" unicode="&#x124;" horiz-adv-x="397" 
d="M58 620h51v-251h179v251h51v-620h-51v329h-179v-329h-51v620zM88 684l85 89h50l84 -89h-35l-73 64l-74 -64h-37z" />
    <glyph glyph-name="hcircumflex" unicode="&#x125;" horiz-adv-x="395" 
d="M60 629h50v-206q16 25 42 38.5t68 13.5q52 0 77.5 -16t34.5 -39.5t9 -45.5v-374h-50v357q0 42 -24.5 60t-66.5 18q-37 0 -57.5 -14t-32.5 -36v-385h-50v629zM-27 694l85 89h50l84 -89h-35l-73 64l-74 -64h-37z" />
    <glyph glyph-name="Hbar" unicode="&#x126;" horiz-adv-x="379" 
d="M9 514v37h363v-37h-363zM75 620h51v-251h178v251h51v-620h-51v329h-178v-329h-51v620z" />
    <glyph glyph-name="hbar" unicode="&#x127;" horiz-adv-x="395" 
d="M16 530v21h178v-21h-178zM60 629h50v-206q16 25 42 38.5t68 13.5q52 0 77.5 -16t34.5 -39.5t9 -45.5v-374h-50v357q0 42 -24.5 60t-66.5 18q-37 0 -57.5 -14t-32.5 -36v-385h-50v629z" />
    <glyph glyph-name="Itilde" unicode="&#x128;" horiz-adv-x="168" 
d="M58 620h51v-620h-51v620zM-18 679q0 41 15.5 59.5t38.5 18.5q21 0 35.5 -10.5t27.5 -21.5t28 -11q20 0 26.5 14t6.5 28h26q0 -41 -17 -57.5t-37 -16.5q-21 0 -35.5 11.5t-26.5 22t-28 10.5t-24.5 -12.5t-8.5 -34.5h-27z" />
    <glyph glyph-name="itilde" unicode="&#x129;" horiz-adv-x="169" 
d="M60 470h50v-470h-50v470zM-17 529q0 41 15.5 59.5t38.5 18.5q21 0 35.5 -10.5t27.5 -21.5t28 -11q20 0 26.5 14t6.5 28h26q0 -41 -17 -57.5t-37 -16.5q-21 0 -35.5 11.5t-26.5 22t-28 10.5t-24.5 -12.5t-8.5 -34.5h-27z" />
    <glyph glyph-name="Imacron" unicode="&#x12a;" horiz-adv-x="168" 
d="M58 620h51v-620h-51v620zM-24 690v33h214v-33h-214z" />
    <glyph glyph-name="imacron" unicode="&#x12b;" horiz-adv-x="169" 
d="M60 470h50v-470h-50v470zM-23 540v33h214v-33h-214z" />
    <glyph glyph-name="Ibreve" unicode="&#x12c;" horiz-adv-x="168" 
d="M58 620h51v-620h-51v620zM82 678q-38 0 -59 14t-29 35.5t-8 42.5h33q0 -23 14 -44t49 -21q38 0 52.5 21t15.5 44h32q0 -40 -23 -66t-77 -26z" />
    <glyph glyph-name="ibreve" unicode="&#x12d;" horiz-adv-x="169" 
d="M60 470h50v-470h-50v470zM82 528q-38 0 -59 14t-29 35.5t-8 42.5h33q0 -25 14 -44.5t49 -19.5q38 0 53 19t15 45h32q0 -38 -23 -65t-77 -27z" />
    <glyph glyph-name="Iogonek" unicode="&#x12e;" horiz-adv-x="168" 
d="M58 620h51v-620h-51v620zM57 -164q-32 0 -52 21.5t-20 55.5q0 26 21.5 54.5t69.5 43.5l29 -3q-36 -15 -59 -37t-23 -53q0 -22 14 -37.5t35 -15.5q16 0 28.5 4t25.5 16l6 -25q-19 -13 -36.5 -18.5t-38.5 -5.5z" />
    <glyph glyph-name="iogonek" unicode="&#x12f;" horiz-adv-x="169" 
d="M60 470h50v-470h-50v470zM84 532q-18 0 -21 6t-3 18q0 13 3 19t20 6q18 0 21 -6t3 -19q0 -12 -3 -18t-20 -6zM34 -165q-32 0 -52 21.5t-20 55.5q0 26 21.5 54.5t69.5 43.5l29 -3q-36 -15 -59 -37t-23 -53q0 -22 14 -37.5t35 -15.5q16 0 28.5 4t25.5 16l6 -25
q-19 -13 -36.5 -18.5t-38.5 -5.5z" />
    <glyph glyph-name="Idotaccent" unicode="&#x130;" horiz-adv-x="168" 
d="M58 620h51v-620h-51v620zM83 682q-18 0 -21 6t-3 18q0 13 3 19t20 6q18 0 21 -6t3 -19q0 -12 -3 -18t-20 -6z" />
    <glyph glyph-name="dotlessi" unicode="&#x131;" horiz-adv-x="169" 
d="M60 470h50v-470h-50v470z" />
    <glyph glyph-name="Jcircumflex" unicode="&#x134;" horiz-adv-x="194" 
d="M8 0l-8 41h51q19 0 27 5t9.5 20t1.5 46v508h50v-522q0 -41 -3.5 -62.5t-20 -28.5t-54.5 -7h-53zM3 684l85 89h50l84 -89h-35l-73 64l-74 -64h-37z" />
    <glyph glyph-name="jcircumflex" unicode="&#x135;" horiz-adv-x="179" 
d="M-39 -173l-6 40h74q28 0 37 14.5t9 46.5v542h50v-554q0 -46 -17 -67.5t-62 -21.5h-85zM-11 534l85 89h50l84 -89h-35l-73 64l-74 -64h-37z" />
    <glyph glyph-name="uni0136" unicode="&#x136;" horiz-adv-x="362" 
d="M306 -9l-180 343l169 291l39 -24l-155 -264l173 -323zM58 620h52v-620h-52v620zM152 -161q14 21 23 41t9 42q-14 0 -17 4t-3 11q0 10 3 14.5t21 4.5q17 0 20 -4.5t3 -14.5q0 -16 -4.5 -35t-12.5 -35.5t-17 -27.5h-25z" />
    <glyph glyph-name="uni0137" unicode="&#x137;" horiz-adv-x="349" 
d="M60 0v628h50v-628h-50zM295 0l-152 222h-55v38h55l132 222l47 -18l-134 -218l165 -246h-58zM161 -161q14 21 23 41t9 42q-14 0 -17 4t-3 11q0 10 3 14.5t21 4.5q17 0 20 -4.5t3 -14.5q0 -16 -4.5 -35t-12.5 -35.5t-17 -27.5h-25z" />
    <glyph glyph-name="kgreenlandic" unicode="&#x138;" horiz-adv-x="349" 
d="M38 0v548h50v-548h-50zM66 222v38h61v-38h-61zM273 0l-162 242l136 228h56l-138 -224l166 -246h-58z" />
    <glyph glyph-name="Lacute" unicode="&#x139;" horiz-adv-x="324" 
d="M58 620h51v-580h201v-40h-252v620zM56 684l94 87h50l-111 -87h-33z" />
    <glyph glyph-name="lacute" unicode="&#x13a;" horiz-adv-x="169" 
d="M60 628h50v-628h-50v628zM35 694l87 95h49l-103 -95h-33z" />
    <glyph glyph-name="uni013B" unicode="&#x13b;" horiz-adv-x="324" 
d="M58 620h51v-580h201v-40h-252v620zM147 -161q14 21 23 41t9 42q-14 0 -17 4t-3 11q0 10 3 14.5t21 4.5q17 0 20 -4.5t3 -14.5q0 -16 -4.5 -35t-12.5 -35.5t-17 -27.5h-25z" />
    <glyph glyph-name="uni013C" unicode="&#x13c;" horiz-adv-x="169" 
d="M60 628h50v-628h-50v628zM52 -161q14 21 23 41t9 42q-14 0 -17 4t-3 11q0 10 3 14.5t21 4.5q17 0 20 -4.5t3 -14.5q0 -16 -4.5 -35t-12.5 -35.5t-17 -27.5h-25z" />
    <glyph glyph-name="Lcaron" unicode="&#x13d;" horiz-adv-x="324" 
d="M58 620h51v-580h201v-40h-252v620zM195 506l25 142h34l-35 -142h-24z" />
    <glyph glyph-name="lcaron" unicode="&#x13e;" horiz-adv-x="169" 
d="M60 628h50v-628h-50v628zM164 506l25 142h34l-35 -142h-24z" />
    <glyph glyph-name="Ldot" unicode="&#x13f;" horiz-adv-x="307" 
d="M58 620h51v-580h201v-40h-252v620zM262 234q-18 0 -21 6t-3 18q0 13 3 19.5t21 6.5t21.5 -6.5t3.5 -19.5q0 -12 -4 -18t-21 -6z" />
    <glyph glyph-name="ldot" unicode="&#x140;" horiz-adv-x="152" 
d="M60 628h50v-628h-50v628zM164 234q-18 0 -21 6t-3 18q0 13 3 19.5t21 6.5t21.5 -6.5t3.5 -19.5q0 -12 -4 -18t-21 -6z" />
    <glyph glyph-name="Lslash" unicode="&#x141;" horiz-adv-x="342" 
d="M45 620h51v-580h201v-40h-252v620zM-2 207l-11 39l191 51l11 -39z" />
    <glyph glyph-name="lslash" unicode="&#x142;" horiz-adv-x="258" 
d="M91 628h50v-628h-50v628zM39 207l-11 39l191 51l11 -39z" />
    <glyph glyph-name="Nacute" unicode="&#x143;" horiz-adv-x="406" 
d="M58 0v620h52l185 -508l1 -5l1 -1v514h51v-620h-54l-182 488l-3 7v0v-495h-51zM154 684l94 87h50l-111 -87h-33z" />
    <glyph glyph-name="nacute" unicode="&#x144;" horiz-adv-x="395" 
d="M60 472h40l5 -49q16 24 44.5 39t70.5 15q60 0 90.5 -26t30.5 -76v-375h-50v358q0 41 -24.5 59.5t-66.5 18.5q-35 0 -56.5 -14.5t-33.5 -36.5v-385h-50v472zM149 534l87 95h49l-103 -95h-33z" />
    <glyph glyph-name="uni0145" unicode="&#x145;" horiz-adv-x="406" 
d="M58 0v620h52l185 -508l1 -5l1 -1v514h51v-620h-54l-182 488l-3 7v0v-495h-51zM171 -161q14 21 23 41t9 42q-14 0 -17 4t-3 11q0 10 3 14.5t21 4.5q17 0 20 -4.5t3 -14.5q0 -16 -4.5 -35t-12.5 -35.5t-17 -27.5h-25z" />
    <glyph glyph-name="uni0146" unicode="&#x146;" horiz-adv-x="395" 
d="M60 472h40l5 -49q16 24 44.5 39t70.5 15q60 0 90.5 -26t30.5 -76v-375h-50v358q0 41 -24.5 59.5t-66.5 18.5q-35 0 -56.5 -14.5t-33.5 -36.5v-385h-50v472zM165 -161q14 21 23 41t9 42q-14 0 -17 4t-3 11q0 10 3 14.5t21 4.5q17 0 20 -4.5t3 -14.5q0 -16 -4.5 -35
t-12.5 -35.5t-17 -27.5h-25z" />
    <glyph glyph-name="Ncaron" unicode="&#x147;" horiz-adv-x="406" 
d="M93 773h37l74 -63l73 63h35l-84 -89h-50zM58 0v620h52l185 -508l1 -5l1 -1v514h51v-620h-54l-182 488l-3 7v0v-495h-51z" />
    <glyph glyph-name="ncaron" unicode="&#x148;" horiz-adv-x="395" 
d="M88 623h38l73 -63l73 63h36l-85 -89h-50zM60 472h40l5 -49q16 24 44.5 39t70.5 15q60 0 90.5 -26t30.5 -76v-375h-50v358q0 41 -24.5 59.5t-66.5 18.5q-35 0 -56.5 -14.5t-33.5 -36.5v-385h-50v472z" />
    <glyph glyph-name="Eng" unicode="&#x14a;" horiz-adv-x="406" 
d="M196 -179l-7 40h64q27 0 36 14t9 41v71l-186 498l-2 6l-1 1v-492h-51v620h52l185 -511l1 -6l1 -1v518h51v-710q0 -46 -17 -67.5t-62 -21.5h-73z" />
    <glyph glyph-name="eng" unicode="&#x14b;" horiz-adv-x="546" 
d="M38 470h40l5 -49q16 26 44 40.5t71 14.5q52 0 77.5 -16.5t34.5 -40.5t9 -46v-373h-50v356q0 41 -24.5 60t-66.5 19q-37 0 -57.5 -14.5t-32.5 -36.5v-384h-50v470zM155 -182l-7 41h76q27 0 36 14t9 46v329h50v-340q0 -47 -17 -68.5t-62 -21.5h-85z" />
    <glyph glyph-name="Omacron" unicode="&#x14c;" horiz-adv-x="379" 
d="M189 -3q-69 0 -104.5 25t-35.5 71v441q0 41 32.5 68t107.5 26t108.5 -27t33.5 -68v-439q0 -46 -35.5 -71.5t-106.5 -25.5zM189 39q48 0 70 19t22 48v416q0 25 -19.5 44.5t-74.5 19.5q-50 0 -69 -19t-19 -44v-418q0 -29 21.5 -47.5t68.5 -18.5zM82 690v33h214v-33h-214z
" />
    <glyph glyph-name="omacron" unicode="&#x14d;" horiz-adv-x="383" 
d="M185 -4q-56 0 -85 16t-39 41t-10 50v265q0 26 10 50.5t40.5 40.5t90.5 16q57 0 87 -15.5t41.5 -40t11.5 -51.5v-253q0 -32 -12 -59t-43.5 -43.5t-91.5 -16.5zM185 37q47 0 72 19.5t25 62.5v241q0 38 -24.5 57t-66.5 19q-41 0 -65.5 -19t-24.5 -57v-248q0 -38 24 -56.5
t60 -18.5zM84 540v33h214v-33h-214z" />
    <glyph glyph-name="Obreve" unicode="&#x14e;" horiz-adv-x="379" 
d="M189 -3q-69 0 -104.5 25t-35.5 71v441q0 41 32.5 68t107.5 26t108.5 -27t33.5 -68v-439q0 -46 -35.5 -71.5t-106.5 -25.5zM189 39q48 0 70 19t22 48v416q0 25 -19.5 44.5t-74.5 19.5q-50 0 -69 -19t-19 -44v-418q0 -29 21.5 -47.5t68.5 -18.5zM187 678q-38 0 -59 14
t-29 35.5t-8 42.5h33q0 -23 14 -44t49 -21q38 0 52.5 21t15.5 44h32q0 -40 -23 -66t-77 -26z" />
    <glyph glyph-name="obreve" unicode="&#x14f;" horiz-adv-x="383" 
d="M185 -4q-56 0 -85 16t-39 41t-10 50v265q0 26 10 50.5t40.5 40.5t90.5 16q57 0 87 -15.5t41.5 -40t11.5 -51.5v-253q0 -32 -12 -59t-43.5 -43.5t-91.5 -16.5zM185 37q47 0 72 19.5t25 62.5v241q0 38 -24.5 57t-66.5 19q-41 0 -65.5 -19t-24.5 -57v-248q0 -38 24 -56.5
t60 -18.5zM189 528q-38 0 -59 14t-29 35.5t-8 42.5h33q0 -25 14 -44.5t49 -19.5q38 0 53 19t15 45h32q0 -38 -23 -65t-77 -27z" />
    <glyph glyph-name="Ohungarumlaut" unicode="&#x150;" horiz-adv-x="379" 
d="M189 -3q-69 0 -104.5 25t-35.5 71v441q0 41 32.5 68t107.5 26t108.5 -27t33.5 -68v-439q0 -46 -35.5 -71.5t-106.5 -25.5zM189 39q48 0 70 19t22 48v416q0 25 -19.5 44.5t-74.5 19.5q-50 0 -69 -19t-19 -44v-418q0 -29 21.5 -47.5t68.5 -18.5zM133 684l38 95h49l-54 -95
h-33zM214 684l38 95h50l-54 -95h-34z" />
    <glyph glyph-name="ohungarumlaut" unicode="&#x151;" horiz-adv-x="383" 
d="M185 -4q-56 0 -85 16t-39 41t-10 50v265q0 26 10 50.5t40.5 40.5t90.5 16q57 0 87 -15.5t41.5 -40t11.5 -51.5v-253q0 -32 -12 -59t-43.5 -43.5t-91.5 -16.5zM185 37q47 0 72 19.5t25 62.5v241q0 38 -24.5 57t-66.5 19q-41 0 -65.5 -19t-24.5 -57v-248q0 -38 24 -56.5
t60 -18.5zM135 534l38 95h49l-54 -95h-33zM216 534l38 95h50l-54 -95h-34z" />
    <glyph glyph-name="OE" unicode="&#x152;" horiz-adv-x="577" 
d="M190 -3q-69 0 -105 25t-36 71v437q0 47 33.5 72.5t106.5 25.5q70 -1 101.5 -26.5t31.5 -72.5v-435q0 -46 -34.5 -71.5t-97.5 -25.5zM189 39q49 0 70.5 19t21.5 47v412q0 18 -8 34t-28 25t-58 9q-51 0 -69.5 -21t-18.5 -46v-414q0 -27 21 -46t69 -19zM282 0v620h265v-41
h-217v-210h202l-9 -40h-193v-289h217v-40h-265z" />
    <glyph glyph-name="oe" unicode="&#x153;" horiz-adv-x="587" 
d="M185 -4q-56 0 -85 16t-39 41t-10 50v265q0 26 10 50.5t40.5 40.5t90.5 16q57 0 87 -15.5t41.5 -40t11.5 -51.5v-253q0 -32 -12 -59t-43.5 -43.5t-91.5 -16.5zM185 37q47 0 72 19.5t25 62.5v241q0 38 -24.5 57t-66.5 19q-41 0 -65.5 -19t-24.5 -57v-248q0 -38 24 -56.5
t60 -18.5zM424 -7q-56 0 -85 16t-39 41t-10 50v265q0 26 10 50.5t40.5 40.5t90.5 16q57 0 87 -15.5t41.5 -40t11.5 -51.5v-114l-50 -2v108q0 38 -24.5 57t-66.5 19q-41 0 -65.5 -19t-24.5 -57v-248q0 -38 24 -56.5t60 -18.5q47 0 72 19.5t25 62.5v50l50 5v-59q0 -32 -12 -59
t-43.5 -43.5t-91.5 -16.5zM298 227v29h273v-29h-273z" />
    <glyph glyph-name="Racute" unicode="&#x154;" horiz-adv-x="390" 
d="M58 620h188q43 0 63.5 -10.5t27 -32t6.5 -53.5v-112q0 -36 -6 -67.5t-31 -51t-82 -19.5h-115v-274h-51v620zM318 -13l-115 290l36 4l14 -4l3 -7l109 -265zM211 315q40 0 60.5 20t20.5 68v101q0 43 -14.5 59t-53.5 16h-115v-264h102zM136 684l94 87h50l-111 -87h-33z" />
    <glyph glyph-name="racute" unicode="&#x155;" horiz-adv-x="274" 
d="M60 0v470h40l5 -49q16 26 42.5 40.5t55.5 14.5q24 0 37 -3t24 -8l-2 -44q-13 5 -27 8t-35 3q-32 0 -55 -16.5t-35 -44.5v-371h-50zM115 534l87 95h49l-103 -95h-33z" />
    <glyph glyph-name="uni0156" unicode="&#x156;" horiz-adv-x="390" 
d="M58 620h188q43 0 63.5 -10.5t27 -32t6.5 -53.5v-112q0 -36 -6 -67.5t-31 -51t-82 -19.5h-115v-274h-51v620zM318 -13l-115 290l36 4l14 -4l3 -7l109 -265zM211 315q40 0 60.5 20t20.5 68v101q0 43 -14.5 59t-53.5 16h-115v-264h102zM156 -161q14 21 23 41t9 42
q-14 0 -17 4t-3 11q0 10 3 14.5t21 4.5q17 0 20 -4.5t3 -14.5q0 -16 -4.5 -35t-12.5 -35.5t-17 -27.5h-25z" />
    <glyph glyph-name="uni0157" unicode="&#x157;" horiz-adv-x="274" 
d="M60 0v470h40l5 -49q16 26 42.5 40.5t55.5 14.5q24 0 37 -3t24 -8l-2 -44q-13 5 -27 8t-35 3q-32 0 -55 -16.5t-35 -44.5v-371h-50zM51 -161q14 21 23 41t9 42q-14 0 -17 4t-3 11q0 10 3 14.5t21 4.5q17 0 20 -4.5t3 -14.5q0 -16 -4.5 -35t-12.5 -35.5t-17 -27.5h-25z" />
    <glyph glyph-name="Rcaron" unicode="&#x158;" horiz-adv-x="390" 
d="M75 773h37l74 -63l73 63h35l-84 -89h-50zM58 620h188q43 0 63.5 -10.5t27 -32t6.5 -53.5v-112q0 -36 -6 -67.5t-31 -51t-82 -19.5h-115v-274h-51v620zM318 -13l-115 290l36 4l14 -4l3 -7l109 -265zM211 315q40 0 60.5 20t20.5 68v101q0 43 -14.5 59t-53.5 16h-115v-264
h102z" />
    <glyph glyph-name="rcaron" unicode="&#x159;" horiz-adv-x="274" 
d="M54 623h37l74 -63l73 63h35l-84 -89h-50zM60 0v470h40l5 -49q16 26 42.5 40.5t55.5 14.5q24 0 37 -3t24 -8l-2 -44q-13 5 -27 8t-35 3q-32 0 -55 -16.5t-35 -44.5v-371h-50z" />
    <glyph glyph-name="Sacute" unicode="&#x15a;" horiz-adv-x="368" 
d="M190 -4q-43 1 -76 7.5t-52.5 23.5t-19.5 49v129l51 7v-118q0 -27 20.5 -42t73.5 -15q36 0 54.5 7.5t25 24t6.5 42.5v91q0 37 -17.5 58.5t-51.5 31.5l-78 21q-44 14 -64 35t-20 66v110q0 44 19 65t52 27.5t76 6.5t72.5 -7t46 -24t16.5 -49v-129l-51 -9v116q0 34 -17 48.5
t-69 14.5q-53 0 -73.5 -17t-20.5 -60v-84q0 -32 18.5 -50.5t46.5 -26.5l81 -23q46 -13 65.5 -37t19.5 -70v-118q0 -43 -16 -65t-45.5 -29t-72.5 -8zM135 684l94 87h50l-111 -87h-33z" />
    <glyph glyph-name="sacute" unicode="&#x15b;" horiz-adv-x="360" 
d="M176 -6q-71 0 -101 29.5t-30 82.5v68l45 7v-73q0 -19 7 -37t25.5 -29.5t53.5 -11.5q43 0 67.5 15t24.5 63q0 42 -12.5 62.5t-48.5 37.5q-6 3 -20 9t-30 12t-29.5 12t-19.5 9q-24 13 -38 26.5t-19.5 32t-5.5 44.5v12q0 57 32.5 83.5t104.5 26.5q71 0 101.5 -25t30.5 -81
v-70l-46 -6v71q0 44 -22.5 59.5t-65.5 15.5q-41 0 -60 -12.5t-24 -30.5t-5 -34q0 -37 8.5 -52t33.5 -29q13 -7 31.5 -14.5t38 -15.5t34.5 -16q44 -20 60.5 -44.5t16.5 -71.5v-9q0 -57 -29.5 -86.5t-108.5 -29.5zM132 534l87 95h49l-103 -95h-33z" />
    <glyph glyph-name="Scircumflex" unicode="&#x15c;" horiz-adv-x="368" 
d="M190 -4q-43 1 -76 7.5t-52.5 23.5t-19.5 49v129l51 7v-118q0 -27 20.5 -42t73.5 -15q36 0 54.5 7.5t25 24t6.5 42.5v91q0 37 -17.5 58.5t-51.5 31.5l-78 21q-44 14 -64 35t-20 66v110q0 44 19 65t52 27.5t76 6.5t72.5 -7t46 -24t16.5 -49v-129l-51 -9v116q0 34 -17 48.5
t-69 14.5q-53 0 -73.5 -17t-20.5 -60v-84q0 -32 18.5 -50.5t46.5 -26.5l81 -23q46 -13 65.5 -37t19.5 -70v-118q0 -43 -16 -65t-45.5 -29t-72.5 -8zM74 684l85 89h50l84 -89h-35l-73 64l-74 -64h-37z" />
    <glyph glyph-name="scircumflex" unicode="&#x15d;" horiz-adv-x="360" 
d="M176 -6q-71 0 -101 29.5t-30 82.5v68l45 7v-73q0 -19 7 -37t25.5 -29.5t53.5 -11.5q43 0 67.5 15t24.5 63q0 42 -12.5 62.5t-48.5 37.5q-6 3 -20 9t-30 12t-29.5 12t-19.5 9q-24 13 -38 26.5t-19.5 32t-5.5 44.5v12q0 57 32.5 83.5t104.5 26.5q71 0 101.5 -25t30.5 -81
v-70l-46 -6v71q0 44 -22.5 59.5t-65.5 15.5q-41 0 -60 -12.5t-24 -30.5t-5 -34q0 -37 8.5 -52t33.5 -29q13 -7 31.5 -14.5t38 -15.5t34.5 -16q44 -20 60.5 -44.5t16.5 -71.5v-9q0 -57 -29.5 -86.5t-108.5 -29.5zM71 534l85 89h50l84 -89h-35l-73 64l-74 -64h-37z" />
    <glyph glyph-name="Scedilla" unicode="&#x15e;" horiz-adv-x="368" 
d="M190 -4q-43 1 -76 7.5t-52.5 23.5t-19.5 49v129l51 7v-118q0 -27 20.5 -42t73.5 -15q36 0 54.5 7.5t25 24t6.5 42.5v91q0 37 -17.5 58.5t-51.5 31.5l-78 21q-44 14 -64 35t-20 66v110q0 44 19 65t52 27.5t76 6.5t72.5 -7t46 -24t16.5 -49v-129l-51 -9v116q0 34 -17 48.5
t-69 14.5q-53 0 -73.5 -17t-20.5 -60v-84q0 -32 18.5 -50.5t46.5 -26.5l81 -23q46 -13 65.5 -37t19.5 -70v-118q0 -43 -16 -65t-45.5 -29t-72.5 -8zM191 -176q-21 0 -37.5 8t-27.5 16l15 21q5 -7 18.5 -14.5t28.5 -7.5q24 0 37.5 16.5t13.5 34.5q0 15 -11 29.5t-35 14.5
q-16 0 -29 -6.5t-21 -16.5l-19 16l52 65h24l-42 -52q21 14 44 14q37 0 53.5 -19.5t16.5 -42.5q0 -26 -21 -51t-60 -25z" />
    <glyph glyph-name="scedilla" unicode="&#x15f;" horiz-adv-x="360" 
d="M176 -6q-71 0 -101 29.5t-30 82.5v68l45 7v-73q0 -19 7 -37t25.5 -29.5t53.5 -11.5q43 0 67.5 15t24.5 63q0 42 -12.5 62.5t-48.5 37.5q-6 3 -20 9t-30 12t-29.5 12t-19.5 9q-24 13 -38 26.5t-19.5 32t-5.5 44.5v12q0 57 32.5 83.5t104.5 26.5q71 0 101.5 -25t30.5 -81
v-70l-46 -6v71q0 44 -22.5 59.5t-65.5 15.5q-41 0 -60 -12.5t-24 -30.5t-5 -34q0 -37 8.5 -52t33.5 -29q13 -7 31.5 -14.5t38 -15.5t34.5 -16q44 -20 60.5 -44.5t16.5 -71.5v-9q0 -57 -29.5 -86.5t-108.5 -29.5zM186 -176q-21 0 -37.5 8t-27.5 16l15 21q5 -7 18.5 -14.5
t28.5 -7.5q24 0 37.5 16.5t13.5 34.5q0 15 -11 29.5t-35 14.5q-16 0 -29 -6.5t-21 -16.5l-19 16l52 65h24l-42 -52q21 14 44 14q37 0 53.5 -19.5t16.5 -42.5q0 -26 -21 -51t-60 -25z" />
    <glyph glyph-name="Scaron" unicode="&#x160;" horiz-adv-x="368" 
d="M74 773h37l73 -63l73 63h36l-84 -89h-51zM190 -4q-43 1 -76 7.5t-52.5 23.5t-19.5 49v129l51 7v-118q0 -27 20.5 -42t73.5 -15q36 0 54.5 7.5t25 24t6.5 42.5v91q0 37 -17.5 58.5t-51.5 31.5l-78 21q-44 14 -64 35t-20 66v110q0 44 19 65t52 27.5t76 6.5t72.5 -7t46 -24
t16.5 -49v-129l-51 -9v116q0 34 -17 48.5t-69 14.5q-53 0 -73.5 -17t-20.5 -60v-84q0 -32 18.5 -50.5t46.5 -26.5l81 -23q46 -13 65.5 -37t19.5 -70v-118q0 -43 -16 -65t-45.5 -29t-72.5 -8z" />
    <glyph glyph-name="scaron" unicode="&#x161;" horiz-adv-x="360" 
d="M71 623h37l73 -63l74 63h35l-84 -89h-51zM176 -6q-71 0 -101 29.5t-30 82.5v68l45 7v-73q0 -19 7 -37t25.5 -29.5t53.5 -11.5q43 0 67.5 15t24.5 63q0 42 -12.5 62.5t-48.5 37.5q-6 3 -20 9t-30 12t-29.5 12t-19.5 9q-24 13 -38 26.5t-19.5 32t-5.5 44.5v12
q0 57 32.5 83.5t104.5 26.5q71 0 101.5 -25t30.5 -81v-70l-46 -6v71q0 44 -22.5 59.5t-65.5 15.5q-41 0 -60 -12.5t-24 -30.5t-5 -34q0 -37 8.5 -52t33.5 -29q13 -7 31.5 -14.5t38 -15.5t34.5 -16q44 -20 60.5 -44.5t16.5 -71.5v-9q0 -57 -29.5 -86.5t-108.5 -29.5z" />
    <glyph glyph-name="uni0162" unicode="&#x162;" horiz-adv-x="311" 
d="M129 579h-110v41h273v-41h-112v-579h-51v579zM151 -176q-21 0 -37.5 8t-27.5 16l15 21q5 -7 18.5 -14.5t28.5 -7.5q24 0 37.5 16.5t13.5 34.5q0 15 -11 29.5t-35 14.5q-16 0 -29 -6.5t-21 -16.5l-19 16l52 65h24l-42 -52q21 14 44 14q37 0 53.5 -19.5t16.5 -42.5
q0 -26 -21 -51t-60 -25z" />
    <glyph glyph-name="uni0163" unicode="&#x163;" horiz-adv-x="219" 
d="M164 0q-38 0 -61 9.5t-33 32t-10 60.5v330h-33v38h39l8 88h36v-88h85l-11 -38h-74v-319q0 -43 18 -57.5t50 -14.5h29v-41h-43zM159 -175q-21 0 -37.5 8t-27.5 16l15 21q5 -7 18.5 -14.5t28.5 -7.5q24 0 37.5 16.5t13.5 34.5q0 15 -11 29.5t-35 14.5q-16 0 -29 -6.5
t-21 -16.5l-19 16l52 65h24l-42 -52q21 14 44 14q37 0 53.5 -19.5t16.5 -42.5q0 -26 -21 -51t-60 -25z" />
    <glyph glyph-name="Tcaron" unicode="&#x164;" horiz-adv-x="311" 
d="M45 773h37l73 -63l73 63h36l-85 -89h-50zM129 579h-110v41h273v-41h-112v-579h-51v579z" />
    <glyph glyph-name="tcaron" unicode="&#x165;" horiz-adv-x="219" 
d="M164 0q-38 0 -61 9.5t-33 32t-10 60.5v330h-33v38h39l8 88h36v-88h85l-11 -38h-74v-319q0 -43 18 -57.5t50 -14.5h29v-41h-43zM163 513l25 142h34l-35 -142h-24z" />
    <glyph glyph-name="Tbar" unicode="&#x166;" horiz-adv-x="311" 
d="M129 579h-110v41h273v-41h-112v-579h-51v579zM39 410v26h233v-26h-233z" />
    <glyph glyph-name="tbar" unicode="&#x167;" horiz-adv-x="219" 
d="M164 0q-38 0 -61 9.5t-33 32t-10 60.5v330h-33v38h39l8 88h36v-88h85l-11 -38h-74v-319q0 -43 18 -57.5t50 -14.5h29v-41h-43zM-5 313v26h233v-26h-233z" />
    <glyph glyph-name="Utilde" unicode="&#x168;" horiz-adv-x="389" 
d="M194 -5q-38 0 -70 9t-51 29.5t-19 55.5v531h51v-514q0 -18 7.5 -34t26.5 -26t55 -10q39 0 58 10t25.5 26t6.5 34v514h51v-531q0 -35 -18 -55.5t-50 -29.5t-73 -9zM93 679q0 41 15.5 59.5t38.5 18.5q21 0 35.5 -10.5t27.5 -21.5t28 -11q20 0 26.5 14t6.5 28h26
q0 -41 -17 -57.5t-37 -16.5q-21 0 -35.5 11.5t-26.5 22t-28 10.5t-24.5 -12.5t-8.5 -34.5h-27z" />
    <glyph glyph-name="utilde" unicode="&#x169;" 
d="M175 0q-51 0 -77 15t-34.5 37.5t-8.5 44.5v373h50v-353q0 -41 24.5 -58.5t65.5 -17.5h91v429h50v-470h-161zM96 529q0 41 15.5 59.5t38.5 18.5q21 0 35.5 -10.5t27.5 -21.5t28 -11q20 0 26.5 14t6.5 28h26q0 -41 -17 -57.5t-37 -16.5q-21 0 -35.5 11.5t-26.5 22t-28 10.5
t-24.5 -12.5t-8.5 -34.5h-27z" />
    <glyph glyph-name="Umacron" unicode="&#x16a;" horiz-adv-x="389" 
d="M194 -5q-38 0 -70 9t-51 29.5t-19 55.5v531h51v-514q0 -18 7.5 -34t26.5 -26t55 -10q39 0 58 10t25.5 26t6.5 34v514h51v-531q0 -35 -18 -55.5t-50 -29.5t-73 -9zM87 690v33h214v-33h-214z" />
    <glyph glyph-name="umacron" unicode="&#x16b;" 
d="M175 0q-51 0 -77 15t-34.5 37.5t-8.5 44.5v373h50v-353q0 -41 24.5 -58.5t65.5 -17.5h91v429h50v-470h-161zM90 540v33h214v-33h-214z" />
    <glyph glyph-name="Ubreve" unicode="&#x16c;" horiz-adv-x="389" 
d="M194 -5q-38 0 -70 9t-51 29.5t-19 55.5v531h51v-514q0 -18 7.5 -34t26.5 -26t55 -10q39 0 58 10t25.5 26t6.5 34v514h51v-531q0 -35 -18 -55.5t-50 -29.5t-73 -9zM192 678q-38 0 -59 14t-29 35.5t-8 42.5h33q0 -23 14 -44t49 -21q38 0 52.5 21t15.5 44h32q0 -40 -23 -66
t-77 -26z" />
    <glyph glyph-name="ubreve" unicode="&#x16d;" 
d="M175 0q-51 0 -77 15t-34.5 37.5t-8.5 44.5v373h50v-353q0 -41 24.5 -58.5t65.5 -17.5h91v429h50v-470h-161zM195 528q-38 0 -59 14t-29 35.5t-8 42.5h33q0 -25 14 -44.5t49 -19.5q38 0 53 19t15 45h32q0 -38 -23 -65t-77 -27z" />
    <glyph glyph-name="Uring" unicode="&#x16e;" horiz-adv-x="389" 
d="M194 -5q-38 0 -70 9t-51 29.5t-19 55.5v531h51v-514q0 -18 7.5 -34t26.5 -26t55 -10q39 0 58 10t25.5 26t6.5 34v514h51v-531q0 -35 -18 -55.5t-50 -29.5t-73 -9zM195 679q-32 0 -53.5 20.5t-21.5 48.5q0 29 21.5 50t53.5 21q31 0 52.5 -21t21.5 -50q0 -28 -21.5 -48.5
t-52.5 -20.5zM195 701q20 0 34.5 14t14.5 32q0 21 -14.5 35.5t-34.5 14.5q-21 0 -35.5 -14.5t-14.5 -35.5q0 -18 14.5 -32t35.5 -14z" />
    <glyph glyph-name="uring" unicode="&#x16f;" 
d="M175 0q-51 0 -77 15t-34.5 37.5t-8.5 44.5v373h50v-353q0 -41 24.5 -58.5t65.5 -17.5h91v429h50v-470h-161zM197 529q-32 0 -53.5 20.5t-21.5 48.5q0 29 21.5 50t53.5 21q31 0 52.5 -21t21.5 -50q0 -28 -21.5 -48.5t-52.5 -20.5zM197 551q20 0 34.5 14t14.5 32
q0 21 -14.5 35.5t-34.5 14.5q-21 0 -35.5 -14.5t-14.5 -35.5q0 -18 14.5 -32t35.5 -14z" />
    <glyph glyph-name="Uhungarumlaut" unicode="&#x170;" horiz-adv-x="389" 
d="M194 -5q-38 0 -70 9t-51 29.5t-19 55.5v531h51v-514q0 -18 7.5 -34t26.5 -26t55 -10q39 0 58 10t25.5 26t6.5 34v514h51v-531q0 -35 -18 -55.5t-50 -29.5t-73 -9zM138 684l38 95h49l-54 -95h-33zM219 684l38 95h50l-54 -95h-34z" />
    <glyph glyph-name="uhungarumlaut" unicode="&#x171;" 
d="M175 0q-51 0 -77 15t-34.5 37.5t-8.5 44.5v373h50v-353q0 -41 24.5 -58.5t65.5 -17.5h91v429h50v-470h-161zM141 534l38 95h49l-54 -95h-33zM222 534l38 95h50l-54 -95h-34z" />
    <glyph glyph-name="Uogonek" unicode="&#x172;" horiz-adv-x="389" 
d="M194 -5q-38 0 -70 9t-51 29.5t-19 55.5v531h51v-514q0 -18 7.5 -34t26.5 -26t55 -10q39 0 58 10t25.5 26t6.5 34v514h51v-531q0 -35 -18 -55.5t-50 -29.5t-73 -9zM188 -170q-32 0 -52 21.5t-20 55.5q0 26 21.5 54.5t69.5 43.5l29 -3q-36 -15 -59 -37t-23 -53
q0 -22 14 -37.5t35 -15.5q16 0 28.5 4t25.5 16l6 -25q-19 -13 -36.5 -18.5t-38.5 -5.5z" />
    <glyph glyph-name="uogonek" unicode="&#x173;" 
d="M175 0q-51 0 -77 15t-34.5 37.5t-8.5 44.5v373h50v-353q0 -41 24.5 -58.5t65.5 -17.5h91v429h50v-470h-161zM272 -166q-32 0 -52 21.5t-20 55.5q0 26 21.5 54.5t69.5 43.5l29 -3q-36 -15 -59 -37t-23 -53q0 -22 14 -37.5t35 -15.5q16 0 28.5 4t25.5 16l6 -25
q-19 -13 -36.5 -18.5t-38.5 -5.5z" />
    <glyph glyph-name="Wcircumflex" unicode="&#x174;" horiz-adv-x="559" 
d="M140 0l-118 620h51l93 -517l1 -14h1v14l96 485h40l88 -485l1 -14h1l1 14l90 517h52l-116 -620h-52l-83 467v11h-1l-1 -11l-92 -467h-52zM174 684l85 89h50l84 -89h-35l-73 64l-74 -64h-37z" />
    <glyph glyph-name="wcircumflex" unicode="&#x175;" horiz-adv-x="553" 
d="M10 470h50l104 -371l90 371h41l91 -366l104 366h50l-132 -470h-34l-99 390l-99 -390h-34zM167 534l85 89h50l84 -89h-35l-73 64l-74 -64h-37z" />
    <glyph glyph-name="Ycircumflex" unicode="&#x176;" horiz-adv-x="345" 
d="M147 0v253l-136 367h47l113 -301l2 -14h1l1 14l111 301h48l-137 -367v-253h-50zM61 684l85 89h50l84 -89h-35l-73 64l-74 -64h-37z" />
    <glyph glyph-name="ycircumflex" unicode="&#x177;" horiz-adv-x="327" 
d="M-8 -170l5 33h37q36 0 58 16.5t33 65.5l16 61l-129 464h49l102 -385l1 -12h-3l1 12l102 385h50l-148 -537q-16 -56 -41 -79.5t-81 -23.5h-52zM55 534l85 89h50l84 -89h-35l-73 64l-74 -64h-37z" />
    <glyph glyph-name="Ydieresis" unicode="&#x178;" horiz-adv-x="345" 
d="M147 0v253l-136 367h47l113 -301l2 -14h1l1 14l111 301h48l-137 -367v-253h-50zM220 680q-17 0 -20 6.5t-3 17.5q0 14 3 19.5t20 5.5q18 0 21.5 -5.5t3.5 -19.5q0 -11 -3.5 -17.5t-21.5 -6.5zM121 680q-17 0 -20 6.5t-3 17.5q0 14 3 19.5t20 5.5q18 0 21 -5.5t3 -19.5
q0 -11 -3 -17.5t-21 -6.5z" />
    <glyph glyph-name="Zacute" unicode="&#x179;" horiz-adv-x="297" 
d="M11 0l197 579h-181v41h246l-198 -579h203v-41h-267zM99 684l94 87h50l-111 -87h-33z" />
    <glyph glyph-name="zacute" unicode="&#x17a;" horiz-adv-x="293" 
d="M20 9l190 420h-187l10 41h232v-27l-182 -402h191l-17 -41h-237v9zM98 534l87 95h49l-103 -95h-33z" />
    <glyph glyph-name="Zdotaccent" unicode="&#x17b;" horiz-adv-x="297" 
d="M11 0l197 579h-181v41h246l-198 -579h203v-41h-267zM148 682q-18 0 -21 6t-3 18q0 13 3 19t20 6q18 0 21 -6t3 -19q0 -12 -3 -18t-20 -6z" />
    <glyph glyph-name="zdotaccent" unicode="&#x17c;" horiz-adv-x="293" 
d="M20 9l190 420h-187l10 41h232v-27l-182 -402h191l-17 -41h-237v9zM147 532q-18 0 -21 6t-3 18q0 13 3 19t20 6q18 0 21 -6t3 -19q0 -12 -3 -18t-20 -6z" />
    <glyph glyph-name="Zcaron" unicode="&#x17d;" horiz-adv-x="297" 
d="M39 773h37l73 -63l73 63h36l-85 -89h-50zM11 0l197 579h-181v41h246l-198 -579h203v-41h-267z" />
    <glyph glyph-name="zcaron" unicode="&#x17e;" horiz-adv-x="293" 
d="M37 623h37l73 -63l73 63h36l-84 -89h-51zM20 9l190 420h-187l10 41h232v-27l-182 -402h191l-17 -41h-237v9z" />
    <glyph glyph-name="uni018F" unicode="&#x18f;" horiz-adv-x="350" 
d="M176 -4q-57 0 -87.5 21t-42.5 53t-12 67v181h232v164q0 51 -24.5 75.5t-63.5 24.5q-42 0 -68 -26t-26 -83v-76l-50 -6v78q0 43 12 78t43.5 56t88.5 21q58 0 88 -20.5t40 -52.5t10 -65v-349q0 -33 -10.5 -66t-40.5 -54t-89 -21zM176 38q28 0 48 11.5t31 34.5t11 56v143
h-182v-143q0 -33 11 -56t31.5 -34.5t49.5 -11.5z" />
    <glyph glyph-name="florin" unicode="&#x192;" horiz-adv-x="286" 
d="M-74 -173l-7 40h64q27 0 37 14.5t14 46.5l54 513h-43l2 29h43l9 79q3 27 12.5 43t28.5 23t52 7h81l-4 -29h-59q-33 0 -46 -11.5t-16 -40.5l-7 -71h87l-9 -29h-81l-56 -525q-4 -46 -23.5 -67.5t-64.5 -21.5h-68z" />
    <glyph glyph-name="Ohorn" unicode="&#x1a0;" horiz-adv-x="379" 
d="M189 -3q-69 0 -104.5 25t-35.5 71v441q0 41 32.5 68t107.5 26t108.5 -27t33.5 -68v-439q0 -46 -35.5 -71.5t-106.5 -25.5zM189 39q48 0 70 19t22 48v416q0 25 -19.5 44.5t-74.5 19.5q-50 0 -69 -19t-19 -44v-418q0 -29 21.5 -47.5t68.5 -18.5zM257 600l-3 20q33 0 45 12
t11 38h31q0 -37 -19 -53.5t-65 -16.5z" />
    <glyph glyph-name="ohorn" unicode="&#x1a1;" horiz-adv-x="383" 
d="M185 -4q-56 0 -85 16t-39 41t-10 50v265q0 26 10 50.5t40.5 40.5t90.5 16q57 0 87 -15.5t41.5 -40t11.5 -51.5v-253q0 -32 -12 -59t-43.5 -43.5t-91.5 -16.5zM185 37q47 0 72 19.5t25 62.5v241q0 38 -24.5 57t-66.5 19q-41 0 -65.5 -19t-24.5 -57v-248q0 -38 24 -56.5
t60 -18.5zM249 450l-3 20q33 0 45 12t11 38h31q0 -37 -19 -53.5t-65 -16.5z" />
    <glyph glyph-name="Uhorn" unicode="&#x1af;" horiz-adv-x="389" 
d="M194 -5q-38 0 -70 9t-51 29.5t-19 55.5v531h51v-514q0 -18 7.5 -34t26.5 -26t55 -10q39 0 58 10t25.5 26t6.5 34v514h51v-531q0 -35 -18 -55.5t-50 -29.5t-73 -9zM309 600l-3 20q33 0 45 12t11 38h31q0 -37 -19 -53.5t-65 -16.5z" />
    <glyph glyph-name="uhorn" unicode="&#x1b0;" 
d="M175 0q-51 0 -77 15t-34.5 37.5t-8.5 44.5v373h50v-353q0 -41 24.5 -58.5t65.5 -17.5h91v429h50v-470h-161zM310 450l-3 20q33 0 45 12t11 38h31q0 -37 -19 -53.5t-65 -16.5z" />
    <glyph glyph-name="uni01C4" unicode="&#x1c4;" horiz-adv-x="685" 
d="M426 773h37l73 -63l74 63h35l-84 -89h-51zM58 620h197q47 0 65.5 -24.5t18.5 -71.5v-427q0 -52 -17 -74.5t-73 -22.5h-191v620zM220 41q40 0 54 14.5t14 55.5v399q0 35 -15.5 52t-44.5 17h-119v-538h111zM399 0l197 579h-182v41h246l-197 -579h203v-41h-267z" />
    <glyph glyph-name="uni01C5" unicode="&#x1c5;" horiz-adv-x="680" 
d="M424 623h37l74 -63l73 63h35l-84 -89h-50zM58 620h197q47 0 65.5 -24.5t18.5 -71.5v-427q0 -52 -17 -74.5t-73 -22.5h-191v620zM220 41q40 0 54 14.5t14 55.5v399q0 35 -15.5 52t-44.5 17h-119v-538h111zM407 9l191 420h-187l10 41h232v-27l-182 -402h191l-18 -41h-237v9
z" />
    <glyph glyph-name="uni01C6" unicode="&#x1c6;" horiz-adv-x="689" 
d="M433 623h37l73 -63l73 63h36l-84 -89h-51zM131 0q-31 0 -48 6.5t-22.5 29.5t-5.5 70v273q0 37 8 57t29.5 27t63.5 7h130v159h50v-629h-205zM286 41v388h-125q-35 0 -45.5 -10t-10.5 -45v-275q0 -38 10 -48t38 -10h133zM416 9l190 420h-187l10 41h232v-27l-182 -402h191
l-17 -41h-237v9z" />
    <glyph glyph-name="uni01C7" unicode="&#x1c7;" horiz-adv-x="518" 
d="M58 620h51v-580h201v-40h-252v620zM332 0l-8 41h51q19 0 27 5t9.5 20t1.5 46v508h50v-522q0 -41 -3.5 -62.5t-20 -28.5t-54.5 -7h-53z" />
    <glyph glyph-name="uni01C8" unicode="&#x1c8;" horiz-adv-x="509" 
d="M58 620h51v-580h201v-40h-252v620zM286 -173l-7 40h75q28 0 36.5 14.5t8.5 46.5v542h50v-554q0 -46 -16.5 -67.5t-61.5 -21.5h-85zM424 535q-19 0 -24.5 5.5t-5.5 20.5q0 16 5.5 21.5t24.5 5.5q20 0 25 -5.5t5 -21.5q0 -15 -5 -20.5t-25 -5.5z" />
    <glyph glyph-name="uni01C9" unicode="&#x1c9;" horiz-adv-x="354" 
d="M60 628h50v-628h-50v628zM131 -173l-7 40h75q28 0 36.5 14.5t8.5 46.5v542h50v-554q0 -46 -16.5 -67.5t-61.5 -21.5h-85zM269 535q-19 0 -24.5 5.5t-5.5 20.5q0 16 5.5 21.5t24.5 5.5q20 0 25 -5.5t5 -21.5q0 -15 -5 -20.5t-25 -5.5z" />
    <glyph glyph-name="uni01CA" unicode="&#x1ca;" horiz-adv-x="600" 
d="M58 0v620h52l185 -508l1 -5l1 -1v514h51v-620h-54l-182 488l-3 7v0v-495h-51zM414 0l-8 41h51q19 0 27 5t9.5 20t1.5 46v508h50v-522q0 -41 -3.5 -62.5t-20 -28.5t-54.5 -7h-53z" />
    <glyph glyph-name="uni01CB" unicode="&#x1cb;" horiz-adv-x="591" 
d="M58 0v620h52l185 -508l1 -5l1 -1v514h51v-620h-54l-182 488l-3 7v0v-495h-51zM368 -173l-7 40h75q28 0 36.5 14.5t8.5 46.5v542h50v-554q0 -46 -16.5 -67.5t-61.5 -21.5h-85zM506 535q-19 0 -24.5 5.5t-5.5 20.5q0 16 5.5 21.5t24.5 5.5q20 0 25 -5.5t5 -21.5
q0 -15 -5 -20.5t-25 -5.5z" />
    <glyph glyph-name="uni01CC" unicode="&#x1cc;" horiz-adv-x="580" 
d="M60 472h40l5 -49q16 24 44.5 39t70.5 15q60 0 90.5 -26t30.5 -76v-375h-50v358q0 41 -24.5 59.5t-66.5 18.5q-35 0 -56.5 -14.5t-33.5 -36.5v-385h-50v472zM357 -173l-7 40h75q28 0 36.5 14.5t8.5 46.5v542h50v-554q0 -46 -16.5 -67.5t-61.5 -21.5h-85zM495 535
q-19 0 -24.5 5.5t-5.5 20.5q0 16 5.5 21.5t24.5 5.5q20 0 25 -5.5t5 -21.5q0 -15 -5 -20.5t-25 -5.5z" />
    <glyph glyph-name="uni01CD" unicode="&#x1cd;" horiz-adv-x="376" 
d="M77 773h37l73 -63l73 63h36l-84 -89h-51zM18 0l132 620h76l130 -620h-53l-32 151l11 -10h-191l9 10l-30 -151h-52zM101 176l-5 6h182l-7 -6l-73 379l-2 7h-17l-2 -7z" />
    <glyph glyph-name="uni01CE" unicode="&#x1ce;" 
d="M90 623h37l74 -63l73 63h35l-84 -89h-50zM128 0q-35 0 -51 10t-19 37.5t-3 79.5v250q0 39 8 59t31 27t68 7h174v-470h-50v429h-127q-28 0 -39.5 -7t-13 -23.5t-1.5 -45.5v-238q0 -31 3 -47t13 -21.5t31 -5.5h103l-7 -41h-120z" />
    <glyph glyph-name="uni01CF" unicode="&#x1cf;" horiz-adv-x="168" 
d="M-26 773h37l73 -63l73 63h36l-85 -89h-50zM58 620h51v-620h-51v620z" />
    <glyph glyph-name="uni01D0" unicode="&#x1d0;" horiz-adv-x="169" 
d="M-26 623h37l74 -63l73 63h35l-84 -89h-50zM60 470h50v-470h-50v470z" />
    <glyph glyph-name="uni01D1" unicode="&#x1d1;" horiz-adv-x="379" 
d="M79 773h37l74 -63l73 63h35l-84 -89h-50zM189 -3q-69 0 -104.5 25t-35.5 71v441q0 41 32.5 68t107.5 26t108.5 -27t33.5 -68v-439q0 -46 -35.5 -71.5t-106.5 -25.5zM189 39q48 0 70 19t22 48v416q0 25 -19.5 44.5t-74.5 19.5q-50 0 -69 -19t-19 -44v-418
q0 -29 21.5 -47.5t68.5 -18.5z" />
    <glyph glyph-name="uni01D2" unicode="&#x1d2;" horiz-adv-x="383" 
d="M81 623h37l73 -63l74 63h35l-84 -89h-51zM185 -4q-56 0 -85 16t-39 41t-10 50v265q0 26 10 50.5t40.5 40.5t90.5 16q57 0 87 -15.5t41.5 -40t11.5 -51.5v-253q0 -32 -12 -59t-43.5 -43.5t-91.5 -16.5zM185 37q47 0 72 19.5t25 62.5v241q0 38 -24.5 57t-66.5 19
q-41 0 -65.5 -19t-24.5 -57v-248q0 -38 24 -56.5t60 -18.5z" />
    <glyph glyph-name="uni01D3" unicode="&#x1d3;" horiz-adv-x="389" 
d="M84 773h37l74 -63l73 63h35l-84 -89h-50zM194 -5q-38 0 -70 9t-51 29.5t-19 55.5v531h51v-514q0 -18 7.5 -34t26.5 -26t55 -10q39 0 58 10t25.5 26t6.5 34v514h51v-531q0 -35 -18 -55.5t-50 -29.5t-73 -9z" />
    <glyph glyph-name="uni01D4" unicode="&#x1d4;" 
d="M87 623h37l74 -63l73 63h35l-84 -89h-51zM175 0q-51 0 -77 15t-34.5 37.5t-8.5 44.5v373h50v-353q0 -41 24.5 -58.5t65.5 -17.5h91v429h50v-470h-161z" />
    <glyph glyph-name="uni01D5" unicode="&#x1d5;" horiz-adv-x="389" 
d="M194 -5q-38 0 -70 9t-51 29.5t-19 55.5v531h51v-514q0 -18 7.5 -34t26.5 -26t55 -10q39 0 58 10t25.5 26t6.5 34v514h51v-531q0 -35 -18 -55.5t-50 -29.5t-73 -9zM243 680q-17 0 -20 6.5t-3 17.5q0 14 3 19.5t20 5.5q18 0 21.5 -5.5t3.5 -19.5q0 -11 -3.5 -17.5
t-21.5 -6.5zM144 680q-17 0 -20 6.5t-3 17.5q0 14 3 19.5t20 5.5q18 0 21 -5.5t3 -19.5q0 -11 -3 -17.5t-21 -6.5zM87 755v33h214v-33h-214z" />
    <glyph glyph-name="uni01D6" unicode="&#x1d6;" 
d="M175 0q-51 0 -77 15t-34.5 37.5t-8.5 44.5v373h50v-353q0 -41 24.5 -58.5t65.5 -17.5h91v429h50v-470h-161zM246 530q-17 0 -20 6.5t-3 17.5q0 14 3 19.5t20 5.5q18 0 21.5 -5.5t3.5 -19.5q0 -11 -3.5 -17.5t-21.5 -6.5zM147 530q-17 0 -20 6.5t-3 17.5q0 14 3 19.5
t20 5.5q18 0 21 -5.5t3 -19.5q0 -11 -3 -17.5t-21 -6.5zM90 605v33h214v-33h-214z" />
    <glyph glyph-name="uni01D7" unicode="&#x1d7;" horiz-adv-x="389" 
d="M194 -5q-38 0 -70 9t-51 29.5t-19 55.5v531h51v-514q0 -18 7.5 -34t26.5 -26t55 -10q39 0 58 10t25.5 26t6.5 34v514h51v-531q0 -35 -18 -55.5t-50 -29.5t-73 -9zM243 680q-17 0 -20 6.5t-3 17.5q0 14 3 19.5t20 5.5q18 0 21.5 -5.5t3.5 -19.5q0 -11 -3.5 -17.5
t-21.5 -6.5zM144 680q-17 0 -20 6.5t-3 17.5q0 14 3 19.5t20 5.5q18 0 21 -5.5t3 -19.5q0 -11 -3 -17.5t-21 -6.5zM145 749l94 87h50l-111 -87h-33z" />
    <glyph glyph-name="uni01D8" unicode="&#x1d8;" 
d="M175 0q-51 0 -77 15t-34.5 37.5t-8.5 44.5v373h50v-353q0 -41 24.5 -58.5t65.5 -17.5h91v429h50v-470h-161zM246 530q-17 0 -20 6.5t-3 17.5q0 14 3 19.5t20 5.5q18 0 21.5 -5.5t3.5 -19.5q0 -11 -3.5 -17.5t-21.5 -6.5zM147 530q-17 0 -20 6.5t-3 17.5q0 14 3 19.5
t20 5.5q18 0 21 -5.5t3 -19.5q0 -11 -3 -17.5t-21 -6.5zM148 599l87 95h49l-103 -95h-33z" />
    <glyph glyph-name="uni01D9" unicode="&#x1d9;" horiz-adv-x="389" 
d="M84 838h37l74 -64l73 64h35l-84 -90h-50zM194 -5q-38 0 -70 9t-51 29.5t-19 55.5v531h51v-514q0 -18 7.5 -34t26.5 -26t55 -10q39 0 58 10t25.5 26t6.5 34v514h51v-531q0 -35 -18 -55.5t-50 -29.5t-73 -9zM243 680q-17 0 -20 6.5t-3 17.5q0 14 3 19.5t20 5.5
q18 0 21 -5.5t3 -19.5q0 -11 -3 -17.5t-21 -6.5zM144 680q-17 0 -20 6.5t-3 17.5q0 14 3 19.5t20 5.5q18 0 21 -5.5t3 -19.5q0 -11 -3 -17.5t-21 -6.5z" />
    <glyph glyph-name="uni01DA" unicode="&#x1da;" 
d="M87 688h37l74 -64l73 64h35l-84 -90h-51zM175 0q-51 0 -77 15t-34.5 37.5t-8.5 44.5v373h50v-353q0 -41 24.5 -58.5t65.5 -17.5h91v429h50v-470h-161zM245 530q-16 0 -19 6.5t-3 17.5q0 14 3 19.5t19 5.5q19 0 22 -5.5t3 -19.5q0 -11 -3 -17.5t-22 -6.5zM147 530
q-17 0 -20 6.5t-3 17.5q0 14 3 19.5t20 5.5q18 0 21 -5.5t3 -19.5q0 -11 -3 -17.5t-21 -6.5z" />
    <glyph glyph-name="uni01DB" unicode="&#x1db;" horiz-adv-x="389" 
d="M194 -5q-38 0 -70 9t-51 29.5t-19 55.5v531h51v-514q0 -18 7.5 -34t26.5 -26t55 -10q39 0 58 10t25.5 26t6.5 34v514h51v-531q0 -35 -18 -55.5t-50 -29.5t-73 -9zM243 680q-17 0 -20 6.5t-3 17.5q0 14 3 19.5t20 5.5q18 0 21.5 -5.5t3.5 -19.5q0 -11 -3.5 -17.5
t-21.5 -6.5zM144 680q-17 0 -20 6.5t-3 17.5q0 14 3 19.5t20 5.5q18 0 21 -5.5t3 -19.5q0 -11 -3 -17.5t-21 -6.5zM194 749l-111 87h50l94 -87h-33z" />
    <glyph glyph-name="uni01DC" unicode="&#x1dc;" 
d="M175 0q-51 0 -77 15t-34.5 37.5t-8.5 44.5v373h50v-353q0 -41 24.5 -58.5t65.5 -17.5h91v429h50v-470h-161zM246 530q-17 0 -20 6.5t-3 17.5q0 14 3 19.5t20 5.5q18 0 21.5 -5.5t3.5 -19.5q0 -11 -3.5 -17.5t-21.5 -6.5zM147 530q-17 0 -20 6.5t-3 17.5q0 14 3 19.5
t20 5.5q18 0 21 -5.5t3 -19.5q0 -11 -3 -17.5t-21 -6.5zM197 599l-103 95h50l86 -95h-33z" />
    <glyph glyph-name="Gcaron" unicode="&#x1e6;" horiz-adv-x="377" 
d="M77 773h37l74 -63l73 63h35l-84 -89h-50zM193 -3q-46 0 -78.5 7.5t-49 28t-16.5 57.5v441q0 56 37.5 74.5t106.5 18.5q67 0 102.5 -19t35.5 -75v-106l-51 -5v102q0 38 -22.5 50t-64.5 12t-67.5 -11t-25.5 -50v-425q0 -26 11.5 -38.5t33 -16t48.5 -3.5t46.5 3.5t30.5 16
t11 38.5v193h-110l6 43h154v-243q0 -37 -16 -57.5t-47 -28t-75 -7.5z" />
    <glyph glyph-name="gcaron" unicode="&#x1e7;" 
d="M88 623h37l73 -63l73 63h36l-84 -89h-51zM108 -173l-7 40h139q29 0 37.5 14.5t8.5 46.5v501h-127q-28 0 -39.5 -7t-13 -23.5t-1.5 -45.5v-238q0 -31 3 -47t13 -21.5t31 -5.5h103l-7 -41h-120q-35 0 -51 10t-19 37.5t-3 79.5v250q0 39 8 59t31 27t68 7h174v-554
q0 -46 -17 -67.5t-62 -21.5h-149z" />
    <glyph glyph-name="uni01EA" unicode="&#x1ea;" horiz-adv-x="379" 
d="M189 -3q-69 0 -104.5 25t-35.5 71v441q0 41 32.5 68t107.5 26t108.5 -27t33.5 -68v-439q0 -46 -35.5 -71.5t-106.5 -25.5zM189 39q48 0 70 19t22 48v416q0 25 -19.5 44.5t-74.5 19.5q-50 0 -69 -19t-19 -44v-418q0 -29 21.5 -47.5t68.5 -18.5zM203 -165q-32 0 -52 21.5
t-20 55.5q0 26 21.5 54.5t69.5 43.5l29 -3q-36 -15 -59 -37t-23 -53q0 -22 14 -37.5t35 -15.5q16 0 28.5 4t25.5 16l6 -25q-19 -13 -36.5 -18.5t-38.5 -5.5z" />
    <glyph glyph-name="uni01EB" unicode="&#x1eb;" horiz-adv-x="383" 
d="M185 -4q-56 0 -85 16t-39 41t-10 50v265q0 26 10 50.5t40.5 40.5t90.5 16q57 0 87 -15.5t41.5 -40t11.5 -51.5v-253q0 -32 -12 -59t-43.5 -43.5t-91.5 -16.5zM185 37q47 0 72 19.5t25 62.5v241q0 38 -24.5 57t-66.5 19q-41 0 -65.5 -19t-24.5 -57v-248q0 -38 24 -56.5
t60 -18.5zM226 -165q-32 0 -52 21.5t-20 55.5q0 26 21.5 54.5t69.5 43.5l29 -3q-36 -15 -59 -37t-23 -53q0 -22 14 -37.5t35 -15.5q16 0 28.5 4t25.5 16l6 -25q-19 -13 -36.5 -18.5t-38.5 -5.5z" />
    <glyph glyph-name="Aringacute" unicode="&#x1fa;" horiz-adv-x="376" 
d="M18 0l132 620h76l130 -620h-53l-32 151l11 -10h-191l9 10l-30 -151h-52zM101 176l-5 6h182l-7 -6l-73 379l-2 7h-17l-2 -7zM187 679q-32 0 -53.5 20.5t-21.5 48.5q0 29 21.5 50t53.5 21q31 0 52.5 -21t21.5 -50q0 -28 -21.5 -48.5t-52.5 -20.5zM187 701q20 0 34.5 14
t14.5 32q0 21 -14.5 35.5t-34.5 14.5q-21 0 -35.5 -14.5t-14.5 -35.5q0 -18 14.5 -32t35.5 -14zM138 843l94 87h50l-111 -87h-33z" />
    <glyph glyph-name="aringacute" unicode="&#x1fb;" 
d="M128 0q-35 0 -51 10t-19 37.5t-3 79.5v250q0 39 8 59t31 27t68 7h174v-470h-50v429h-127q-28 0 -39.5 -7t-13 -23.5t-1.5 -45.5v-238q0 -31 3 -47t13 -21.5t31 -5.5h103l-7 -41h-120zM201 529q-32 0 -53.5 20.5t-21.5 48.5q0 29 21.5 50t53.5 21q31 0 52.5 -21t21.5 -50
q0 -28 -21.5 -48.5t-52.5 -20.5zM201 551q20 0 34.5 14t14.5 32q0 21 -14.5 35.5t-34.5 14.5q-21 0 -35.5 -14.5t-14.5 -35.5q0 -18 14.5 -32t35.5 -14zM151 693l87 95h49l-103 -95h-33z" />
    <glyph glyph-name="AEacute" unicode="&#x1fc;" horiz-adv-x="586" 
d="M273 620h283v-41h-231v-210h214l-8 -40h-206v-289h231v-40h-283v620zM70 141v41h218v-41h-218zM18 0l147 620h45l-141 -620h-51zM173 579v41h113v-41h-113zM244 684l87 95h49l-103 -95h-33z" />
    <glyph glyph-name="aeacute" unicode="&#x1fd;" horiz-adv-x="581" 
d="M128 0q-35 0 -51 10t-19 37.5t-3 79.5v250q0 39 8 59t31 27t68 7h174v-470h-50v429h-127q-28 0 -39.5 -7t-13 -23.5t-1.5 -45.5v-238q0 -31 3 -47t13 -21.5t31 -5.5h103l-7 -41h-120zM419 -1q-56 0 -85 16t-39 41t-10 50v265q0 26 10 50.5t40.5 40.5t90.5 16
q57 0 87 -15.5t41.5 -40t11.5 -51.5v-114l-50 -2v108q0 38 -24.5 57t-66.5 19q-41 0 -65.5 -19t-24.5 -57v-248q0 -38 24 -56.5t60 -18.5q47 0 72 19.5t25 62.5v50l50 5v-59q0 -32 -12 -59t-43.5 -43.5t-91.5 -16.5zM293 233v29h273v-29h-273zM241 534l87 95h49l-103 -95
h-33z" />
    <glyph glyph-name="Oslashacute" unicode="&#x1fe;" horiz-adv-x="379" 
d="M189 -3q-69 0 -105 25t-36 71v437q0 47 33 72.5t106 25.5q75 -1 109 -26.5t34 -72.5v-435q0 -46 -37 -71.5t-104 -25.5zM187 39q50 0 71.5 19t21.5 47v412q0 18 -8 34t-28.5 25t-57.5 9q-52 0 -70 -21t-18 -46v-414q0 -27 21.5 -46t67.5 -19zM61 -44l223 678h25
l-225 -678h-23zM140 684l94 87h50l-111 -87h-33z" />
    <glyph glyph-name="oslashacute" unicode="&#x1ff;" horiz-adv-x="355" 
d="M171 -4q-56 0 -84.5 16t-39 41t-10.5 50v263q0 27 10.5 51.5t41 40.5t90.5 16q57 0 87 -16t41.5 -40.5t11.5 -50.5v-252q0 -32 -11.5 -59t-43.5 -43.5t-93 -16.5zM171 37q47 0 72.5 19.5t25.5 62.5v239q0 38 -24.5 57.5t-65.5 19.5t-66.5 -19t-25.5 -58v-246
q0 -38 24.5 -56.5t59.5 -18.5zM28 -96l-17 2l320 666l17 -2zM130 534l87 95h49l-103 -95h-33z" />
    <glyph glyph-name="uni0200" unicode="&#x200;" horiz-adv-x="376" 
d="M18 0l132 620h76l130 -620h-53l-32 151l11 -10h-191l9 10l-30 -151h-52zM101 176l-5 6h182l-7 -6l-73 379l-2 7h-17l-2 -7zM130 684l-103 95h50l86 -95h-33zM209 684l-103 95h50l86 -95h-33z" />
    <glyph glyph-name="uni0201" unicode="&#x201;" 
d="M128 0q-35 0 -51 10t-19 37.5t-3 79.5v250q0 39 8 59t31 27t68 7h174v-470h-50v429h-127q-28 0 -39.5 -7t-13 -23.5t-1.5 -45.5v-238q0 -31 3 -47t13 -21.5t31 -5.5h103l-7 -41h-120zM143 534l-103 95h50l86 -95h-33zM223 534l-103 95h50l86 -95h-33z" />
    <glyph glyph-name="uni0202" unicode="&#x202;" horiz-adv-x="376" 
d="M185 772q54 0 77 -27t23 -65h-32q0 27 -15 45.5t-53 18.5q-35 0 -49.5 -19.5t-14.5 -44.5h-32q0 21 8 42t29 35.5t59 14.5zM18 0l132 620h76l130 -620h-53l-32 151l11 -10h-191l9 10l-30 -151h-52zM101 176l-5 6h182l-7 -6l-73 379l-2 7h-17l-2 -7z" />
    <glyph glyph-name="uni0203" unicode="&#x203;" 
d="M198 622q55 0 78 -27t23 -65h-32q-1 27 -16 45.5t-52 18.5q-35 0 -49.5 -19.5t-14.5 -44.5h-32q0 21 8 42t28.5 35.5t58.5 14.5zM128 0q-35 0 -51 10t-19 37.5t-3 79.5v250q0 39 8 59t31 27t68 7h174v-470h-50v429h-127q-28 0 -39.5 -7t-13 -23.5t-1.5 -45.5v-238
q0 -31 3 -47t13 -21.5t31 -5.5h103l-7 -41h-120z" />
    <glyph glyph-name="uni0204" unicode="&#x204;" horiz-adv-x="364" 
d="M58 620h276v-41h-225v-210h209l-8 -40h-201v-289h225v-40h-276v620zM127 684l-103 95h50l86 -95h-33zM206 684l-103 95h50l86 -95h-33z" />
    <glyph glyph-name="uni0205" unicode="&#x205;" horiz-adv-x="383" 
d="M185 -4q-56 0 -85 16t-39 41t-10 50v265q0 26 10 50.5t40.5 40.5t90.5 16q57 0 87 -15.5t41.5 -40t11.5 -51.5v-114l-50 -2v108q0 38 -24.5 57t-66.5 19q-41 0 -65.5 -19t-24.5 -57v-248q0 -38 24 -56.5t60 -18.5q47 0 72 19.5t25 62.5v50l50 5v-59q0 -32 -12 -59
t-43.5 -43.5t-91.5 -16.5zM59 230v29h273v-29h-273zM134 534l-103 95h50l86 -95h-33zM213 534l-103 95h50l86 -95h-33z" />
    <glyph glyph-name="uni0206" unicode="&#x206;" horiz-adv-x="364" 
d="M182 772q54 0 77 -27t23 -65h-32q0 27 -15 45.5t-53 18.5q-35 0 -49.5 -19.5t-14.5 -44.5h-32q0 21 8 42t29 35.5t59 14.5zM58 620h276v-41h-225v-210h209l-8 -40h-201v-289h225v-40h-276v620z" />
    <glyph glyph-name="uni0207" unicode="&#x207;" horiz-adv-x="383" 
d="M189 622q54 0 77.5 -27t23.5 -65h-33q0 27 -15 45.5t-53 18.5q-35 0 -49 -19.5t-14 -44.5h-33q0 21 8 42t29 35.5t59 14.5zM185 -4q-56 0 -85 16t-39 41t-10 50v265q0 26 10 50.5t40.5 40.5t90.5 16q57 0 87 -15.5t41.5 -40t11.5 -51.5v-114l-50 -2v108q0 38 -24.5 57
t-66.5 19q-41 0 -65.5 -19t-24.5 -57v-248q0 -38 24 -56.5t60 -18.5q47 0 72 19.5t25 62.5v50l50 5v-59q0 -32 -12 -59t-43.5 -43.5t-91.5 -16.5zM59 230v29h273v-29h-273z" />
    <glyph glyph-name="uni0208" unicode="&#x208;" horiz-adv-x="168" 
d="M58 620h51v-620h-51v620zM27 684l-103 95h50l86 -95h-33zM106 684l-103 95h50l86 -95h-33z" />
    <glyph glyph-name="uni0209" unicode="&#x209;" horiz-adv-x="169" 
d="M60 470h50v-470h-50v470zM27 534l-103 95h50l86 -95h-33zM107 534l-103 95h50l86 -95h-33z" />
    <glyph glyph-name="uni020A" unicode="&#x20a;" horiz-adv-x="168" 
d="M81 772q55 0 78 -27t23 -65h-32q0 27 -15 45.5t-53 18.5q-35 0 -49.5 -19.5t-14.5 -44.5h-32q0 21 8 42t29 35.5t58 14.5zM58 620h51v-620h-51v620z" />
    <glyph glyph-name="uni020B" unicode="&#x20b;" horiz-adv-x="169" 
d="M82 622q54 0 77.5 -27t23.5 -65h-33q0 27 -15 45.5t-52 18.5q-36 0 -50 -19.5t-14 -44.5h-32q0 21 7.5 42t28.5 35.5t59 14.5zM60 470h50v-470h-50v470z" />
    <glyph glyph-name="uni020C" unicode="&#x20c;" horiz-adv-x="379" 
d="M189 -3q-69 0 -104.5 25t-35.5 71v441q0 41 32.5 68t107.5 26t108.5 -27t33.5 -68v-439q0 -46 -35.5 -71.5t-106.5 -25.5zM189 39q48 0 70 19t22 48v416q0 25 -19.5 44.5t-74.5 19.5q-50 0 -69 -19t-19 -44v-418q0 -29 21.5 -47.5t68.5 -18.5zM132 684l-103 95h50l86 -95
h-33zM212 684l-103 95h50l86 -95h-33z" />
    <glyph glyph-name="uni020D" unicode="&#x20d;" horiz-adv-x="383" 
d="M185 -4q-56 0 -85 16t-39 41t-10 50v265q0 26 10 50.5t40.5 40.5t90.5 16q57 0 87 -15.5t41.5 -40t11.5 -51.5v-253q0 -32 -12 -59t-43.5 -43.5t-91.5 -16.5zM185 37q47 0 72 19.5t25 62.5v241q0 38 -24.5 57t-66.5 19q-41 0 -65.5 -19t-24.5 -57v-248q0 -38 24 -56.5
t60 -18.5zM134 534l-103 95h50l86 -95h-33zM213 534l-103 95h50l86 -95h-33z" />
    <glyph glyph-name="uni020E" unicode="&#x20e;" horiz-adv-x="379" 
d="M187 772q55 0 78 -27t23 -65h-32q-1 27 -16 45.5t-52 18.5q-35 0 -49.5 -19.5t-14.5 -44.5h-32q0 21 8 42t28.5 35.5t58.5 14.5zM189 -3q-69 0 -104.5 25t-35.5 71v441q0 41 32.5 68t107.5 26t108.5 -27t33.5 -68v-439q0 -46 -35.5 -71.5t-106.5 -25.5zM189 39
q48 0 70 19t22 48v416q0 25 -19.5 44.5t-74.5 19.5q-50 0 -69 -19t-19 -44v-418q0 -29 21.5 -47.5t68.5 -18.5z" />
    <glyph glyph-name="uni020F" unicode="&#x20f;" horiz-adv-x="383" 
d="M189 622q54 0 77.5 -27t23.5 -65h-33q0 27 -15 45.5t-53 18.5q-35 0 -49 -19.5t-14 -44.5h-33q0 21 8 42t29 35.5t59 14.5zM185 -4q-56 0 -85 16t-39 41t-10 50v265q0 26 10 50.5t40.5 40.5t90.5 16q57 0 87 -15.5t41.5 -40t11.5 -51.5v-253q0 -32 -12 -59t-43.5 -43.5
t-91.5 -16.5zM185 37q47 0 72 19.5t25 62.5v241q0 38 -24.5 57t-66.5 19q-41 0 -65.5 -19t-24.5 -57v-248q0 -38 24 -56.5t60 -18.5z" />
    <glyph glyph-name="uni0210" unicode="&#x210;" horiz-adv-x="390" 
d="M58 620h188q43 0 63.5 -10.5t27 -32t6.5 -53.5v-112q0 -36 -6 -67.5t-31 -51t-82 -19.5h-115v-274h-51v620zM318 -13l-115 290l36 4l14 -4l3 -7l109 -265zM211 315q40 0 60.5 20t20.5 68v101q0 43 -14.5 59t-53.5 16h-115v-264h102zM128 684l-103 95h50l86 -95h-33z
M208 684l-103 95h50l86 -95h-33z" />
    <glyph glyph-name="uni0211" unicode="&#x211;" horiz-adv-x="274" 
d="M60 0v470h40l5 -49q16 26 42.5 40.5t55.5 14.5q24 0 37 -3t24 -8l-2 -44q-13 5 -27 8t-35 3q-32 0 -55 -16.5t-35 -44.5v-371h-50zM107 534l-103 95h50l86 -95h-33zM187 534l-103 95h50l86 -95h-33z" />
    <glyph glyph-name="uni0212" unicode="&#x212;" horiz-adv-x="390" 
d="M183 772q55 0 78 -27t23 -65h-32q-1 27 -16 45.5t-52 18.5q-35 0 -49.5 -19.5t-14.5 -44.5h-32q0 21 8 42t28.5 35.5t58.5 14.5zM58 620h188q43 0 63.5 -10.5t27 -32t6.5 -53.5v-112q0 -36 -6 -67.5t-31 -51t-82 -19.5h-115v-274h-51v620zM318 -13l-115 290l36 4l14 -4
l3 -7l109 -265zM211 315q40 0 60.5 20t20.5 68v101q0 43 -14.5 59t-53.5 16h-115v-264h102z" />
    <glyph glyph-name="uni0213" unicode="&#x213;" horiz-adv-x="274" 
d="M162 622q54 0 77.5 -27t23.5 -65h-33q0 27 -15 45.5t-52 18.5q-36 0 -50 -19.5t-14 -44.5h-32q0 21 7.5 42t28.5 35.5t59 14.5zM60 0v470h40l5 -49q16 26 42.5 40.5t55.5 14.5q24 0 37 -3t24 -8l-2 -44q-13 5 -27 8t-35 3q-32 0 -55 -16.5t-35 -44.5v-371h-50z" />
    <glyph glyph-name="uni0214" unicode="&#x214;" horiz-adv-x="389" 
d="M194 -5q-38 0 -70 9t-51 29.5t-19 55.5v531h51v-514q0 -18 7.5 -34t26.5 -26t55 -10q39 0 58 10t25.5 26t6.5 34v514h51v-531q0 -35 -18 -55.5t-50 -29.5t-73 -9zM137 684l-103 95h50l86 -95h-33zM217 684l-103 95h50l86 -95h-33z" />
    <glyph glyph-name="uni0215" unicode="&#x215;" 
d="M175 0q-51 0 -77 15t-34.5 37.5t-8.5 44.5v373h50v-353q0 -41 24.5 -58.5t65.5 -17.5h91v429h50v-470h-161zM140 534l-103 95h50l86 -95h-33zM220 534l-103 95h50l86 -95h-33z" />
    <glyph glyph-name="uni0216" unicode="&#x216;" horiz-adv-x="389" 
d="M192 772q54 0 77.5 -27t23.5 -65h-33q0 27 -15 45.5t-52 18.5q-36 0 -50 -19.5t-14 -44.5h-32q0 21 7.5 42t28.5 35.5t59 14.5zM194 -5q-38 0 -70 9t-51 29.5t-19 55.5v531h51v-514q0 -18 7.5 -34t26.5 -26t55 -10q39 0 58 10t25.5 26t6.5 34v514h51v-531
q0 -35 -18 -55.5t-50 -29.5t-73 -9z" />
    <glyph glyph-name="uni0217" unicode="&#x217;" 
d="M195 622q54 0 77.5 -27t23.5 -65h-33q0 27 -15 45.5t-52 18.5q-36 0 -50 -19.5t-14 -44.5h-33q0 21 8 42t29 35.5t59 14.5zM175 0q-51 0 -77 15t-34.5 37.5t-8.5 44.5v373h50v-353q0 -41 24.5 -58.5t65.5 -17.5h91v429h50v-470h-161z" />
    <glyph glyph-name="uni0218" unicode="&#x218;" horiz-adv-x="368" 
d="M190 -4q-43 1 -76 7.5t-52.5 23.5t-19.5 49v129l51 7v-118q0 -27 20.5 -42t73.5 -15q36 0 54.5 7.5t25 24t6.5 42.5v91q0 37 -17.5 58.5t-51.5 31.5l-78 21q-44 14 -64 35t-20 66v110q0 44 19 65t52 27.5t76 6.5t72.5 -7t46 -24t16.5 -49v-129l-51 -9v116q0 34 -17 48.5
t-69 14.5q-53 0 -73.5 -17t-20.5 -60v-84q0 -32 18.5 -50.5t46.5 -26.5l81 -23q46 -13 65.5 -37t19.5 -70v-118q0 -43 -16 -65t-45.5 -29t-72.5 -8zM152 -161q14 21 23 41t9 42q-14 0 -17 4t-3 11q0 10 3 14.5t21 4.5q17 0 20 -4.5t3 -14.5q0 -16 -4.5 -35t-12.5 -35.5
t-17 -27.5h-25z" />
    <glyph glyph-name="uni0219" unicode="&#x219;" horiz-adv-x="360" 
d="M176 -6q-71 0 -101 29.5t-30 82.5v68l45 7v-73q0 -19 7 -37t25.5 -29.5t53.5 -11.5q43 0 67.5 15t24.5 63q0 42 -12.5 62.5t-48.5 37.5q-6 3 -20 9t-30 12t-29.5 12t-19.5 9q-24 13 -38 26.5t-19.5 32t-5.5 44.5v12q0 57 32.5 83.5t104.5 26.5q71 0 101.5 -25t30.5 -81
v-70l-46 -6v71q0 44 -22.5 59.5t-65.5 15.5q-41 0 -60 -12.5t-24 -30.5t-5 -34q0 -37 8.5 -52t33.5 -29q13 -7 31.5 -14.5t38 -15.5t34.5 -16q44 -20 60.5 -44.5t16.5 -71.5v-9q0 -57 -29.5 -86.5t-108.5 -29.5zM147 -161q14 21 23 41t9 42q-14 0 -17 4t-3 11q0 10 3 14.5
t21 4.5q17 0 20 -4.5t3 -14.5q0 -16 -4.5 -35t-12.5 -35.5t-17 -27.5h-25z" />
    <glyph glyph-name="uni021A" unicode="&#x21a;" horiz-adv-x="311" 
d="M129 579h-110v41h273v-41h-112v-579h-51v579zM122 -161q14 21 23 41t9 42q-14 0 -17 4t-3 11q0 10 3 14.5t21 4.5q17 0 20 -4.5t3 -14.5q0 -16 -4.5 -35t-12.5 -35.5t-17 -27.5h-25z" />
    <glyph glyph-name="uni021B" unicode="&#x21b;" horiz-adv-x="219" 
d="M164 0q-38 0 -61 9.5t-33 32t-10 60.5v330h-33v38h39l8 88h36v-88h85l-11 -38h-74v-319q0 -43 18 -57.5t50 -14.5h29v-41h-43zM119 -160q14 21 23 41t9 42q-14 0 -17 4t-3 11q0 10 3 14.5t21 4.5q17 0 20 -4.5t3 -14.5q0 -16 -4.5 -35t-12.5 -35.5t-17 -27.5h-25z" />
    <glyph glyph-name="uni022A" unicode="&#x22a;" horiz-adv-x="379" 
d="M189 -3q-69 0 -104.5 25t-35.5 71v441q0 41 32.5 68t107.5 26t108.5 -27t33.5 -68v-439q0 -46 -35.5 -71.5t-106.5 -25.5zM189 39q48 0 70 19t22 48v416q0 25 -19.5 44.5t-74.5 19.5q-50 0 -69 -19t-19 -44v-418q0 -29 21.5 -47.5t68.5 -18.5zM238 680q-17 0 -20 6.5
t-3 17.5q0 14 3 19.5t20 5.5q18 0 21.5 -5.5t3.5 -19.5q0 -11 -3.5 -17.5t-21.5 -6.5zM139 680q-17 0 -20 6.5t-3 17.5q0 14 3 19.5t20 5.5q18 0 21 -5.5t3 -19.5q0 -11 -3 -17.5t-21 -6.5zM82 755v33h214v-33h-214z" />
    <glyph glyph-name="uni022B" unicode="&#x22b;" horiz-adv-x="383" 
d="M185 -4q-56 0 -85 16t-39 41t-10 50v265q0 26 10 50.5t40.5 40.5t90.5 16q57 0 87 -15.5t41.5 -40t11.5 -51.5v-253q0 -32 -12 -59t-43.5 -43.5t-91.5 -16.5zM185 37q47 0 72 19.5t25 62.5v241q0 38 -24.5 57t-66.5 19q-41 0 -65.5 -19t-24.5 -57v-248q0 -38 24 -56.5
t60 -18.5zM240 530q-17 0 -20 6.5t-3 17.5q0 14 3 19.5t20 5.5q18 0 21.5 -5.5t3.5 -19.5q0 -11 -3.5 -17.5t-21.5 -6.5zM141 530q-17 0 -20 6.5t-3 17.5q0 14 3 19.5t20 5.5q18 0 21 -5.5t3 -19.5q0 -11 -3 -17.5t-21 -6.5zM84 605v33h214v-33h-214z" />
    <glyph glyph-name="uni022C" unicode="&#x22c;" horiz-adv-x="379" 
d="M189 -3q-69 0 -104.5 25t-35.5 71v441q0 41 32.5 68t107.5 26t108.5 -27t33.5 -68v-439q0 -46 -35.5 -71.5t-106.5 -25.5zM189 39q48 0 70 19t22 48v416q0 25 -19.5 44.5t-74.5 19.5q-50 0 -69 -19t-19 -44v-418q0 -29 21.5 -47.5t68.5 -18.5zM88 679q0 41 15.5 59.5
t38.5 18.5q21 0 35.5 -10.5t27.5 -21.5t28 -11q20 0 26.5 14t6.5 28h26q0 -41 -17 -57.5t-37 -16.5q-21 0 -35.5 11.5t-26.5 22t-28 10.5t-24.5 -12.5t-8.5 -34.5h-27zM82 789v33h214v-33h-214z" />
    <glyph glyph-name="uni022D" unicode="&#x22d;" horiz-adv-x="383" 
d="M185 -4q-56 0 -85 16t-39 41t-10 50v265q0 26 10 50.5t40.5 40.5t90.5 16q57 0 87 -15.5t41.5 -40t11.5 -51.5v-253q0 -32 -12 -59t-43.5 -43.5t-91.5 -16.5zM185 37q47 0 72 19.5t25 62.5v241q0 38 -24.5 57t-66.5 19q-41 0 -65.5 -19t-24.5 -57v-248q0 -38 24 -56.5
t60 -18.5zM89 529q0 41 15.5 59.5t38.5 18.5q21 0 35.5 -10.5t27.5 -21.5t28 -11q20 0 26.5 14t6.5 28h26q0 -41 -17 -57.5t-37 -16.5q-21 0 -35.5 11.5t-26.5 22t-28 10.5t-24.5 -12.5t-8.5 -34.5h-27zM83 639v33h214v-33h-214z" />
    <glyph glyph-name="uni0230" unicode="&#x230;" horiz-adv-x="379" 
d="M189 -3q-69 0 -104.5 25t-35.5 71v441q0 41 32.5 68t107.5 26t108.5 -27t33.5 -68v-439q0 -46 -35.5 -71.5t-106.5 -25.5zM189 39q48 0 70 19t22 48v416q0 25 -19.5 44.5t-74.5 19.5q-50 0 -69 -19t-19 -44v-418q0 -29 21.5 -47.5t68.5 -18.5zM189 682q-18 0 -21 6t-3 18
q0 13 3 19t20 6q18 0 21 -6t3 -19q0 -12 -3 -18t-20 -6zM82 755v33h214v-33h-214z" />
    <glyph glyph-name="uni0231" unicode="&#x231;" horiz-adv-x="383" 
d="M185 -4q-56 0 -85 16t-39 41t-10 50v265q0 26 10 50.5t40.5 40.5t90.5 16q57 0 87 -15.5t41.5 -40t11.5 -51.5v-253q0 -32 -12 -59t-43.5 -43.5t-91.5 -16.5zM185 37q47 0 72 19.5t25 62.5v241q0 38 -24.5 57t-66.5 19q-41 0 -65.5 -19t-24.5 -57v-248q0 -38 24 -56.5
t60 -18.5zM191 532q-18 0 -21 6t-3 18q0 13 3 19t20 6q18 0 21 -6t3 -19q0 -12 -3 -18t-20 -6zM84 605v33h214v-33h-214z" />
    <glyph glyph-name="uni0232" unicode="&#x232;" horiz-adv-x="345" 
d="M147 0v253l-136 367h47l113 -301l2 -14h1l1 14l111 301h48l-137 -367v-253h-50zM65 690v33h214v-33h-214z" />
    <glyph glyph-name="uni0233" unicode="&#x233;" horiz-adv-x="327" 
d="M-8 -170l5 33h37q36 0 58 16.5t33 65.5l16 61l-129 464h49l102 -385l1 -12h-3l1 12l102 385h50l-148 -537q-16 -56 -41 -79.5t-81 -23.5h-52zM58 540v33h214v-33h-214z" />
    <glyph glyph-name="uni0237" unicode="&#x237;" horiz-adv-x="179" 
d="M-39 -173l-6 40h74q28 0 37 14.5t9 46.5v542h50v-554q0 -46 -17 -67.5t-62 -21.5h-85z" />
    <glyph glyph-name="uni0259" unicode="&#x259;" horiz-adv-x="347" 
d="M162 474q57 0 86 -16t39 -40.5t10 -50.5v-265q0 -25 -10.5 -50t-41 -41t-89.5 -16q-57 0 -87.5 15.5t-42 40.5t-11.5 51v114l50 2v-108q0 -38 24.5 -57t66.5 -19q41 0 66 19t25 57v248q0 38 -24.5 56.5t-59.5 18.5q-47 0 -72.5 -19.5t-25.5 -62.5v-50l-50 -5v59
q0 33 12 59.5t44 43t91 16.5zM288 240v-29h-273v29h273z" />
    <glyph glyph-name="uni02B9" unicode="&#x2b9;" horiz-adv-x="58" 
d="M0 448q11 24 18 46.5t7 45.5q-11 0 -13.5 4.5t-2.5 11.5q0 12 2.5 17t17.5 5q14 0 17 -5t3 -15q0 -18 -4.5 -39.5t-10.5 -40t-13 -30.5h-21z" />
    <glyph glyph-name="uni02BA" unicode="&#x2ba;" horiz-adv-x="152" 
d="M103 448q11 24 18 46.5t7 45.5q-12 0 -14.5 4.5t-2.5 11.5q0 12 3 17t18 5q14 0 17 -5t3 -15q0 -18 -4.5 -39.5t-11 -40t-13.5 -30.5h-20zM0 448q11 24 18 46.5t7 45.5q-11 0 -13.5 4.5t-2.5 11.5q0 12 2.5 17t17.5 5q14 0 17 -5t3 -15q0 -18 -4.5 -39.5t-10.5 -40
t-13 -30.5h-21z" />
    <glyph glyph-name="uni02BC" unicode="&#x2bc;" horiz-adv-x="70" 
d="M0 425q14 27 22.5 54t8.5 54q-14 0 -17 6t-3 14q0 9 1 14.5t6.5 8.5t17.5 3q16 0 19 -6t3 -18q0 -22 -5 -47t-12 -47t-16 -36h-25z" />
    <glyph glyph-name="circumflex" unicode="&#x2c6;" horiz-adv-x="224" 
d="M2 534l85 89h50l84 -89h-35l-73 64l-74 -64h-37z" />
    <glyph glyph-name="caron" unicode="&#x2c7;" horiz-adv-x="224" 
d="M2 623h37l74 -63l73 63h35l-84 -89h-50z" />
    <glyph glyph-name="breve" unicode="&#x2d8;" horiz-adv-x="208" 
d="M102 528q-38 0 -59 14t-29 35.5t-8 42.5h33q0 -25 14 -44.5t49 -19.5q38 0 53 19t15 45h32q0 -38 -23 -65t-77 -27z" />
    <glyph glyph-name="dotaccent" unicode="&#x2d9;" horiz-adv-x="47" 
d="M24 532q-18 0 -21 6t-3 18q0 13 3 19t20 6q18 0 21 -6t3 -19q0 -12 -3 -18t-20 -6z" />
    <glyph glyph-name="ring" unicode="&#x2da;" horiz-adv-x="149" 
d="M75 529q-32 0 -53.5 20.5t-21.5 48.5q0 29 21.5 50t53.5 21q31 0 52.5 -21t21.5 -50q0 -28 -21.5 -48.5t-52.5 -20.5zM75 551q20 0 34.5 14t14.5 32q0 21 -14.5 35.5t-34.5 14.5q-21 0 -35.5 -14.5t-14.5 -35.5q0 -18 14.5 -32t35.5 -14z" />
    <glyph glyph-name="ogonek" unicode="&#x2db;" horiz-adv-x="191" 
d="M80 -165q-32 0 -52 21.5t-20 55.5q0 26 21.5 54.5t69.5 43.5l29 -3q-36 -15 -59 -37t-23 -53q0 -22 14 -37.5t35 -15.5q16 0 28.5 4t25.5 16l6 -25q-19 -13 -36.5 -18.5t-38.5 -5.5z" />
    <glyph glyph-name="tilde" unicode="&#x2dc;" horiz-adv-x="212" 
d="M4 529q0 41 15.5 59.5t38.5 18.5q21 0 35.5 -10.5t27.5 -21.5t28 -11q20 0 26.5 14t6.5 28h26q0 -41 -17 -57.5t-37 -16.5q-21 0 -35.5 11.5t-26.5 22t-28 10.5t-24.5 -12.5t-8.5 -34.5h-27z" />
    <glyph glyph-name="hungarumlaut" unicode="&#x2dd;" horiz-adv-x="169" 
d="M0 534l38 95h49l-54 -95h-33zM81 534l38 95h50l-54 -95h-34z" />
    <glyph glyph-name="gravecomb" unicode="&#x300;" horiz-adv-x="0" 
d="M103 534l-103 95h50l86 -95h-33z" />
    <glyph glyph-name="acutecomb" unicode="&#x301;" horiz-adv-x="0" 
d="M0 534l87 95h49l-103 -95h-33z" />
    <glyph glyph-name="uni0302" unicode="&#x302;" horiz-adv-x="0" 
d="M2 534l85 89h50l84 -89h-35l-73 64l-74 -64h-37z" />
    <glyph glyph-name="tildecomb" unicode="&#x303;" horiz-adv-x="0" 
d="M4 529q0 41 15.5 59.5t38.5 18.5q21 0 35.5 -10.5t27.5 -21.5t28 -11q20 0 26.5 14t6.5 28h26q0 -41 -17 -57.5t-37 -16.5q-21 0 -35.5 11.5t-26.5 22t-28 10.5t-24.5 -12.5t-8.5 -34.5h-27z" />
    <glyph glyph-name="uni0304" unicode="&#x304;" horiz-adv-x="0" 
d="M0 540v33h214v-33h-214z" />
    <glyph glyph-name="uni0306" unicode="&#x306;" horiz-adv-x="0" 
d="M102 528q-38 0 -59 14t-29 35.5t-8 42.5h33q0 -25 14 -44.5t49 -19.5q38 0 53 19t15 45h32q0 -38 -23 -65t-77 -27z" />
    <glyph glyph-name="uni0307" unicode="&#x307;" horiz-adv-x="0" 
d="M24 532q-18 0 -21 6t-3 18q0 13 3 19t20 6q18 0 21 -6t3 -19q0 -12 -3 -18t-20 -6z" />
    <glyph glyph-name="uni0308" unicode="&#x308;" horiz-adv-x="0" 
d="M142 530q-17 0 -20 6.5t-3 17.5q0 14 3 19.5t20 5.5q18 0 21.5 -5.5t3.5 -19.5q0 -11 -3.5 -17.5t-21.5 -6.5zM43 530q-17 0 -20 6.5t-3 17.5q0 14 3 19.5t20 5.5q18 0 21 -5.5t3 -19.5q0 -11 -3 -17.5t-21 -6.5z" />
    <glyph glyph-name="hookabovecomb" unicode="&#x309;" horiz-adv-x="0" 
d="M56 534q0 12 8 21t18.5 16.5t18.5 16.5t8 23t-12 23.5t-27 9.5q-23 0 -33.5 -12.5t-13.5 -28.5l-23 9q3 27 23 42.5t53 15.5q30 0 48 -15.5t18 -38.5q0 -20 -8.5 -31.5t-19 -18.5t-18.5 -14t-8 -18h-32z" />
    <glyph glyph-name="uni030A" unicode="&#x30a;" horiz-adv-x="0" 
d="M75 529q-32 0 -53.5 20.5t-21.5 48.5q0 29 21.5 50t53.5 21q31 0 52.5 -21t21.5 -50q0 -28 -21.5 -48.5t-52.5 -20.5zM75 551q20 0 34.5 14t14.5 32q0 21 -14.5 35.5t-34.5 14.5q-21 0 -35.5 -14.5t-14.5 -35.5q0 -18 14.5 -32t35.5 -14z" />
    <glyph glyph-name="uni030B" unicode="&#x30b;" horiz-adv-x="0" 
d="M0 534l38 95h49l-54 -95h-33zM81 534l38 95h50l-54 -95h-34z" />
    <glyph glyph-name="uni030C" unicode="&#x30c;" horiz-adv-x="0" 
d="M2 623h37l74 -63l73 63h35l-84 -89h-50z" />
    <glyph glyph-name="uni030F" unicode="&#x30f;" horiz-adv-x="0" 
d="M83 534l-103 95h50l86 -95h-33zM162 534l-103 95h50l86 -95h-33z" />
    <glyph glyph-name="uni0311" unicode="&#x311;" horiz-adv-x="0" 
d="M102 622q54 0 77 -27t23 -65h-32q0 27 -15 45.5t-53 18.5q-35 0 -49 -19.5t-14 -44.5h-33q0 21 8 42t29 35.5t59 14.5z" />
    <glyph glyph-name="uni0312" unicode="&#x312;" horiz-adv-x="0" 
d="M22 534q-13 0 -17.5 4t-4.5 13q0 15 5 34t14 37t17 28h27q-15 -21 -24 -41t-10 -41q13 0 16 -3t3 -9q0 -11 -4.5 -16.5t-21.5 -5.5z" />
    <glyph glyph-name="uni031B" unicode="&#x31b;" horiz-adv-x="0" 
d="M3 450l-3 20q33 0 45 12t11 38h31q0 -37 -19 -53.5t-65 -16.5z" />
    <glyph glyph-name="dotbelowcomb" unicode="&#x323;" horiz-adv-x="0" 
d="M24 -94q-18 0 -21 6.5t-3 17.5q0 14 3 20t20 6q18 0 21 -6t3 -20q0 -11 -3 -17.5t-20 -6.5z" />
    <glyph glyph-name="uni0324" unicode="&#x324;" horiz-adv-x="0" 
d="M142 -94q-17 0 -20 6.5t-3 17.5q0 14 3 19.5t20 5.5q18 0 21.5 -5.5t3.5 -19.5q0 -11 -3.5 -17.5t-21.5 -6.5zM43 -94q-17 0 -20 6.5t-3 17.5q0 14 3 19.5t20 5.5q18 0 21 -5.5t3 -19.5q0 -11 -3 -17.5t-21 -6.5z" />
    <glyph glyph-name="uni0326" unicode="&#x326;" horiz-adv-x="0" 
d="M0 -161q14 21 23 41t9 42q-14 0 -17 4t-3 11q0 10 3 14.5t21 4.5q17 0 20 -4.5t3 -14.5q0 -16 -4.5 -35t-12.5 -35.5t-17 -27.5h-25z" />
    <glyph glyph-name="uni0327" unicode="&#x327;" horiz-adv-x="0" 
d="M70 -176q-21 0 -37.5 8t-27.5 16l15 21q5 -7 18.5 -14.5t28.5 -7.5q24 0 37.5 16.5t13.5 34.5q0 15 -11 29.5t-35 14.5q-16 0 -29 -6.5t-21 -16.5l-19 16l52 65h24l-42 -52q21 14 44 14q37 0 53.5 -19.5t16.5 -42.5q0 -26 -21 -51t-60 -25z" />
    <glyph glyph-name="uni0328" unicode="&#x328;" horiz-adv-x="0" 
d="M80 -165q-32 0 -52 21.5t-20 55.5q0 26 21.5 54.5t69.5 43.5l29 -3q-36 -15 -59 -37t-23 -53q0 -22 14 -37.5t35 -15.5q16 0 28.5 4t25.5 16l6 -25q-19 -13 -36.5 -18.5t-38.5 -5.5z" />
    <glyph glyph-name="uni032E" unicode="&#x32e;" horiz-adv-x="0" 
d="M102 -135q-38 0 -59 14t-29 35.5t-8 42.5h33q0 -25 14 -44.5t49 -19.5q38 0 53 19t15 45h32q0 -38 -23 -65t-77 -27z" />
    <glyph glyph-name="uni0331" unicode="&#x331;" horiz-adv-x="0" 
d="M0 -85v32h233v-32h-233z" />
    <glyph glyph-name="uni0335" unicode="&#x335;" horiz-adv-x="0" 
d="M0 175v26h233v-26h-233z" />
    <glyph glyph-name="uni03A9" unicode="&#x3a9;" horiz-adv-x="598" 
d="M36 41h139q-36 29 -65 75.5t-46 106t-17 127.5q0 61 7 110.5t32 85.5t76.5 55t139.5 19q70 0 116.5 -13t73.5 -36.5t40.5 -57t17.5 -74.5t4 -87q0 -69 -18.5 -128.5t-49 -106t-65.5 -76.5h142v-41h-177l-6 42q19 15 39 44t37 70t27.5 88t10.5 98q0 47 -4.5 90t-21.5 77.5
t-56 54.5t-111 20q-69 0 -109 -19t-58.5 -51.5t-23.5 -75.5t-5 -92q0 -45 8.5 -91t24 -87.5t36 -74.5t44.5 -51l-6 -42h-176v41z" />
    <glyph glyph-name="uni03BC" unicode="&#x3bc;" horiz-adv-x="364" 
d="M158 0q-51 0 -77 15t-34.5 37.5t-8.5 44.5v373h50v-353q0 -41 24 -58.5t66 -17.5h91v429h50v-470h-161zM116 -173q-45 0 -61.5 21.5t-16.5 67.5v554h50v-542q0 -32 8.5 -46.5t35.5 -14.5h10l-7 -40h-19z" />
    <glyph glyph-name="pi" unicode="&#x3c0;" horiz-adv-x="502" 
d="M136 0v433h-94v37h419v-37h-87v-260h-51v260h-137v-433h-50zM401 0q-44 0 -61 21.5t-17 67.5v381h50v-369q0 -32 9 -46t36 -14h8l-7 -41h-18z" />
    <glyph glyph-name="Wgrave" unicode="&#x1e80;" horiz-adv-x="559" 
d="M140 0l-118 620h51l93 -517l1 -14h1v14l96 485h40l88 -485l1 -14h1l1 14l90 517h52l-116 -620h-52l-83 467v11h-1l-1 -11l-92 -467h-52zM284 684l-111 87h50l94 -87h-33z" />
    <glyph glyph-name="wgrave" unicode="&#x1e81;" horiz-adv-x="553" 
d="M10 470h50l104 -371l90 371h41l91 -366l104 366h50l-132 -470h-34l-99 390l-99 -390h-34zM277 534l-103 95h50l86 -95h-33z" />
    <glyph glyph-name="Wacute" unicode="&#x1e82;" horiz-adv-x="559" 
d="M140 0l-118 620h51l93 -517l1 -14h1v14l96 485h40l88 -485l1 -14h1l1 14l90 517h52l-116 -620h-52l-83 467v11h-1l-1 -11l-92 -467h-52zM235 684l94 87h50l-111 -87h-33z" />
    <glyph glyph-name="wacute" unicode="&#x1e83;" horiz-adv-x="553" 
d="M10 470h50l104 -371l90 371h41l91 -366l104 366h50l-132 -470h-34l-99 390l-99 -390h-34zM228 534l87 95h49l-103 -95h-33z" />
    <glyph glyph-name="Wdieresis" unicode="&#x1e84;" horiz-adv-x="559" 
d="M140 0l-118 620h51l93 -517l1 -14h1v14l96 485h40l88 -485l1 -14h1l1 14l90 517h52l-116 -620h-52l-83 467v11h-1l-1 -11l-92 -467h-52zM333 680q-17 0 -20 6.5t-3 17.5q0 14 3 19.5t20 5.5q18 0 21.5 -5.5t3.5 -19.5q0 -11 -3.5 -17.5t-21.5 -6.5zM234 680
q-17 0 -20 6.5t-3 17.5q0 14 3 19.5t20 5.5q18 0 21 -5.5t3 -19.5q0 -11 -3 -17.5t-21 -6.5z" />
    <glyph glyph-name="wdieresis" unicode="&#x1e85;" horiz-adv-x="553" 
d="M10 470h50l104 -371l90 371h41l91 -366l104 366h50l-132 -470h-34l-99 390l-99 -390h-34zM326 530q-17 0 -20 6.5t-3 17.5q0 14 3 19.5t20 5.5q18 0 21.5 -5.5t3.5 -19.5q0 -11 -3.5 -17.5t-21.5 -6.5zM227 530q-17 0 -20 6.5t-3 17.5q0 14 3 19.5t20 5.5q18 0 21 -5.5
t3 -19.5q0 -11 -3 -17.5t-21 -6.5z" />
    <glyph glyph-name="uni1E9E" unicode="&#x1e9e;" horiz-adv-x="459" 
d="M272 -6q-71 0 -101.5 29.5t-30.5 88.5l46 5q0 -24 6.5 -44t25 -32t54.5 -12q42 0 66.5 15t24.5 64q0 27 -3 44t-14 31.5t-36 32.5l-35 20t-39 23q-22 13 -36.5 25t-22 29t-7.5 41q0 27 10 47t34 43l45 40q16 15 24 29.5t8 33.5q0 27 -20.5 36.5t-53.5 9.5h-36
q-45 0 -58.5 -12.5t-13.5 -50.5v-530h-50l-1 538q0 48 20.5 66t80.5 18h75q51 0 78 -16.5t27 -52.5q0 -28 -8 -47t-26 -37l-55 -51q-15 -16 -24.5 -31t-9.5 -33q0 -19 10.5 -34t33.5 -28q19 -10 33.5 -18.5t26 -15t20.5 -11.5q30 -20 45 -37.5t19.5 -38.5t4.5 -53
q0 -67 -30.5 -95.5t-106.5 -28.5z" />
    <glyph glyph-name="uni1EA0" unicode="&#x1ea0;" horiz-adv-x="376" 
d="M18 0l132 620h76l130 -620h-53l-32 151l11 -10h-191l9 10l-30 -151h-52zM101 176l-5 6h182l-7 -6l-73 379l-2 7h-17l-2 -7zM186 -94q-18 0 -21 6.5t-3 17.5q0 14 3 20t20 6q18 0 21 -6t3 -20q0 -11 -3 -17.5t-20 -6.5z" />
    <glyph glyph-name="uni1EA1" unicode="&#x1ea1;" 
d="M128 0q-35 0 -51 10t-19 37.5t-3 79.5v250q0 39 8 59t31 27t68 7h174v-470h-50v429h-127q-28 0 -39.5 -7t-13 -23.5t-1.5 -45.5v-238q0 -31 3 -47t13 -21.5t31 -5.5h103l-7 -41h-120zM197 -94q-18 0 -21 6.5t-3 17.5q0 14 3 20t20 6q18 0 21 -6t3 -20q0 -11 -3 -17.5
t-20 -6.5z" />
    <glyph glyph-name="uni1EA2" unicode="&#x1ea2;" horiz-adv-x="376" 
d="M18 0l132 620h76l130 -620h-53l-32 151l11 -10h-191l9 10l-30 -151h-52zM101 176l-5 6h182l-7 -6l-73 379l-2 7h-17l-2 -7zM172 684q0 12 8 21t18.5 16.5t18.5 16.5t8 23t-12 23.5t-27 9.5q-23 0 -33.5 -12.5t-13.5 -28.5l-23 9q3 27 23 42.5t53 15.5q30 0 48 -15.5
t18 -38.5q0 -20 -8.5 -31.5t-19 -18.5t-18.5 -14t-8 -18h-32z" />
    <glyph glyph-name="uni1EA3" unicode="&#x1ea3;" 
d="M128 0q-35 0 -51 10t-19 37.5t-3 79.5v250q0 39 8 59t31 27t68 7h174v-470h-50v429h-127q-28 0 -39.5 -7t-13 -23.5t-1.5 -45.5v-238q0 -31 3 -47t13 -21.5t31 -5.5h103l-7 -41h-120zM185 534q0 12 8 21t18.5 16.5t18.5 16.5t8 23t-12 23.5t-27 9.5q-23 0 -33.5 -12.5
t-13.5 -28.5l-23 9q3 27 23 42.5t53 15.5q30 0 48 -15.5t18 -38.5q0 -20 -8.5 -31.5t-19 -18.5t-18.5 -14t-8 -18h-32z" />
    <glyph glyph-name="uni1EA4" unicode="&#x1ea4;" horiz-adv-x="376" 
d="M18 0l132 620h76l130 -620h-53l-32 151l11 -10h-191l9 10l-30 -151h-52zM101 176l-5 6h182l-7 -6l-73 379l-2 7h-17l-2 -7zM93 670l68 72h49l67 -72h-35l-55 48l-56 -48h-38zM271 728l70 77h49l-85 -77h-34z" />
    <glyph glyph-name="uni1EA5" unicode="&#x1ea5;" 
d="M128 0q-35 0 -51 10t-19 37.5t-3 79.5v250q0 39 8 59t31 27t68 7h174v-470h-50v429h-127q-28 0 -39.5 -7t-13 -23.5t-1.5 -45.5v-238q0 -31 3 -47t13 -21.5t31 -5.5h103l-7 -41h-120zM90 534l85 89h50l84 -89h-35l-73 64l-74 -64h-37zM301 608l87 95h49l-103 -95h-33z
" />
    <glyph glyph-name="uni1EA6" unicode="&#x1ea6;" horiz-adv-x="376" 
d="M18 0l132 620h76l130 -620h-53l-32 151l11 -10h-191l9 10l-30 -151h-52zM101 176l-5 6h182l-7 -6l-73 379l-2 7h-17l-2 -7zM93 670l68 72h49l67 -72h-35l-55 48l-56 -48h-38zM294 728l-85 77h47l72 -77h-34z" />
    <glyph glyph-name="uni1EA7" unicode="&#x1ea7;" 
d="M128 0q-35 0 -51 10t-19 37.5t-3 79.5v250q0 39 8 59t31 27t68 7h174v-470h-50v429h-127q-28 0 -39.5 -7t-13 -23.5t-1.5 -45.5v-238q0 -31 3 -47t13 -21.5t31 -5.5h103l-7 -41h-120zM90 534l85 89h50l84 -89h-35l-73 64l-74 -64h-37zM329 608l-103 95h50l86 -95h-33z
" />
    <glyph glyph-name="uni1EA8" unicode="&#x1ea8;" horiz-adv-x="376" 
d="M18 0l132 620h76l130 -620h-53l-32 151l11 -10h-191l9 10l-30 -151h-52zM101 176l-5 6h182l-7 -6l-73 379l-2 7h-17l-2 -7zM93 670l68 72h49l67 -72h-35l-55 48l-56 -48h-38zM283 728q0 14 10.5 22t20.5 16.5t10 22.5q0 11 -8.5 18t-20.5 7q-15 0 -23.5 -9t-11.5 -21
l-22 9q3 21 19.5 33t43.5 12q25 0 41 -11.5t16 -32.5q0 -16 -6.5 -25.5t-15 -15.5t-15 -11t-6.5 -14h-32z" />
    <glyph glyph-name="uni1EA9" unicode="&#x1ea9;" 
d="M128 0q-35 0 -51 10t-19 37.5t-3 79.5v250q0 39 8 59t31 27t68 7h174v-470h-50v429h-127q-28 0 -39.5 -7t-13 -23.5t-1.5 -45.5v-238q0 -31 3 -47t13 -21.5t31 -5.5h103l-7 -41h-120zM90 534l85 89h50l84 -89h-35l-73 64l-74 -64h-37zM319 608q0 12 8 21t18.5 16.5
t18.5 16.5t8 23t-12 23.5t-27 9.5q-23 0 -33.5 -12.5t-13.5 -28.5l-23 9q3 27 23 42.5t53 15.5q30 0 48 -15.5t18 -38.5q0 -20 -8.5 -31.5t-19 -18.5t-18.5 -14t-8 -18h-32z" />
    <glyph glyph-name="uni1EAA" unicode="&#x1eaa;" horiz-adv-x="376" 
d="M18 0l132 620h76l130 -620h-53l-32 151l11 -10h-191l9 10l-30 -151h-52zM101 176l-5 6h182l-7 -6l-73 379l-2 7h-17l-2 -7zM93 670l68 72h49l67 -72h-35l-55 48l-56 -48h-38zM98 762q0 34 13.5 51t33.5 17q17 0 29.5 -8.5t23 -17t22.5 -8.5q15 0 20.5 11t5.5 22h25
q0 -35 -14.5 -50t-32.5 -15q-16 0 -28 9t-22 17t-23 8q-12 0 -19 -9.5t-7 -26.5h-27z" />
    <glyph glyph-name="uni1EAB" unicode="&#x1eab;" 
d="M128 0q-35 0 -51 10t-19 37.5t-3 79.5v250q0 39 8 59t31 27t68 7h174v-470h-50v429h-127q-28 0 -39.5 -7t-13 -23.5t-1.5 -45.5v-238q0 -31 3 -47t13 -21.5t31 -5.5h103l-7 -41h-120zM90 534l85 89h50l84 -89h-35l-73 64l-74 -64h-37zM97 648q0 41 15.5 59.5t38.5 18.5
q21 0 35.5 -10.5t27.5 -21.5t28 -11q20 0 26.5 14t6.5 28h26q0 -41 -17 -57.5t-37 -16.5q-21 0 -35.5 11.5t-26.5 22t-28 10.5t-24.5 -12.5t-8.5 -34.5h-27z" />
    <glyph glyph-name="uni1EAC" unicode="&#x1eac;" horiz-adv-x="376" 
d="M18 0l132 620h76l130 -620h-53l-32 151l11 -10h-191l9 10l-30 -151h-52zM101 176l-5 6h182l-7 -6l-73 379l-2 7h-17l-2 -7zM186 -94q-18 0 -21 6.5t-3 17.5q0 14 3 20t20 6q18 0 21 -6t3 -20q0 -11 -3 -17.5t-20 -6.5zM76 684l85 89h50l84 -89h-35l-73 64l-74 -64h-37z
" />
    <glyph glyph-name="uni1EAD" unicode="&#x1ead;" 
d="M128 0q-35 0 -51 10t-19 37.5t-3 79.5v250q0 39 8 59t31 27t68 7h174v-470h-50v429h-127q-28 0 -39.5 -7t-13 -23.5t-1.5 -45.5v-238q0 -31 3 -47t13 -21.5t31 -5.5h103l-7 -41h-120zM197 -94q-18 0 -21 6.5t-3 17.5q0 14 3 20t20 6q18 0 21 -6t3 -20q0 -11 -3 -17.5
t-20 -6.5zM90 534l85 89h50l84 -89h-35l-73 64l-74 -64h-37z" />
    <glyph glyph-name="uni1EAE" unicode="&#x1eae;" horiz-adv-x="376" 
d="M18 0l132 620h76l130 -620h-53l-32 151l11 -10h-191l9 10l-30 -151h-52zM101 176l-5 6h182l-7 -6l-73 379l-2 7h-17l-2 -7zM186 664q-31 0 -49 11.5t-25 29t-7 35.5h33q0 -18 11 -33.5t37 -15.5q28 0 39.5 15.5t12.5 33.5h32q0 -33 -19.5 -54.5t-64.5 -21.5zM143 761
l72 77h47l-85 -77h-34z" />
    <glyph glyph-name="uni1EAF" unicode="&#x1eaf;" 
d="M128 0q-35 0 -51 10t-19 37.5t-3 79.5v250q0 39 8 59t31 27t68 7h174v-470h-50v429h-127q-28 0 -39.5 -7t-13 -23.5t-1.5 -45.5v-238q0 -31 3 -47t13 -21.5t31 -5.5h103l-7 -41h-120zM198 528q-38 0 -59 14t-29 35.5t-8 42.5h33q0 -25 14 -44.5t49 -19.5q38 0 53 19
t15 45h32q0 -38 -23 -65t-77 -27zM151 645l87 95h49l-103 -95h-33z" />
    <glyph glyph-name="uni1EB0" unicode="&#x1eb0;" horiz-adv-x="376" 
d="M18 0l132 620h76l130 -620h-53l-32 151l11 -10h-191l9 10l-30 -151h-52zM101 176l-5 6h182l-7 -6l-73 379l-2 7h-17l-2 -7zM184 664q-30 0 -48 11.5t-25 29.5t-7 35h32q0 -18 12 -33.5t38 -15.5q27 0 38.5 15.5t11.5 33.5h34q0 -33 -20 -54.5t-66 -21.5zM185 761l-86 77
h49l69 -77h-32z" />
    <glyph glyph-name="uni1EB1" unicode="&#x1eb1;" 
d="M128 0q-35 0 -51 10t-19 37.5t-3 79.5v250q0 39 8 59t31 27t68 7h174v-470h-50v429h-127q-28 0 -39.5 -7t-13 -23.5t-1.5 -45.5v-238q0 -31 3 -47t13 -21.5t31 -5.5h103l-7 -41h-120zM198 528q-38 0 -59 14t-29 35.5t-8 42.5h33q0 -25 14 -44.5t49 -19.5q38 0 53 19
t15 45h32q0 -38 -23 -65t-77 -27zM201 645l-103 95h50l86 -95h-33z" />
    <glyph glyph-name="uni1EB2" unicode="&#x1eb2;" horiz-adv-x="376" 
d="M18 0l132 620h76l130 -620h-53l-32 151l11 -10h-191l9 10l-30 -151h-52zM101 176l-5 6h182l-7 -6l-73 379l-2 7h-17l-2 -7zM186 664q-31 0 -49 11.5t-25 29t-7 35.5h33q0 -18 11 -33.5t37 -15.5q28 0 39.5 15.5t12.5 33.5h32q0 -33 -19.5 -54.5t-64.5 -21.5zM173 761
q0 14 10 22t20.5 16.5t10.5 22.5q0 11 -8.5 18t-19.5 7q-17 0 -25 -9.5t-11 -20.5l-22 8q3 22 19.5 34.5t44.5 12.5q25 0 40 -12t15 -33t-10 -31t-21 -16t-11 -19h-32z" />
    <glyph glyph-name="uni1EB3" unicode="&#x1eb3;" 
d="M128 0q-35 0 -51 10t-19 37.5t-3 79.5v250q0 39 8 59t31 27t68 7h174v-470h-50v429h-127q-28 0 -39.5 -7t-13 -23.5t-1.5 -45.5v-238q0 -31 3 -47t13 -21.5t31 -5.5h103l-7 -41h-120zM198 528q-38 0 -59 14t-29 35.5t-8 42.5h33q0 -25 14 -44.5t49 -19.5q38 0 53 19
t15 45h32q0 -38 -23 -65t-77 -27zM185 645q0 12 8 21t18.5 16.5t18.5 16.5t8 23t-12 23.5t-27 9.5q-23 0 -33.5 -12.5t-13.5 -28.5l-23 9q3 27 23 42.5t53 15.5q30 0 48 -15.5t18 -38.5q0 -20 -8.5 -31.5t-19 -18.5t-18.5 -14t-8 -18h-32z" />
    <glyph glyph-name="uni1EB4" unicode="&#x1eb4;" horiz-adv-x="376" 
d="M18 0l132 620h76l130 -620h-53l-32 151l11 -10h-191l9 10l-30 -151h-52zM101 176l-5 6h182l-7 -6l-73 379l-2 7h-17l-2 -7zM186 664q-31 0 -49 11.5t-25 29.5t-7 35h33q0 -17 11 -33t37 -16q28 0 39.5 15.5t11.5 33.5h33q0 -32 -19.5 -54t-64.5 -22zM101 758q0 34 13 50
t33 16q17 0 29.5 -8t23 -16t22.5 -8q16 0 21 10.5t5 22.5h25q0 -36 -14 -50.5t-32 -14.5q-16 0 -28 8.5t-22 17t-23 8.5q-12 0 -19 -10t-7 -26h-27z" />
    <glyph glyph-name="uni1EB5" unicode="&#x1eb5;" 
d="M128 0q-35 0 -51 10t-19 37.5t-3 79.5v250q0 39 8 59t31 27t68 7h174v-470h-50v429h-127q-28 0 -39.5 -7t-13 -23.5t-1.5 -45.5v-238q0 -31 3 -47t13 -21.5t31 -5.5h103l-7 -41h-120zM198 528q-38 0 -59 14t-29 35.5t-8 42.5h33q0 -25 14 -44.5t49 -19.5q38 0 53 19
t15 45h32q0 -38 -23 -65t-77 -27zM99 640q0 41 15.5 59.5t38.5 18.5q21 0 35.5 -10.5t27.5 -21.5t28 -11q20 0 26.5 14t6.5 28h26q0 -41 -17 -57.5t-37 -16.5q-21 0 -35.5 11.5t-26.5 22t-28 10.5t-24.5 -12.5t-8.5 -34.5h-27z" />
    <glyph glyph-name="uni1EB6" unicode="&#x1eb6;" horiz-adv-x="376" 
d="M18 0l132 620h76l130 -620h-53l-32 151l11 -10h-191l9 10l-30 -151h-52zM101 176l-5 6h182l-7 -6l-73 379l-2 7h-17l-2 -7zM186 -94q-18 0 -21 6.5t-3 17.5q0 14 3 20t20 6q18 0 21 -6t3 -20q0 -11 -3 -17.5t-20 -6.5zM185 678q-38 0 -59 14t-29 35.5t-8 42.5h33
q0 -23 14 -44t49 -21q38 0 52.5 21t15.5 44h32q0 -40 -23 -66t-77 -26z" />
    <glyph glyph-name="uni1EB7" unicode="&#x1eb7;" 
d="M128 0q-35 0 -51 10t-19 37.5t-3 79.5v250q0 39 8 59t31 27t68 7h174v-470h-50v429h-127q-28 0 -39.5 -7t-13 -23.5t-1.5 -45.5v-238q0 -31 3 -47t13 -21.5t31 -5.5h103l-7 -41h-120zM197 -94q-18 0 -21 6.5t-3 17.5q0 14 3 20t20 6q18 0 21 -6t3 -20q0 -11 -3 -17.5
t-20 -6.5zM198 528q-38 0 -59 14t-29 35.5t-8 42.5h33q0 -25 14 -44.5t49 -19.5q38 0 53 19t15 45h32q0 -38 -23 -65t-77 -27z" />
    <glyph glyph-name="uni1EB8" unicode="&#x1eb8;" horiz-adv-x="364" 
d="M58 620h276v-41h-225v-210h209l-8 -40h-201v-289h225v-40h-276v620zM183 -94q-18 0 -21 6.5t-3 17.5q0 14 3 20t20 6q18 0 21 -6t3 -20q0 -11 -3 -17.5t-20 -6.5z" />
    <glyph glyph-name="uni1EB9" unicode="&#x1eb9;" horiz-adv-x="383" 
d="M185 -4q-56 0 -85 16t-39 41t-10 50v265q0 26 10 50.5t40.5 40.5t90.5 16q57 0 87 -15.5t41.5 -40t11.5 -51.5v-114l-50 -2v108q0 38 -24.5 57t-66.5 19q-41 0 -65.5 -19t-24.5 -57v-248q0 -38 24 -56.5t60 -18.5q47 0 72 19.5t25 62.5v50l50 5v-59q0 -32 -12 -59
t-43.5 -43.5t-91.5 -16.5zM59 230v29h273v-29h-273zM191 -94q-18 0 -21 6.5t-3 17.5q0 14 3 20t20 6q18 0 21 -6t3 -20q0 -11 -3 -17.5t-20 -6.5z" />
    <glyph glyph-name="uni1EBA" unicode="&#x1eba;" horiz-adv-x="364" 
d="M58 620h276v-41h-225v-210h209l-8 -40h-201v-289h225v-40h-276v620zM169 684q0 12 8 21t18.5 16.5t18.5 16.5t8 23t-12 23.5t-27 9.5q-23 0 -33.5 -12.5t-13.5 -28.5l-23 9q3 27 23 42.5t53 15.5q30 0 48 -15.5t18 -38.5q0 -20 -8.5 -31.5t-19 -18.5t-18.5 -14t-8 -18
h-32z" />
    <glyph glyph-name="uni1EBB" unicode="&#x1ebb;" horiz-adv-x="383" 
d="M185 -4q-56 0 -85 16t-39 41t-10 50v265q0 26 10 50.5t40.5 40.5t90.5 16q57 0 87 -15.5t41.5 -40t11.5 -51.5v-114l-50 -2v108q0 38 -24.5 57t-66.5 19q-41 0 -65.5 -19t-24.5 -57v-248q0 -38 24 -56.5t60 -18.5q47 0 72 19.5t25 62.5v50l50 5v-59q0 -32 -12 -59
t-43.5 -43.5t-91.5 -16.5zM59 230v29h273v-29h-273zM176 534q0 12 8 21t18.5 16.5t18.5 16.5t8 23t-12 23.5t-27 9.5q-23 0 -33.5 -12.5t-13.5 -28.5l-23 9q3 27 23 42.5t53 15.5q30 0 48 -15.5t18 -38.5q0 -20 -8.5 -31.5t-19 -18.5t-18.5 -14t-8 -18h-32z" />
    <glyph glyph-name="uni1EBC" unicode="&#x1ebc;" horiz-adv-x="364" 
d="M58 620h276v-41h-225v-210h209l-8 -40h-201v-289h225v-40h-276v620zM82 679q0 41 15.5 59.5t38.5 18.5q21 0 35.5 -10.5t27.5 -21.5t28 -11q20 0 26.5 14t6.5 28h26q0 -41 -17 -57.5t-37 -16.5q-21 0 -35.5 11.5t-26.5 22t-28 10.5t-24.5 -12.5t-8.5 -34.5h-27z" />
    <glyph glyph-name="uni1EBD" unicode="&#x1ebd;" horiz-adv-x="383" 
d="M185 -4q-56 0 -85 16t-39 41t-10 50v265q0 26 10 50.5t40.5 40.5t90.5 16q57 0 87 -15.5t41.5 -40t11.5 -51.5v-114l-50 -2v108q0 38 -24.5 57t-66.5 19q-41 0 -65.5 -19t-24.5 -57v-248q0 -38 24 -56.5t60 -18.5q47 0 72 19.5t25 62.5v50l50 5v-59q0 -32 -12 -59
t-43.5 -43.5t-91.5 -16.5zM59 230v29h273v-29h-273zM89 529q0 41 15.5 59.5t38.5 18.5q21 0 35.5 -10.5t27.5 -21.5t28 -11q20 0 26.5 14t6.5 28h26q0 -41 -17 -57.5t-37 -16.5q-21 0 -35.5 11.5t-26.5 22t-28 10.5t-24.5 -12.5t-8.5 -34.5h-27z" />
    <glyph glyph-name="uni1EBE" unicode="&#x1ebe;" horiz-adv-x="364" 
d="M58 620h276v-41h-225v-210h209l-8 -40h-201v-289h225v-40h-276v620zM90 670l68 72h49l67 -72h-35l-55 48l-56 -48h-38zM268 728l70 77h49l-85 -77h-34z" />
    <glyph glyph-name="uni1EBF" unicode="&#x1ebf;" horiz-adv-x="383" 
d="M185 -4q-56 0 -85 16t-39 41t-10 50v265q0 26 10 50.5t40.5 40.5t90.5 16q57 0 87 -15.5t41.5 -40t11.5 -51.5v-114l-50 -2v108q0 38 -24.5 57t-66.5 19q-41 0 -65.5 -19t-24.5 -57v-248q0 -38 24 -56.5t60 -18.5q47 0 72 19.5t25 62.5v50l50 5v-59q0 -32 -12 -59
t-43.5 -43.5t-91.5 -16.5zM59 230v29h273v-29h-273zM81 534l85 89h50l84 -89h-35l-73 64l-74 -64h-37zM292 608l87 95h49l-103 -95h-33z" />
    <glyph glyph-name="uni1EC0" unicode="&#x1ec0;" horiz-adv-x="364" 
d="M58 620h276v-41h-225v-210h209l-8 -40h-201v-289h225v-40h-276v620zM90 670l68 72h49l67 -72h-35l-55 48l-56 -48h-38zM291 728l-85 77h47l72 -77h-34z" />
    <glyph glyph-name="uni1EC1" unicode="&#x1ec1;" horiz-adv-x="383" 
d="M185 -4q-56 0 -85 16t-39 41t-10 50v265q0 26 10 50.5t40.5 40.5t90.5 16q57 0 87 -15.5t41.5 -40t11.5 -51.5v-114l-50 -2v108q0 38 -24.5 57t-66.5 19q-41 0 -65.5 -19t-24.5 -57v-248q0 -38 24 -56.5t60 -18.5q47 0 72 19.5t25 62.5v50l50 5v-59q0 -32 -12 -59
t-43.5 -43.5t-91.5 -16.5zM59 230v29h273v-29h-273zM81 534l85 89h50l84 -89h-35l-73 64l-74 -64h-37zM320 608l-103 95h50l86 -95h-33z" />
    <glyph glyph-name="uni1EC2" unicode="&#x1ec2;" horiz-adv-x="364" 
d="M58 620h276v-41h-225v-210h209l-8 -40h-201v-289h225v-40h-276v620zM90 670l68 72h49l67 -72h-35l-55 48l-56 -48h-38zM280 728q0 14 10.5 22t20.5 16.5t10 22.5q0 11 -8.5 18t-20.5 7q-15 0 -23.5 -9t-11.5 -21l-22 9q3 21 19.5 33t43.5 12q25 0 41 -11.5t16 -32.5
q0 -16 -6.5 -25.5t-15 -15.5t-15 -11t-6.5 -14h-32z" />
    <glyph glyph-name="uni1EC3" unicode="&#x1ec3;" horiz-adv-x="383" 
d="M185 -4q-56 0 -85 16t-39 41t-10 50v265q0 26 10 50.5t40.5 40.5t90.5 16q57 0 87 -15.5t41.5 -40t11.5 -51.5v-114l-50 -2v108q0 38 -24.5 57t-66.5 19q-41 0 -65.5 -19t-24.5 -57v-248q0 -38 24 -56.5t60 -18.5q47 0 72 19.5t25 62.5v50l50 5v-59q0 -32 -12 -59
t-43.5 -43.5t-91.5 -16.5zM59 230v29h273v-29h-273zM81 534l85 89h50l84 -89h-35l-73 64l-74 -64h-37zM309 608q0 12 8 21t18.5 16.5t18.5 16.5t8 23t-12 23.5t-27 9.5q-23 0 -33.5 -12.5t-13.5 -28.5l-23 9q3 27 23 42.5t53 15.5q30 0 48 -15.5t18 -38.5q0 -20 -8.5 -31.5
t-19 -18.5t-18.5 -14t-8 -18h-32z" />
    <glyph glyph-name="uni1EC4" unicode="&#x1ec4;" horiz-adv-x="364" 
d="M58 620h276v-41h-225v-210h209l-8 -40h-201v-289h225v-40h-276v620zM90 670l68 72h49l67 -72h-35l-55 48l-56 -48h-38zM95 762q0 34 13.5 51t33.5 17q17 0 29.5 -8.5t23 -17t22.5 -8.5q15 0 20.5 11t5.5 22h25q0 -35 -14.5 -50t-32.5 -15q-16 0 -28 9t-22 17t-23 8
q-12 0 -19 -9.5t-7 -26.5h-27z" />
    <glyph glyph-name="uni1EC5" unicode="&#x1ec5;" horiz-adv-x="383" 
d="M185 -4q-56 0 -85 16t-39 41t-10 50v265q0 26 10 50.5t40.5 40.5t90.5 16q57 0 87 -15.5t41.5 -40t11.5 -51.5v-114l-50 -2v108q0 38 -24.5 57t-66.5 19q-41 0 -65.5 -19t-24.5 -57v-248q0 -38 24 -56.5t60 -18.5q47 0 72 19.5t25 62.5v50l50 5v-59q0 -32 -12 -59
t-43.5 -43.5t-91.5 -16.5zM59 230v29h273v-29h-273zM81 534l85 89h50l84 -89h-35l-73 64l-74 -64h-37zM88 648q0 41 15.5 59.5t38.5 18.5q21 0 35.5 -10.5t27.5 -21.5t28 -11q20 0 26.5 14t6.5 28h26q0 -41 -17 -57.5t-37 -16.5q-21 0 -35.5 11.5t-26.5 22t-28 10.5
t-24.5 -12.5t-8.5 -34.5h-27z" />
    <glyph glyph-name="uni1EC6" unicode="&#x1ec6;" horiz-adv-x="364" 
d="M58 620h276v-41h-225v-210h209l-8 -40h-201v-289h225v-40h-276v620zM183 -94q-18 0 -21 6.5t-3 17.5q0 14 3 20t20 6q18 0 21 -6t3 -20q0 -11 -3 -17.5t-20 -6.5zM73 684l85 89h50l84 -89h-35l-73 64l-74 -64h-37z" />
    <glyph glyph-name="uni1EC7" unicode="&#x1ec7;" horiz-adv-x="383" 
d="M185 -4q-56 0 -85 16t-39 41t-10 50v265q0 26 10 50.5t40.5 40.5t90.5 16q57 0 87 -15.5t41.5 -40t11.5 -51.5v-114l-50 -2v108q0 38 -24.5 57t-66.5 19q-41 0 -65.5 -19t-24.5 -57v-248q0 -38 24 -56.5t60 -18.5q47 0 72 19.5t25 62.5v50l50 5v-59q0 -32 -12 -59
t-43.5 -43.5t-91.5 -16.5zM59 230v29h273v-29h-273zM191 -94q-18 0 -21 6.5t-3 17.5q0 14 3 20t20 6q18 0 21 -6t3 -20q0 -11 -3 -17.5t-20 -6.5zM81 534l85 89h50l84 -89h-35l-73 64l-74 -64h-37z" />
    <glyph glyph-name="uni1EC8" unicode="&#x1ec8;" horiz-adv-x="168" 
d="M58 620h51v-620h-51v620zM69 684q0 12 8 21t18.5 16.5t18.5 16.5t8 23t-12 23.5t-27 9.5q-23 0 -33.5 -12.5t-13.5 -28.5l-23 9q3 27 23 42.5t53 15.5q30 0 48 -15.5t18 -38.5q0 -20 -8.5 -31.5t-19 -18.5t-18.5 -14t-8 -18h-32z" />
    <glyph glyph-name="uni1EC9" unicode="&#x1ec9;" horiz-adv-x="169" 
d="M60 470h50v-470h-50v470zM69 534q0 12 8 21t18.5 16.5t18.5 16.5t8 23t-12 23.5t-27 9.5q-23 0 -33.5 -12.5t-13.5 -28.5l-23 9q3 27 23 42.5t53 15.5q30 0 48 -15.5t18 -38.5q0 -20 -8.5 -31.5t-19 -18.5t-18.5 -14t-8 -18h-32z" />
    <glyph glyph-name="uni1ECA" unicode="&#x1eca;" horiz-adv-x="168" 
d="M58 620h51v-620h-51v620zM83 -94q-18 0 -21 6.5t-3 17.5q0 14 3 20t20 6q18 0 21 -6t3 -20q0 -11 -3 -17.5t-20 -6.5z" />
    <glyph glyph-name="uni1ECB" unicode="&#x1ecb;" horiz-adv-x="169" 
d="M59 0v470h50v-470h-50zM84 535q-19 0 -24.5 5.5t-5.5 20.5q0 16 5.5 21.5t24.5 5.5t24.5 -5.5t5.5 -21.5q0 -15 -5.5 -20.5t-24.5 -5.5zM84 -94q-18 0 -21 6.5t-3 17.5q0 14 3 20t20 6q18 0 21 -6t3 -20q0 -11 -3 -17.5t-20 -6.5z" />
    <glyph glyph-name="uni1ECC" unicode="&#x1ecc;" horiz-adv-x="379" 
d="M189 -3q-69 0 -104.5 25t-35.5 71v441q0 41 32.5 68t107.5 26t108.5 -27t33.5 -68v-439q0 -46 -35.5 -71.5t-106.5 -25.5zM189 39q48 0 70 19t22 48v416q0 25 -19.5 44.5t-74.5 19.5q-50 0 -69 -19t-19 -44v-418q0 -29 21.5 -47.5t68.5 -18.5zM189 -94q-18 0 -21 6.5
t-3 17.5q0 14 3 20t20 6q18 0 21 -6t3 -20q0 -11 -3 -17.5t-20 -6.5z" />
    <glyph glyph-name="uni1ECD" unicode="&#x1ecd;" horiz-adv-x="383" 
d="M185 -4q-56 0 -85 16t-39 41t-10 50v265q0 26 10 50.5t40.5 40.5t90.5 16q57 0 87 -15.5t41.5 -40t11.5 -51.5v-253q0 -32 -12 -59t-43.5 -43.5t-91.5 -16.5zM185 37q47 0 72 19.5t25 62.5v241q0 38 -24.5 57t-66.5 19q-41 0 -65.5 -19t-24.5 -57v-248q0 -38 24 -56.5
t60 -18.5zM191 -94q-18 0 -21 6.5t-3 17.5q0 14 3 20t20 6q18 0 21 -6t3 -20q0 -11 -3 -17.5t-20 -6.5z" />
    <glyph glyph-name="uni1ECE" unicode="&#x1ece;" horiz-adv-x="379" 
d="M189 -3q-69 0 -104.5 25t-35.5 71v441q0 41 32.5 68t107.5 26t108.5 -27t33.5 -68v-439q0 -46 -35.5 -71.5t-106.5 -25.5zM189 39q48 0 70 19t22 48v416q0 25 -19.5 44.5t-74.5 19.5q-50 0 -69 -19t-19 -44v-418q0 -29 21.5 -47.5t68.5 -18.5zM174 684q0 12 8 21
t18.5 16.5t18.5 16.5t8 23t-12 23.5t-27 9.5q-23 0 -33.5 -12.5t-13.5 -28.5l-23 9q3 27 23 42.5t53 15.5q30 0 48 -15.5t18 -38.5q0 -20 -8.5 -31.5t-19 -18.5t-18.5 -14t-8 -18h-32z" />
    <glyph glyph-name="uni1ECF" unicode="&#x1ecf;" horiz-adv-x="383" 
d="M185 -4q-56 0 -85 16t-39 41t-10 50v265q0 26 10 50.5t40.5 40.5t90.5 16q57 0 87 -15.5t41.5 -40t11.5 -51.5v-253q0 -32 -12 -59t-43.5 -43.5t-91.5 -16.5zM185 37q47 0 72 19.5t25 62.5v241q0 38 -24.5 57t-66.5 19q-41 0 -65.5 -19t-24.5 -57v-248q0 -38 24 -56.5
t60 -18.5zM176 534q0 12 8 21t18.5 16.5t18.5 16.5t8 23t-12 23.5t-27 9.5q-23 0 -33.5 -12.5t-13.5 -28.5l-23 9q3 27 23 42.5t53 15.5q30 0 48 -15.5t18 -38.5q0 -20 -8.5 -31.5t-19 -18.5t-18.5 -14t-8 -18h-32z" />
    <glyph glyph-name="uni1ED0" unicode="&#x1ed0;" horiz-adv-x="379" 
d="M189 -3q-69 0 -104.5 25t-35.5 71v441q0 41 32.5 68t107.5 26t108.5 -27t33.5 -68v-439q0 -46 -35.5 -71.5t-106.5 -25.5zM189 39q48 0 70 19t22 48v416q0 25 -19.5 44.5t-74.5 19.5q-50 0 -69 -19t-19 -44v-418q0 -29 21.5 -47.5t68.5 -18.5zM96 670l68 72h49l67 -72
h-35l-55 48l-56 -48h-38zM274 728l70 77h49l-85 -77h-34z" />
    <glyph glyph-name="uni1ED1" unicode="&#x1ed1;" horiz-adv-x="383" 
d="M185 -4q-56 0 -85 16t-39 41t-10 50v265q0 26 10 50.5t40.5 40.5t90.5 16q57 0 87 -15.5t41.5 -40t11.5 -51.5v-253q0 -32 -12 -59t-43.5 -43.5t-91.5 -16.5zM185 37q47 0 72 19.5t25 62.5v241q0 38 -24.5 57t-66.5 19q-41 0 -65.5 -19t-24.5 -57v-248q0 -38 24 -56.5
t60 -18.5zM81 534l85 89h50l84 -89h-35l-73 64l-74 -64h-37zM292 608l87 95h49l-103 -95h-33z" />
    <glyph glyph-name="uni1ED2" unicode="&#x1ed2;" horiz-adv-x="379" 
d="M189 -3q-69 0 -104.5 25t-35.5 71v441q0 41 32.5 68t107.5 26t108.5 -27t33.5 -68v-439q0 -46 -35.5 -71.5t-106.5 -25.5zM189 39q48 0 70 19t22 48v416q0 25 -19.5 44.5t-74.5 19.5q-50 0 -69 -19t-19 -44v-418q0 -29 21.5 -47.5t68.5 -18.5zM96 670l68 72h49l67 -72
h-35l-55 48l-56 -48h-38zM297 728l-85 77h47l72 -77h-34z" />
    <glyph glyph-name="uni1ED3" unicode="&#x1ed3;" horiz-adv-x="383" 
d="M185 -4q-56 0 -85 16t-39 41t-10 50v265q0 26 10 50.5t40.5 40.5t90.5 16q57 0 87 -15.5t41.5 -40t11.5 -51.5v-253q0 -32 -12 -59t-43.5 -43.5t-91.5 -16.5zM185 37q47 0 72 19.5t25 62.5v241q0 38 -24.5 57t-66.5 19q-41 0 -65.5 -19t-24.5 -57v-248q0 -38 24 -56.5
t60 -18.5zM81 534l85 89h50l84 -89h-35l-73 64l-74 -64h-37zM320 608l-103 95h50l86 -95h-33z" />
    <glyph glyph-name="uni1ED4" unicode="&#x1ed4;" horiz-adv-x="379" 
d="M189 -3q-69 0 -104.5 25t-35.5 71v441q0 41 32.5 68t107.5 26t108.5 -27t33.5 -68v-439q0 -46 -35.5 -71.5t-106.5 -25.5zM189 39q48 0 70 19t22 48v416q0 25 -19.5 44.5t-74.5 19.5q-50 0 -69 -19t-19 -44v-418q0 -29 21.5 -47.5t68.5 -18.5zM96 670l68 72h49l67 -72
h-35l-55 48l-56 -48h-38zM286 728q0 14 10.5 22t20.5 16.5t10 22.5q0 11 -8.5 18t-20.5 7q-15 0 -23.5 -9t-11.5 -21l-22 9q3 21 19.5 33t43.5 12q25 0 41 -11.5t16 -32.5q0 -16 -6.5 -25.5t-15 -15.5t-15 -11t-6.5 -14h-32z" />
    <glyph glyph-name="uni1ED5" unicode="&#x1ed5;" horiz-adv-x="383" 
d="M185 -4q-56 0 -85 16t-39 41t-10 50v265q0 26 10 50.5t40.5 40.5t90.5 16q57 0 87 -15.5t41.5 -40t11.5 -51.5v-253q0 -32 -12 -59t-43.5 -43.5t-91.5 -16.5zM185 37q47 0 72 19.5t25 62.5v241q0 38 -24.5 57t-66.5 19q-41 0 -65.5 -19t-24.5 -57v-248q0 -38 24 -56.5
t60 -18.5zM81 534l85 89h50l84 -89h-35l-73 64l-74 -64h-37zM309 608q0 12 8 21t18.5 16.5t18.5 16.5t8 23t-12 23.5t-27 9.5q-23 0 -33.5 -12.5t-13.5 -28.5l-23 9q3 27 23 42.5t53 15.5q30 0 48 -15.5t18 -38.5q0 -20 -8.5 -31.5t-19 -18.5t-18.5 -14t-8 -18h-32z" />
    <glyph glyph-name="uni1ED6" unicode="&#x1ed6;" horiz-adv-x="379" 
d="M189 -3q-69 0 -104.5 25t-35.5 71v441q0 41 32.5 68t107.5 26t108.5 -27t33.5 -68v-439q0 -46 -35.5 -71.5t-106.5 -25.5zM189 39q48 0 70 19t22 48v416q0 25 -19.5 44.5t-74.5 19.5q-50 0 -69 -19t-19 -44v-418q0 -29 21.5 -47.5t68.5 -18.5zM96 670l68 72h49l67 -72
h-35l-55 48l-56 -48h-38zM101 762q0 34 13.5 51t33.5 17q17 0 29.5 -8.5t23 -17t22.5 -8.5q15 0 20.5 11t5.5 22h25q0 -35 -14.5 -50t-32.5 -15q-16 0 -28 9t-22 17t-23 8q-12 0 -19 -9.5t-7 -26.5h-27z" />
    <glyph glyph-name="uni1ED7" unicode="&#x1ed7;" horiz-adv-x="383" 
d="M185 -4q-56 0 -85 16t-39 41t-10 50v265q0 26 10 50.5t40.5 40.5t90.5 16q57 0 87 -15.5t41.5 -40t11.5 -51.5v-253q0 -32 -12 -59t-43.5 -43.5t-91.5 -16.5zM185 37q47 0 72 19.5t25 62.5v241q0 38 -24.5 57t-66.5 19q-41 0 -65.5 -19t-24.5 -57v-248q0 -38 24 -56.5
t60 -18.5zM81 534l85 89h50l84 -89h-35l-73 64l-74 -64h-37zM88 648q0 41 15.5 59.5t38.5 18.5q21 0 35.5 -10.5t27.5 -21.5t28 -11q20 0 26.5 14t6.5 28h26q0 -41 -17 -57.5t-37 -16.5q-21 0 -35.5 11.5t-26.5 22t-28 10.5t-24.5 -12.5t-8.5 -34.5h-27z" />
    <glyph glyph-name="uni1ED8" unicode="&#x1ed8;" horiz-adv-x="379" 
d="M189 -3q-69 0 -104.5 25t-35.5 71v441q0 41 32.5 68t107.5 26t108.5 -27t33.5 -68v-439q0 -46 -35.5 -71.5t-106.5 -25.5zM189 39q48 0 70 19t22 48v416q0 25 -19.5 44.5t-74.5 19.5q-50 0 -69 -19t-19 -44v-418q0 -29 21.5 -47.5t68.5 -18.5zM189 -94q-18 0 -21 6.5
t-3 17.5q0 14 3 20t20 6q18 0 21 -6t3 -20q0 -11 -3 -17.5t-20 -6.5zM79 684l85 89h50l84 -89h-35l-73 64l-74 -64h-37z" />
    <glyph glyph-name="uni1ED9" unicode="&#x1ed9;" horiz-adv-x="383" 
d="M185 -4q-56 0 -85 16t-39 41t-10 50v265q0 26 10 50.5t40.5 40.5t90.5 16q57 0 87 -15.5t41.5 -40t11.5 -51.5v-253q0 -32 -12 -59t-43.5 -43.5t-91.5 -16.5zM185 37q47 0 72 19.5t25 62.5v241q0 38 -24.5 57t-66.5 19q-41 0 -65.5 -19t-24.5 -57v-248q0 -38 24 -56.5
t60 -18.5zM191 -94q-18 0 -21 6.5t-3 17.5q0 14 3 20t20 6q18 0 21 -6t3 -20q0 -11 -3 -17.5t-20 -6.5zM81 534l85 89h50l84 -89h-35l-73 64l-74 -64h-37z" />
    <glyph glyph-name="uni1EDA" unicode="&#x1eda;" horiz-adv-x="379" 
d="M189 -3q-69 0 -104.5 25t-35.5 71v441q0 41 32.5 68t107.5 26t108.5 -27t33.5 -68v-439q0 -46 -35.5 -71.5t-106.5 -25.5zM189 39q48 0 70 19t22 48v416q0 25 -19.5 44.5t-74.5 19.5q-50 0 -69 -19t-19 -44v-418q0 -29 21.5 -47.5t68.5 -18.5zM257 600l-3 20q33 0 45 12
t11 38h31q0 -37 -19 -53.5t-65 -16.5zM140 684l94 87h50l-111 -87h-33z" />
    <glyph glyph-name="uni1EDB" unicode="&#x1edb;" horiz-adv-x="383" 
d="M185 -4q-56 0 -85 16t-39 41t-10 50v265q0 26 10 50.5t40.5 40.5t90.5 16q57 0 87 -15.5t41.5 -40t11.5 -51.5v-253q0 -32 -12 -59t-43.5 -43.5t-91.5 -16.5zM185 37q47 0 72 19.5t25 62.5v241q0 38 -24.5 57t-66.5 19q-41 0 -65.5 -19t-24.5 -57v-248q0 -38 24 -56.5
t60 -18.5zM249 450l-3 20q33 0 45 12t11 38h31q0 -37 -19 -53.5t-65 -16.5zM142 534l87 95h49l-103 -95h-33z" />
    <glyph glyph-name="uni1EDC" unicode="&#x1edc;" horiz-adv-x="379" 
d="M189 -3q-69 0 -104.5 25t-35.5 71v441q0 41 32.5 68t107.5 26t108.5 -27t33.5 -68v-439q0 -46 -35.5 -71.5t-106.5 -25.5zM189 39q48 0 70 19t22 48v416q0 25 -19.5 44.5t-74.5 19.5q-50 0 -69 -19t-19 -44v-418q0 -29 21.5 -47.5t68.5 -18.5zM257 600l-3 20q33 0 45 12
t11 38h31q0 -37 -19 -53.5t-65 -16.5zM189 684l-111 87h50l94 -87h-33z" />
    <glyph glyph-name="uni1EDD" unicode="&#x1edd;" horiz-adv-x="383" 
d="M185 -4q-56 0 -85 16t-39 41t-10 50v265q0 26 10 50.5t40.5 40.5t90.5 16q57 0 87 -15.5t41.5 -40t11.5 -51.5v-253q0 -32 -12 -59t-43.5 -43.5t-91.5 -16.5zM185 37q47 0 72 19.5t25 62.5v241q0 38 -24.5 57t-66.5 19q-41 0 -65.5 -19t-24.5 -57v-248q0 -38 24 -56.5
t60 -18.5zM249 450l-3 20q33 0 45 12t11 38h31q0 -37 -19 -53.5t-65 -16.5zM191 534l-103 95h50l86 -95h-33z" />
    <glyph glyph-name="uni1EDE" unicode="&#x1ede;" horiz-adv-x="379" 
d="M189 -3q-69 0 -104.5 25t-35.5 71v441q0 41 32.5 68t107.5 26t108.5 -27t33.5 -68v-439q0 -46 -35.5 -71.5t-106.5 -25.5zM189 39q48 0 70 19t22 48v416q0 25 -19.5 44.5t-74.5 19.5q-50 0 -69 -19t-19 -44v-418q0 -29 21.5 -47.5t68.5 -18.5zM257 600l-3 20q33 0 45 12
t11 38h31q0 -37 -19 -53.5t-65 -16.5zM174 684q0 12 8 21t18.5 16.5t18.5 16.5t8 23t-12 23.5t-27 9.5q-23 0 -33.5 -12.5t-13.5 -28.5l-23 9q3 27 23 42.5t53 15.5q30 0 48 -15.5t18 -38.5q0 -20 -8.5 -31.5t-19 -18.5t-18.5 -14t-8 -18h-32z" />
    <glyph glyph-name="uni1EDF" unicode="&#x1edf;" horiz-adv-x="383" 
d="M185 -4q-56 0 -85 16t-39 41t-10 50v265q0 26 10 50.5t40.5 40.5t90.5 16q57 0 87 -15.5t41.5 -40t11.5 -51.5v-253q0 -32 -12 -59t-43.5 -43.5t-91.5 -16.5zM185 37q47 0 72 19.5t25 62.5v241q0 38 -24.5 57t-66.5 19q-41 0 -65.5 -19t-24.5 -57v-248q0 -38 24 -56.5
t60 -18.5zM249 450l-3 20q33 0 45 12t11 38h31q0 -37 -19 -53.5t-65 -16.5zM176 534q0 12 8 21t18.5 16.5t18.5 16.5t8 23t-12 23.5t-27 9.5q-23 0 -33.5 -12.5t-13.5 -28.5l-23 9q3 27 23 42.5t53 15.5q30 0 48 -15.5t18 -38.5q0 -20 -8.5 -31.5t-19 -18.5t-18.5 -14
t-8 -18h-32z" />
    <glyph glyph-name="uni1EE0" unicode="&#x1ee0;" horiz-adv-x="379" 
d="M189 -3q-69 0 -104.5 25t-35.5 71v441q0 41 32.5 68t107.5 26t108.5 -27t33.5 -68v-439q0 -46 -35.5 -71.5t-106.5 -25.5zM189 39q48 0 70 19t22 48v416q0 25 -19.5 44.5t-74.5 19.5q-50 0 -69 -19t-19 -44v-418q0 -29 21.5 -47.5t68.5 -18.5zM257 600l-3 20q33 0 45 12
t11 38h31q0 -37 -19 -53.5t-65 -16.5zM88 679q0 41 15.5 59.5t38.5 18.5q21 0 35.5 -10.5t27.5 -21.5t28 -11q20 0 26.5 14t6.5 28h26q0 -41 -17 -57.5t-37 -16.5q-21 0 -35.5 11.5t-26.5 22t-28 10.5t-24.5 -12.5t-8.5 -34.5h-27z" />
    <glyph glyph-name="uni1EE1" unicode="&#x1ee1;" horiz-adv-x="383" 
d="M185 -4q-56 0 -85 16t-39 41t-10 50v265q0 26 10 50.5t40.5 40.5t90.5 16q57 0 87 -15.5t41.5 -40t11.5 -51.5v-253q0 -32 -12 -59t-43.5 -43.5t-91.5 -16.5zM185 37q47 0 72 19.5t25 62.5v241q0 38 -24.5 57t-66.5 19q-41 0 -65.5 -19t-24.5 -57v-248q0 -38 24 -56.5
t60 -18.5zM249 450l-3 20q33 0 45 12t11 38h31q0 -37 -19 -53.5t-65 -16.5zM89 529q0 41 15.5 59.5t38.5 18.5q21 0 35.5 -10.5t27.5 -21.5t28 -11q20 0 26.5 14t6.5 28h26q0 -41 -17 -57.5t-37 -16.5q-21 0 -35.5 11.5t-26.5 22t-28 10.5t-24.5 -12.5t-8.5 -34.5h-27z" />
    <glyph glyph-name="uni1EE2" unicode="&#x1ee2;" horiz-adv-x="379" 
d="M189 -3q-69 0 -104.5 25t-35.5 71v441q0 41 32.5 68t107.5 26t108.5 -27t33.5 -68v-439q0 -46 -35.5 -71.5t-106.5 -25.5zM189 39q48 0 70 19t22 48v416q0 25 -19.5 44.5t-74.5 19.5q-50 0 -69 -19t-19 -44v-418q0 -29 21.5 -47.5t68.5 -18.5zM257 600l-3 20q33 0 45 12
t11 38h31q0 -37 -19 -53.5t-65 -16.5zM189 -94q-18 0 -21 6.5t-3 17.5q0 14 3 20t20 6q18 0 21 -6t3 -20q0 -11 -3 -17.5t-20 -6.5z" />
    <glyph glyph-name="uni1EE3" unicode="&#x1ee3;" horiz-adv-x="383" 
d="M185 -4q-56 0 -85 16t-39 41t-10 50v265q0 26 10 50.5t40.5 40.5t90.5 16q57 0 87 -15.5t41.5 -40t11.5 -51.5v-253q0 -32 -12 -59t-43.5 -43.5t-91.5 -16.5zM185 37q47 0 72 19.5t25 62.5v241q0 38 -24.5 57t-66.5 19q-41 0 -65.5 -19t-24.5 -57v-248q0 -38 24 -56.5
t60 -18.5zM249 450l-3 20q33 0 45 12t11 38h31q0 -37 -19 -53.5t-65 -16.5zM191 -94q-18 0 -21 6.5t-3 17.5q0 14 3 20t20 6q18 0 21 -6t3 -20q0 -11 -3 -17.5t-20 -6.5z" />
    <glyph glyph-name="uni1EE4" unicode="&#x1ee4;" horiz-adv-x="389" 
d="M194 -5q-38 0 -70 9t-51 29.5t-19 55.5v531h51v-514q0 -18 7.5 -34t26.5 -26t55 -10q39 0 58 10t25.5 26t6.5 34v514h51v-531q0 -35 -18 -55.5t-50 -29.5t-73 -9zM194 -94q-18 0 -21 6.5t-3 17.5q0 14 3 20t20 6q18 0 21 -6t3 -20q0 -11 -3 -17.5t-20 -6.5z" />
    <glyph glyph-name="uni1EE5" unicode="&#x1ee5;" 
d="M175 0q-51 0 -77 15t-34.5 37.5t-8.5 44.5v373h50v-353q0 -41 24.5 -58.5t65.5 -17.5h91v429h50v-470h-161zM197 -94q-18 0 -21 6.5t-3 17.5q0 14 3 20t20 6q18 0 21 -6t3 -20q0 -11 -3 -17.5t-20 -6.5z" />
    <glyph glyph-name="uni1EE6" unicode="&#x1ee6;" horiz-adv-x="389" 
d="M194 -5q-38 0 -70 9t-51 29.5t-19 55.5v531h51v-514q0 -18 7.5 -34t26.5 -26t55 -10q39 0 58 10t25.5 26t6.5 34v514h51v-531q0 -35 -18 -55.5t-50 -29.5t-73 -9zM179 684q0 12 8 21t18.5 16.5t18.5 16.5t8 23t-12 23.5t-27 9.5q-23 0 -33.5 -12.5t-13.5 -28.5l-23 9
q3 27 23 42.5t53 15.5q30 0 48 -15.5t18 -38.5q0 -20 -8.5 -31.5t-19 -18.5t-18.5 -14t-8 -18h-32z" />
    <glyph glyph-name="uni1EE7" unicode="&#x1ee7;" 
d="M175 0q-51 0 -77 15t-34.5 37.5t-8.5 44.5v373h50v-353q0 -41 24.5 -58.5t65.5 -17.5h91v429h50v-470h-161zM182 534q0 12 8 21t18.5 16.5t18.5 16.5t8 23t-12 23.5t-27 9.5q-23 0 -33.5 -12.5t-13.5 -28.5l-23 9q3 27 23 42.5t53 15.5q30 0 48 -15.5t18 -38.5
q0 -20 -8.5 -31.5t-19 -18.5t-18.5 -14t-8 -18h-32z" />
    <glyph glyph-name="uni1EE8" unicode="&#x1ee8;" horiz-adv-x="389" 
d="M194 -5q-38 0 -70 9t-51 29.5t-19 55.5v531h51v-514q0 -18 7.5 -34t26.5 -26t55 -10q39 0 58 10t25.5 26t6.5 34v514h51v-531q0 -35 -18 -55.5t-50 -29.5t-73 -9zM309 600l-3 20q33 0 45 12t11 38h31q0 -37 -19 -53.5t-65 -16.5zM145 684l94 87h50l-111 -87h-33z" />
    <glyph glyph-name="uni1EE9" unicode="&#x1ee9;" 
d="M175 0q-51 0 -77 15t-34.5 37.5t-8.5 44.5v373h50v-353q0 -41 24.5 -58.5t65.5 -17.5h91v429h50v-470h-161zM310 450l-3 20q33 0 45 12t11 38h31q0 -37 -19 -53.5t-65 -16.5zM148 534l87 95h49l-103 -95h-33z" />
    <glyph glyph-name="uni1EEA" unicode="&#x1eea;" horiz-adv-x="389" 
d="M194 -5q-38 0 -70 9t-51 29.5t-19 55.5v531h51v-514q0 -18 7.5 -34t26.5 -26t55 -10q39 0 58 10t25.5 26t6.5 34v514h51v-531q0 -35 -18 -55.5t-50 -29.5t-73 -9zM309 600l-3 20q33 0 45 12t11 38h31q0 -37 -19 -53.5t-65 -16.5zM194 684l-111 87h50l94 -87h-33z" />
    <glyph glyph-name="uni1EEB" unicode="&#x1eeb;" 
d="M175 0q-51 0 -77 15t-34.5 37.5t-8.5 44.5v373h50v-353q0 -41 24.5 -58.5t65.5 -17.5h91v429h50v-470h-161zM310 450l-3 20q33 0 45 12t11 38h31q0 -37 -19 -53.5t-65 -16.5zM197 534l-103 95h50l86 -95h-33z" />
    <glyph glyph-name="uni1EEC" unicode="&#x1eec;" horiz-adv-x="389" 
d="M194 -5q-38 0 -70 9t-51 29.5t-19 55.5v531h51v-514q0 -18 7.5 -34t26.5 -26t55 -10q39 0 58 10t25.5 26t6.5 34v514h51v-531q0 -35 -18 -55.5t-50 -29.5t-73 -9zM309 600l-3 20q33 0 45 12t11 38h31q0 -37 -19 -53.5t-65 -16.5zM179 684q0 12 8 21t18.5 16.5t18.5 16.5
t8 23t-12 23.5t-27 9.5q-23 0 -33.5 -12.5t-13.5 -28.5l-23 9q3 27 23 42.5t53 15.5q30 0 48 -15.5t18 -38.5q0 -20 -8.5 -31.5t-19 -18.5t-18.5 -14t-8 -18h-32z" />
    <glyph glyph-name="uni1EED" unicode="&#x1eed;" 
d="M175 0q-51 0 -77 15t-34.5 37.5t-8.5 44.5v373h50v-353q0 -41 24.5 -58.5t65.5 -17.5h91v429h50v-470h-161zM310 450l-3 20q33 0 45 12t11 38h31q0 -37 -19 -53.5t-65 -16.5zM182 534q0 12 8 21t18.5 16.5t18.5 16.5t8 23t-12 23.5t-27 9.5q-23 0 -33.5 -12.5
t-13.5 -28.5l-23 9q3 27 23 42.5t53 15.5q30 0 48 -15.5t18 -38.5q0 -20 -8.5 -31.5t-19 -18.5t-18.5 -14t-8 -18h-32z" />
    <glyph glyph-name="uni1EEE" unicode="&#x1eee;" horiz-adv-x="389" 
d="M194 -5q-38 0 -70 9t-51 29.5t-19 55.5v531h51v-514q0 -18 7.5 -34t26.5 -26t55 -10q39 0 58 10t25.5 26t6.5 34v514h51v-531q0 -35 -18 -55.5t-50 -29.5t-73 -9zM309 600l-3 20q33 0 45 12t11 38h31q0 -37 -19 -53.5t-65 -16.5zM93 679q0 41 15.5 59.5t38.5 18.5
q21 0 35.5 -10.5t27.5 -21.5t28 -11q20 0 26.5 14t6.5 28h26q0 -41 -17 -57.5t-37 -16.5q-21 0 -35.5 11.5t-26.5 22t-28 10.5t-24.5 -12.5t-8.5 -34.5h-27z" />
    <glyph glyph-name="uni1EEF" unicode="&#x1eef;" 
d="M175 0q-51 0 -77 15t-34.5 37.5t-8.5 44.5v373h50v-353q0 -41 24.5 -58.5t65.5 -17.5h91v429h50v-470h-161zM310 450l-3 20q33 0 45 12t11 38h31q0 -37 -19 -53.5t-65 -16.5zM96 529q0 41 15.5 59.5t38.5 18.5q21 0 35.5 -10.5t27.5 -21.5t28 -11q20 0 26.5 14t6.5 28h26
q0 -41 -17 -57.5t-37 -16.5q-21 0 -35.5 11.5t-26.5 22t-28 10.5t-24.5 -12.5t-8.5 -34.5h-27z" />
    <glyph glyph-name="uni1EF0" unicode="&#x1ef0;" horiz-adv-x="389" 
d="M194 -5q-38 0 -70 9t-51 29.5t-19 55.5v531h51v-514q0 -18 7.5 -34t26.5 -26t55 -10q39 0 58 10t25.5 26t6.5 34v514h51v-531q0 -35 -18 -55.5t-50 -29.5t-73 -9zM309 600l-3 20q33 0 45 12t11 38h31q0 -37 -19 -53.5t-65 -16.5zM194 -94q-18 0 -21 6.5t-3 17.5
q0 14 3 20t20 6q18 0 21 -6t3 -20q0 -11 -3 -17.5t-20 -6.5z" />
    <glyph glyph-name="uni1EF1" unicode="&#x1ef1;" 
d="M175 0q-51 0 -77 15t-34.5 37.5t-8.5 44.5v373h50v-353q0 -41 24.5 -58.5t65.5 -17.5h91v429h50v-470h-161zM310 450l-3 20q33 0 45 12t11 38h31q0 -37 -19 -53.5t-65 -16.5zM197 -94q-18 0 -21 6.5t-3 17.5q0 14 3 20t20 6q18 0 21 -6t3 -20q0 -11 -3 -17.5t-20 -6.5z
" />
    <glyph glyph-name="Ygrave" unicode="&#x1ef2;" horiz-adv-x="345" 
d="M147 0v253l-136 367h47l113 -301l2 -14h1l1 14l111 301h48l-137 -367v-253h-50zM171 684l-111 87h50l94 -87h-33z" />
    <glyph glyph-name="ygrave" unicode="&#x1ef3;" horiz-adv-x="327" 
d="M-8 -170l5 33h37q36 0 58 16.5t33 65.5l16 61l-129 464h49l102 -385l1 -12h-3l1 12l102 385h50l-148 -537q-16 -56 -41 -79.5t-81 -23.5h-52zM165 534l-103 95h50l86 -95h-33z" />
    <glyph glyph-name="uni1EF4" unicode="&#x1ef4;" horiz-adv-x="345" 
d="M147 0v253l-136 367h47l113 -301l2 -14h1l1 14l111 301h48l-137 -367v-253h-50zM171 -94q-18 0 -21 6.5t-3 17.5q0 14 3 20t20 6q18 0 21 -6t3 -20q0 -11 -3 -17.5t-20 -6.5z" />
    <glyph glyph-name="uni1EF5" unicode="&#x1ef5;" horiz-adv-x="327" 
d="M-8 -170l5 33h37q36 0 58 16.5t33 65.5l16 61l-129 464h49l102 -385l1 -12h-3l1 12l102 385h50l-148 -537q-16 -56 -41 -79.5t-81 -23.5h-52zM258 -94q-18 0 -21 6.5t-3 17.5q0 14 3 20t20 6q18 0 21 -6t3 -20q0 -11 -3 -17.5t-20 -6.5z" />
    <glyph glyph-name="uni1EF6" unicode="&#x1ef6;" horiz-adv-x="345" 
d="M147 0v253l-136 367h47l113 -301l2 -14h1l1 14l111 301h48l-137 -367v-253h-50zM157 684q0 12 8 21t18.5 16.5t18.5 16.5t8 23t-12 23.5t-27 9.5q-23 0 -33.5 -12.5t-13.5 -28.5l-23 9q3 27 23 42.5t53 15.5q30 0 48 -15.5t18 -38.5q0 -20 -8.5 -31.5t-19 -18.5
t-18.5 -14t-8 -18h-32z" />
    <glyph glyph-name="uni1EF7" unicode="&#x1ef7;" horiz-adv-x="327" 
d="M-8 -170l5 33h37q36 0 58 16.5t33 65.5l16 61l-129 464h49l102 -385l1 -12h-3l1 12l102 385h50l-148 -537q-16 -56 -41 -79.5t-81 -23.5h-52zM150 534q0 12 8 21t18.5 16.5t18.5 16.5t8 23t-12 23.5t-27 9.5q-23 0 -33.5 -12.5t-13.5 -28.5l-23 9q3 27 23 42.5t53 15.5
q30 0 48 -15.5t18 -38.5q0 -20 -8.5 -31.5t-19 -18.5t-18.5 -14t-8 -18h-32z" />
    <glyph glyph-name="uni1EF8" unicode="&#x1ef8;" horiz-adv-x="345" 
d="M147 0v253l-136 367h47l113 -301l2 -14h1l1 14l111 301h48l-137 -367v-253h-50zM70 679q0 41 15.5 59.5t38.5 18.5q21 0 35.5 -10.5t27.5 -21.5t28 -11q20 0 26.5 14t6.5 28h26q0 -41 -17 -57.5t-37 -16.5q-21 0 -35.5 11.5t-26.5 22t-28 10.5t-24.5 -12.5t-8.5 -34.5
h-27z" />
    <glyph glyph-name="uni1EF9" unicode="&#x1ef9;" horiz-adv-x="327" 
d="M-8 -170l5 33h37q36 0 58 16.5t33 65.5l16 61l-129 464h49l102 -385l1 -12h-3l1 12l102 385h50l-148 -537q-16 -56 -41 -79.5t-81 -23.5h-52zM63 529q0 41 15.5 59.5t38.5 18.5q21 0 35.5 -10.5t27.5 -21.5t28 -11q20 0 26.5 14t6.5 28h26q0 -41 -17 -57.5t-37 -16.5
q-21 0 -35.5 11.5t-26.5 22t-28 10.5t-24.5 -12.5t-8.5 -34.5h-27z" />
    <glyph glyph-name="uni2010" unicode="&#x2010;" horiz-adv-x="390" 
d="M65 283v41h261v-41h-261z" />
    <glyph glyph-name="endash" unicode="&#x2013;" horiz-adv-x="456" 
d="M65 283v41h327v-41h-327z" />
    <glyph glyph-name="emdash" unicode="&#x2014;" horiz-adv-x="635" 
d="M65 283v41h506v-41h-506z" />
    <glyph glyph-name="quoteleft" unicode="&#x2018;" horiz-adv-x="197" 
d="M128 634q-14 -29 -23 -57.5t-9 -57.5q15 0 18 -6t3 -15q0 -8 -1 -14.5t-6.5 -9.5t-18.5 -3q-17 0 -20.5 6.5t-3.5 19.5q0 23 5.5 49t13.5 49.5t16 38.5h26z" />
    <glyph glyph-name="quoteright" unicode="&#x2019;" horiz-adv-x="197" 
d="M68 475q16 30 24 58t8 57q-14 0 -17 6t-3 15t1 15t6.5 9t18.5 3q17 0 20.5 -6.5t3.5 -19.5q0 -23 -5.5 -49t-13 -49.5t-17.5 -38.5h-26z" />
    <glyph glyph-name="quotesinglbase" unicode="&#x201a;" horiz-adv-x="189" 
d="M77 -133l-9 214h52l-7 -214h-36z" />
    <glyph glyph-name="quotedblleft" unicode="&#x201c;" horiz-adv-x="297" 
d="M229 634q-15 -29 -24 -57.5t-9 -57.5q15 0 18 -6t3 -15q0 -8 -1 -14.5t-6 -9.5t-19 -3q-17 0 -20.5 6.5t-3.5 19.5q0 23 5.5 49t13.5 49.5t17 38.5h26zM128 634q-14 -29 -23 -57.5t-9 -57.5q15 0 18 -6t3 -15q0 -8 -1 -14.5t-6.5 -9.5t-18.5 -3q-17 0 -20.5 6.5
t-3.5 19.5q0 23 5.5 49t13.5 49.5t16 38.5h26z" />
    <glyph glyph-name="quotedblright" unicode="&#x201d;" horiz-adv-x="298" 
d="M68 475q16 30 24 58t8 57q-14 0 -17 6t-3 15t1 15t6.5 9t18.5 3q17 0 20.5 -6.5t3.5 -19.5q0 -23 -5.5 -49t-13 -49.5t-17.5 -38.5h-26zM169 475q16 30 24 58t8 57q-14 0 -17 6t-3 15t1 15t6.5 9t18.5 3q17 0 20.5 -6.5t3.5 -19.5q0 -23 -5.5 -49t-13 -49.5t-17.5 -38.5
h-26z" />
    <glyph glyph-name="quotedblbase" unicode="&#x201e;" horiz-adv-x="350" 
d="M208 -133l22 214h52l-39 -214h-35zM68 -133l22 214h52l-38 -214h-36z" />
    <glyph glyph-name="dagger" unicode="&#x2020;" horiz-adv-x="329" 
d="M143 649h42v-722h-42v722zM34 382v41h261v-41h-261z" />
    <glyph glyph-name="daggerdbl" unicode="&#x2021;" horiz-adv-x="329" 
d="M143 649h42v-722h-42v722zM40 294v35h249v-35h-249zM40 442v36h249v-36h-249z" />
    <glyph glyph-name="bullet" unicode="&#x2022;" horiz-adv-x="305" 
d="M151 176q-39 0 -66 28t-27 69q0 40 27.5 66.5t66.5 26.5t66.5 -27.5t27.5 -67.5t-27 -67.5t-68 -27.5z" />
    <glyph glyph-name="ellipsis" unicode="&#x2026;" horiz-adv-x="406" 
d="M76 4q-18 0 -21 6t-3 18q0 13 3 19.5t21 6.5t21.5 -6.5t3.5 -19.5q0 -12 -4 -18t-21 -6zM198 4q-18 0 -21 6t-3 18q0 13 3 19.5t21 6.5t21.5 -6.5t3.5 -19.5q0 -12 -4 -18t-21 -6zM317 4q-18 0 -21 6t-3 18q0 13 3 19.5t21 6.5t21.5 -6.5t3.5 -19.5q0 -12 -4 -18t-21 -6z
" />
    <glyph glyph-name="perthousand" unicode="&#x2030;" horiz-adv-x="760" 
d="M66 -44l340 674h36l-342 -674h-34zM403 7q-35 0 -53 8.5t-25 21.5t-7 26v140q0 14 7 27.5t26.5 22t57.5 8.5q36 0 55 -8.5t26 -21t7 -27.5v-134q0 -17 -7 -31.5t-27 -23t-60 -8.5zM403 32q32 0 48 8.5t16 32.5v125q0 22 -15.5 30.5t-42.5 8.5q-28 0 -44 -8.5t-16 -30.5
v-129q0 -21 15 -29t39 -8zM125 365q-35 0 -53.5 8.5t-25 22t-6.5 26.5v141q0 14 6.5 27t26 21.5t57.5 8.5q36 0 55.5 -8.5t26.5 -21.5t7 -27v-134q0 -17 -7.5 -31.5t-27.5 -23.5t-59 -9zM125 391q32 0 48 9t16 31v127q0 20 -15.5 28.5t-43.5 8.5q-27 0 -43.5 -8.5
t-16.5 -28.5v-130q0 -20 15.5 -28.5t39.5 -8.5zM626 7q-35 0 -53.5 8.5t-25.5 21.5t-7 26v140q0 14 7 27.5t26.5 22t58.5 8.5q36 0 55 -8.5t26 -21t7 -27.5v-134q0 -17 -7.5 -31.5t-27.5 -23t-59 -8.5zM626 32q32 0 48 8.5t16 32.5v125q0 22 -15.5 30.5t-43.5 8.5
t-43.5 -8.5t-15.5 -30.5v-129q0 -21 15 -29t39 -8z" />
    <glyph glyph-name="minute" unicode="&#x2032;" horiz-adv-x="189" 
d="M77 423l-9 214h52l-7 -214h-36z" />
    <glyph glyph-name="second" unicode="&#x2033;" horiz-adv-x="331" 
d="M219 423l-9 214h53l-9 -214h-35zM77 423l-9 214h52l-7 -214h-36z" />
    <glyph glyph-name="guilsinglleft" unicode="&#x2039;" horiz-adv-x="315" 
d="M197 52l-129 185l134 193h45l-133 -193l128 -185h-45z" />
    <glyph glyph-name="guilsinglright" unicode="&#x203a;" horiz-adv-x="315" 
d="M73 52l128 185l-133 193h46l133 -193l-129 -185h-45z" />
    <glyph glyph-name="fraction" unicode="&#x2044;" horiz-adv-x="157" 
d="M-123 -44l381 674h43l-383 -674h-41z" />
    <glyph glyph-name="uni2052" unicode="&#x2052;" horiz-adv-x="595" 
d="M96 367q-24 0 -39.5 17t-15.5 42q0 23 16 39t39 16q24 0 40 -17t16 -39q0 -25 -16 -41.5t-40 -16.5zM478 163q-24 0 -39.5 17t-15.5 42q0 23 16 39t39 16q24 0 40 -17t16 -39q0 -25 -16 -41.5t-40 -16.5zM108 13l333 630l24 -4l-335 -629z" />
    <glyph glyph-name="uni2074" unicode="&#x2074;" horiz-adv-x="291" 
d="M184 228v80h-161l-18 30l172 293h57l-1 -293h56l-7 -30h-48v-80h-50zM52 338h133v236z" />
    <glyph glyph-name="colonmonetary" unicode="&#x20a1;" horiz-adv-x="344" 
d="M172 -6q-69 0 -104 26t-35 78v418q0 56 32 84t104 28q73 0 108 -27t34 -86v-132l-42 -8v129q0 37 -19.5 59t-78.5 22q-56 0 -74.5 -22.5t-18.5 -57.5v-397q0 -31 21.5 -51.5t71.5 -20.5q54 0 76 20.5t22 52.5v122l42 8v-141q0 -52 -36 -78t-103 -26zM106 -85l50 765h16
l-51 -765h-15zM171 -85l50 765h16l-50 -765h-16z" />
    <glyph glyph-name="franc" unicode="&#x20a3;" horiz-adv-x="374" 
d="M0 158v32h226v-32h-226zM72 620h276v-41h-225v-210h209l-8 -40h-201v-329h-51v620z" />
    <glyph glyph-name="lira" unicode="&#x20a4;" horiz-adv-x="431" 
d="M293 -2q-20 0 -53.5 4.5t-69.5 8.5t-62 4q-19 0 -33.5 -2.5t-22.5 -8.5v20q42 44 59 95t17 129q0 54 -11 100t-22 85.5t-11 72.5q0 65 36.5 94t95.5 29q62 0 97.5 -30.5t35.5 -104.5v-43h-52v37q0 63 -24 86t-59 23q-36 0 -58 -22.5t-22 -63.5q0 -33 10.5 -72t21.5 -86.5
t11 -107.5q0 -80 -18 -127t-48 -71h11h12q20 0 43 -3.5t45 -7t40 -3.5q27 0 45.5 16.5t18.5 64.5v59l54 10v-62q0 -34 -5.5 -62t-24.5 -44.5t-57 -16.5zM53 199l6 25h213l-7 -25h-212zM52 280l6 25h217l-6 -25h-217z" />
    <glyph glyph-name="uni20A6" unicode="&#x20a6;" horiz-adv-x="408" 
d="M57 0v620h52l187 -518v518h52v-620h-55l-185 492v-492h-51zM20 258l5 19h364l-4 -19h-365zM20 338l5 18h364l-4 -18h-365z" />
    <glyph glyph-name="peseta" unicode="&#x20a7;" horiz-adv-x="467" 
d="M81 620h188q43 0 63.5 -10.5t27 -32t6.5 -53.5v-156q0 -36 -6 -67.5t-31 -51t-82 -19.5h-114v-230h-52v620zM235 271q39 0 59.5 20.5t20.5 67.5v145q0 43 -14.5 59t-54.5 16h-113v-308h102zM19 405v23h438v-23h-438z" />
    <glyph glyph-name="uni20A9" unicode="&#x20a9;" horiz-adv-x="610" 
d="M163 0l-118 620h51l94 -517l1 -14h1v14l96 485h40l88 -485l1 -14h1v14l91 517h52l-116 -620h-52l-84 467v11h-1l-1 -11l-92 -467h-52zM18 388l6 19h572l-6 -19h-572zM18 459l6 19h572l-6 -19h-572z" />
    <glyph glyph-name="dong" unicode="&#x20ab;" horiz-adv-x="360" 
d="M89 -75v26h233v-26h-233zM131 0q-31 0 -48 6.5t-22.5 29.5t-5.5 70v273q0 37 8 57t29.5 27t63.5 7h130v159h50v-629h-205zM286 41v388h-125q-35 0 -45.5 -10t-10.5 -45v-275q0 -38 10 -48t38 -10h133zM142 526v27h232v-27h-232z" />
    <glyph glyph-name="Euro" unicode="&#x20ac;" horiz-adv-x="390" 
d="M212 -6q-68 0 -103 26t-35 78v418q0 56 32 84t103 28q75 0 109.5 -27t34.5 -86v-93l-51 -7v89q0 37 -18.5 59t-71.5 22q-52 0 -69.5 -22.5t-17.5 -57.5v-397q0 -31 20.5 -51.5t66.5 -20.5q47 0 68.5 20.5t21.5 52.5v86l51 8v-105q0 -52 -37 -78t-104 -26zM19 242v24h226
l-14 -24h-212zM19 340v24h282l-14 -24h-268z" />
    <glyph glyph-name="uni20AD" unicode="&#x20ad;" horiz-adv-x="384" 
d="M2 319v35h367v-35h-367zM318 -9l-180 343l169 291l39 -24l-155 -264l173 -323zM70 620h51v-620h-51v620z" />
    <glyph glyph-name="uni20B1" unicode="&#x20b1;" horiz-adv-x="467" 
d="M81 620h188q43 0 63.5 -10.5t27 -32t6.5 -53.5v-156q0 -36 -6 -67.5t-31 -51t-82 -19.5h-114v-230h-52v620zM19 388v19h438v-19h-438zM235 261q39 0 59.5 20t20.5 68v155q0 32 -6 49.5t-21 24.5t-42 7h-113v-324h102zM19 459v20h438v-20h-438z" />
    <glyph glyph-name="uni20B2" unicode="&#x20b2;" horiz-adv-x="347" 
d="M178 -3q-47 0 -79.5 7.5t-49 28t-16.5 57.5v441q0 56 37.5 74.5t105.5 18.5t103.5 -19t35.5 -75v-106l-43 -5v102q0 38 -23.5 50t-70.5 12q-48 0 -74 -11t-26 -50v-425q0 -26 12.5 -38.5t35.5 -16t52 -3.5q27 0 47.5 3.5t31 16t10.5 38.5v193h-96l6 43h138v-243
q0 -37 -16 -57.5t-46.5 -28t-74.5 -7.5zM142 -85l49 765h16l-50 -765h-15z" />
    <glyph glyph-name="uni20B5" unicode="&#x20b5;" horiz-adv-x="344" 
d="M172 -6q-69 0 -104 26t-35 78v418q0 56 32 84t104 28q73 0 108 -27t34 -86v-132l-44 -8v129q0 37 -19 59t-77 22q-53 0 -71 -22.5t-18 -57.5v-397q0 -31 20.5 -51.5t68.5 -20.5q52 0 74 20.5t22 52.5v122l44 8v-141q0 -52 -36 -78t-103 -26zM142 -85l50 765h15l-48 -765
h-17z" />
    <glyph glyph-name="uni20B9" unicode="&#x20b9;" horiz-adv-x="502" 
d="M100 230v29h134q38 0 59.5 19.5t21.5 67.5v170q0 38 -15 53.5t-57 15.5h-224v35h250q43 0 63.5 -10.5t27 -32t6.5 -53.5v-156q0 -36 -6 -67.5t-31 -51t-82 -19.5h-147zM332 -7l-147 255l45 4l142 -236zM19 412l7 30h438l-7 -30h-438z" />
    <glyph glyph-name="uni20BA" unicode="&#x20ba;" horiz-adv-x="423" 
d="M136 5q-20 0 -32.5 10.5t-12.5 39.5v565h51v-541q0 -18 7 -25t20 -7h41q45 1 71.5 7.5t38.5 25t12 53.5v228l51 20v-255q0 -71 -41.5 -96t-130.5 -25h-75zM12 211v29l238 54v-30zM12 340v29l238 54v-30z" />
    <glyph glyph-name="uni20BC" unicode="&#x20bc;" horiz-adv-x="450" 
d="M34 7l30 531q3 53 46 73.5t115 20.5q75 0 116.5 -20.5t44.5 -73.5l30 -531h-51l-30 514q-1 18 -8.5 34t-30.5 26t-71 10q-46 0 -69.5 -10t-31 -26t-8.5 -34l-30 -514h-52zM215 530l7 154l14 -386l-9 -154z" />
    <glyph glyph-name="uni20BD" unicode="&#x20bd;" horiz-adv-x="475" 
d="M81 620h188q43 0 63.5 -10.5t27 -32t6.5 -53.5v-156q0 -36 -6 -67.5t-31 -51t-82 -19.5h-114v-230h-52v620zM19 230v29h103v-29h-103zM235 261q39 0 59.5 20t20.5 68v155q0 32 -6 49.5t-21 24.5t-42 7h-113v-324h102zM19 412v30h438v-30h-438z" />
    <glyph glyph-name="uni2116" unicode="&#x2116;" horiz-adv-x="789" 
d="M58 0v620h52l185 -508l1 -5l1 -1v514h51v-620h-54l-182 488l-3 7v0v-495h-51zM591 -4q-56 0 -85 16t-39 41t-10 50v265q0 26 10 50.5t40.5 40.5t90.5 16q57 0 87 -15.5t41.5 -40t11.5 -51.5v-253q0 -32 -12 -59t-43.5 -43.5t-91.5 -16.5zM591 37q47 0 72 19.5t25 62.5
v241q0 38 -24.5 57t-66.5 19q-41 0 -65.5 -19t-24.5 -57v-248q0 -38 24 -56.5t60 -18.5z" />
    <glyph glyph-name="trademark" unicode="&#x2122;" horiz-adv-x="511" 
d="M219 241v372h41l89 -294h1l89 294h43v-372h-33v304l-4 -14l-81 -252h-30l-79 249l-3 11v-298h-33zM89 241v345h-66v27h164v-27h-65v-345h-33z" />
    <glyph glyph-name="partialdiff" unicode="&#x2202;" horiz-adv-x="390" 
d="M192 -1q-55 0 -85.5 11.5t-41.5 45.5t-11 99v171q0 77 27 110.5t100 33.5q37 0 60 -9t39 -27l-6 -4q-5 68 -39.5 114t-105.5 46h-63v30h85q51 0 92.5 -26t66.5 -85.5t25 -158.5v-223q0 -38 -6 -63t-21.5 -39t-43.5 -20t-72 -6zM192 42q55 0 74 18.5t19 65.5v235
q0 33 -19 53.5t-71 20.5q-29 0 -49.5 -8t-31 -30.5t-10.5 -66.5v-187q0 -42 9 -64t28.5 -29.5t50.5 -7.5z" />
    <glyph glyph-name="uni2206" unicode="&#x2206;" horiz-adv-x="507" 
d="M26 0l201 595h58l196 -595h-455zM413 34l-169 519l-175 -519h344z" />
    <glyph glyph-name="product" unicode="&#x220f;" horiz-adv-x="502" 
d="M136 0v583h-94v37h419v-37h-87v-583h-51v583h-137v-583h-50z" />
    <glyph glyph-name="summation" unicode="&#x2211;" horiz-adv-x="427" 
d="M54 28l211 290l-203 282v20h311v-30l-242 -1l187 -262l-211 -286h266v-41h-319v28z" />
    <glyph glyph-name="minus" unicode="&#x2212;" horiz-adv-x="403" 
d="M54 295v29h295v-29h-295z" />
    <glyph glyph-name="uni2215" unicode="&#x2215;" horiz-adv-x="479" 
d="M38 -44l340 674h34l-342 -674h-32z" />
    <glyph glyph-name="uni2219" unicode="&#x2219;" horiz-adv-x="356" 
d="M168 220q-24 0 -40 17t-16 42q0 23 16.5 39t39.5 16t39.5 -17t16.5 -39q0 -25 -16.5 -41.5t-39.5 -16.5z" />
    <glyph glyph-name="radical" unicode="&#x221a;" horiz-adv-x="533" 
d="M260 7l-104 343l-104 -54v34l132 72l92 -325l151 544h55l-192 -614h-30z" />
    <glyph glyph-name="infinity" unicode="&#x221e;" horiz-adv-x="815" 
d="M199 75q-75 0 -110 43.5t-35 129.5t35 130t110 44q38 0 70 -17.5t58.5 -43.5t47 -50.5t33.5 -39.5q13 14 32.5 38.5t44.5 50.5t56.5 44t69.5 18q79 0 114.5 -44t35.5 -130t-36.5 -129.5t-113.5 -43.5q-36 0 -67 16t-56.5 40t-45.5 47.5t-33 38.5q-14 -16 -34.5 -40
t-47 -47.5t-58.5 -39t-70 -15.5zM213 117q41 0 85.5 33.5t86.5 90.5q-27 33 -53.5 64.5t-55 52t-63.5 20.5q-58 0 -82 -33t-24 -98q0 -64 24 -97t82 -33zM597 119q52 0 81.5 30.5t29.5 99.5q0 70 -29.5 100t-81.5 30q-29 0 -53 -15.5t-45 -38t-37.5 -45.5t-29.5 -38
q14 -15 32.5 -36t40.5 -41t45.5 -33t46.5 -13z" />
    <glyph glyph-name="integral" unicode="&#x222b;" horiz-adv-x="286" 
d="M-74 -173l-7 40h64q27 0 37 14.5t14 46.5l65 621q3 27 12.5 43t28.5 23t52 7h81l-4 -29h-59q-33 0 -46 -11.5t-16 -40.5l-66 -625q-4 -46 -23.5 -67.5t-64.5 -21.5h-68z" />
    <glyph glyph-name="approxequal" unicode="&#x2248;" horiz-adv-x="460" 
d="M52 329q0 42 26 61t67 19q34 0 59 -10.5t47 -22t47 -11.5q32 0 46 14.5t14 29.5h40q0 -28 -13 -45.5t-34 -25t-45 -7.5q-26 0 -45.5 7t-36 16t-33.5 15.5t-37 6.5q-26 0 -42 -12.5t-16 -34.5h-44zM62 142q0 42 26 61t67 19q34 0 59 -11t47 -22t47 -11q32 0 46 14.5
t14 29.5h40q0 -28 -13 -45.5t-34 -25t-45 -7.5q-26 0 -45.5 7t-36 16t-33.5 15.5t-37 6.5q-26 0 -42 -12.5t-16 -34.5h-44z" />
    <glyph glyph-name="notequal" unicode="&#x2260;" horiz-adv-x="384" 
d="M58 -44l246 514h35l-249 -514h-32zM54 103v30h287v-30h-287zM54 295v29h287v-29h-287z" />
    <glyph glyph-name="lessequal" unicode="&#x2264;" horiz-adv-x="410" 
d="M334 122l-247 188v33l247 189v-42l-216 -164l216 -162v-42zM96 -9v31h235v-31h-235z" />
    <glyph glyph-name="greaterequal" unicode="&#x2265;" horiz-adv-x="410" 
d="M82 122v42l216 162l-216 164v42l247 -189v-33zM82 -9v31h247v-31h-247z" />
    <glyph glyph-name="lozenge" unicode="&#x25ca;" horiz-adv-x="525" 
d="M252 0l-184 323l185 320h23l181 -320l-182 -323h-23zM264 53l155 270l-155 266l-156 -266z" />
    <glyph glyph-name="uni27E8" unicode="&#x27e8;" horiz-adv-x="281" 
d="M161 50l-74 340h35l72 -340h-33zM88 198l71 334h35l-73 -334h-33z" />
    <glyph glyph-name="uni27E9" unicode="&#x27e9;" horiz-adv-x="281" 
d="M87 50l72 340h35l-74 -340h-33zM160 198l-73 334h35l71 -334h-33z" />
    <glyph glyph-name="uniF8FF" unicode="&#xf8ff;" horiz-adv-x="427" 
d="M147 -15q1 0 1 2q0 1 -0.5 2t-0.5 2t2 3v5q-2 1 -2 4t-10 3q-4 -1 -7 -1.5t-6 -0.5v3h-1v11q-1 3 -4.5 5.5t-5.5 3.5v3h-1v2l-10 9h-16q-1 3 -4 6t-3 7v4l-11 8v24q2 5 2.5 9.5t4.5 10.5l4 6v13v11t-1 9l-5 17v10q-1 4 -2 5t-1 4v14h1v5h-1v7h-3l-5 2l0.5 -1.5t-1.5 -0.5
h-3v9h4q0 2 0.5 2.5t0.5 4.5h4q0 -2 1 -2v1h0.5t1.5 -1v-3h7v5q1 0 1.5 0.5l0.5 0.5v3h1v3q5 0 5 4v10q0 -1 -1 1t-5 3v9q1 1 1 0t1 2l3 11q0 1 0.5 1.5t0.5 1.5q0 3 -2.5 3t-2.5 3h-10v-3h-9v5q1 0 1 -0.5v-0.5q1 0 2 2l1 2h5v1h3v5h3v16h-3q-2 5 -6 5v3h-4v7h-2
q0 3 -1.5 3t-2.5 1v3q-1 1 -5 1h-5v18q0 4 1 4.5t1 5.5l-6 20q-3 11 -3 20v16q0 5 3 8.5t4 6.5v19q2 1 3 3t3 2v3q0 2 2 3l15 16v1h3q1 -1 3 -1l6 3l3 4v3h4l2 2q1 0 1.5 1l0.5 1l7 7l4 4t4 3l1 -1l1 0.5t2 0.5v2l3.5 7t5.5 7v3q0 3 2 3v-1q2 0 6 5.5t11 5.5v3h28l8 4
q2 2 8.5 7t13.5 5q3 0 4 -1l4 -2q3 -1 6.5 -4t4.5 -3q2 0 6.5 1t6.5 2q3 0 4 -1q2 0 7 2.5t19 2.5q6 0 9 -3l11 -10h18l16 -8v-2q4 -2 13.5 -5l9.5 -3v-8q1 -2 5 -3.5t6 -3.5q0 -6 5.5 -6t10.5 -3.5t5 -20.5l5 -8q0 -1 2 -4l2 -3l2 -7q0 -6 -2 -6v-11q-3 0 -3 -3v-13l6 -8
q5 -6 5.5 -16t0.5 -21v-12h-4v-10h-2q1 0 1 -0.5v-0.5h-3v-4q-2 -2 -2 -4t1 -6.5t2 -6.5q0 -1 -1 -2.5l-1 -1.5v-41h1v-5h2q-3 -6 -3 -9h-3q-3 -4 -4 -9v-9h-2q0 -3 -0.5 -3.5t-0.5 -3.5v-3q-1 -1 -2 -1.5t-1 -1.5v-4q0 -1 -2 -1h-3q-2 -4 -2 -5q-1 2 -1 1.5t-2 2.5h1
q0 1 -1 1h-3l3 4q-3 0 -4 1v2.5t4 1.5q0 1 -1 1.5l-1 0.5q0 1 1.5 1.5t1.5 3.5v2h4q0 4 -2 4q0 2 3 2v76q0 5 1.5 9t2.5 4v3q1 0 1.5 0.5t1.5 0.5v5h1v20q-1 0 -1 3v7h-3v3q-1 -1 -2 0.5t-2 1.5h-3v2h-2v2h-1v5h-3v7h-1v3q-3 0 -3 4q-1 -2 -3 -2h-7q0 2 -1 4l-3 2q1 0 1 1
l-1 -1v1l-2 4h-11l-7 10h-1v-1q-2 0 -3 1.5t-3 1.5t-4.5 -0.5t-1.5 -1.5h-4v-2h-4q0 -1 -1 -2t-6 -1t-9 0.5t-7 0.5v2q-1 -1 -1 1t-2 2h-2v3h-7v1h-2v4h-3q0 3 1.5 3.5t1.5 1.5q-3 3 -4 7t-5 3v3q-6 0 -16 -1.5t-10 -6.5v-1h-1l-0.5 -1.5t-1.5 -1.5q-2 0 -2 2v-4h-12l-2 3v2
h-5q-4 0 -5 -2.5t-4 -3.5v-3q-2 0 -4 3v-5q-5 0 -7.5 -2t-6.5 -5h-3v-2h-20q-1 -1 -3.5 -5t-2.5 -6q0 -1 0.5 -1t0.5 -1l-2 -2l-2 -3h-1t-2 -1q0 1 -0.5 1.5t-0.5 1.5q-5 0 -5 -3q-3 0 -3 2l-3 -2h-6q-1 0 -1.5 1t-2.5 1q-3 0 -4.5 -3l-1.5 -3v-1l6 -6v0.5t1 0.5h2
q0 -1 1 -2.5t1 -3.5q0 -1 -2 -1v-13q0 -1 0.5 -1.5t0.5 -1.5v-3l6 -4q0 -2 7 -2q1 2 3 2t2 4v3l3 3q3 3 3 4l-1 1h5v-3h2v-11q1 0 1.5 -2.5t0.5 -4.5h3q0 -1 2 -6t2 -7q-3 -1 -3 -3l1 -4q0 -1 -0.5 -1t-0.5 -2l-2 -2q-1 0 -1.5 -0.5l-0.5 -0.5h-4v-2h-1v-19l1 1v-3h11v-1
q2 3 8.5 3.5t13.5 0.5h26.5t17.5 -1l2 -2h6q2 -5 7.5 -11.5t6.5 -11.5l-2.5 -4t-4.5 -3l-2 -5q0 -11 -11 -11h-26l-7 -5v-1h-11v1h-4q0 1 -1 1v2q-1 0 -1 1h-3q0 1 -1 1h-9q0 2 -3.5 2.5t-1.5 2.5v2h-3q-1 0 -1 2v3h-12q0 1 -0.5 2l-1.5 3l-3 5h-9l-3 -3q-1 0 -1 0.5t-5 0.5
q-3 -5 -5.5 -6.5t-2.5 -6.5q0 -4 1.5 -4.5t1.5 -2.5h4q5 -4 7 -3t2 -4q0 -7 -6.5 -5t-6.5 -6q0 -3 0.5 -5.5t0.5 -5.5l3 -8q2 -5 2 -6.5t2 -4.5l3 -3q2 0 4 -0.5t3 -0.5h3t2 1h3l3 -3q4 -1 10 -1q5 0 10 1.5t8 1.5h2l7 1v2h3q3 3 4.5 5t6.5 6v1h1q1 1 1 0t1 -1t2 0.5l1 0.5
q3 -3 3 -8v-14q1 0 1.5 -0.5t1.5 -0.5h13l7 1v-1h6v-1h4v-4h6l2 -3h19q3 0 5.5 1.5t7.5 1.5v-4h2v-8q-1 0 -1.5 -0.5l-0.5 -0.5v-4q-1 1 -2 1q-7 -1 -8.5 -1t-3.5 -6h-4v-3q-4 2 -6 2t-3.5 -1.5t-6.5 -1.5v-4q0 -1 2 -3l5 -3v-2h-5q-2 0 -2.5 -0.5t-1.5 -0.5v1
q-5 0 -10.5 -0.5t-10.5 -0.5q-1 1 -1 2t-2 2l-2 3h-5v2h-10v-2q-1 -1 -2.5 -0.5t-1.5 -1.5v-10l3 -3q0 -1 0.5 -2t0.5 -3h15q1 0 1 -0.5t1 -0.5v-2q-1 -1 -4 -1h-8q-9 0 -12.5 3.5l-7 7t-12.5 3.5v-2q-1 0 -1.5 -1t-1.5 0v-4l-2 -3q0 -1 -2 -3q-2 2 -6 2v-2h-4q0 -3 -4 -7
l3 -3v-29h-3q0 -4 2.5 -5t1.5 -1l-1 -1l1 -0.5t3 -0.5h5q2 2 4 2l2 -4q1 -1 1 -2v-1q-1 -2 -1 -7v-7q1 0 1.5 -2t1.5 -2t1 -1l10 -8q0 -2 1 -2t2 1l1 1h3v-3h5q1 0 5 -2q2 0 4.5 1.5t3.5 1.5t1 -1v-2h7l2 -4h24q-1 0 0.5 -0.5t1.5 -2.5l1 1q1 -1 4 -3.5t4 -3.5h14l3 2
q-1 0 -1 0.5v0.5q0 2 3 2q4 -3 4 -9h-1q1 -1 1 -4q-7 0 -7.5 -5t-10.5 -5q1 -1 1 -1.5v-0.5v-0.5t-1 -0.5h-3q0 -1 -2 -5h-4v-5h-3v-5q-1 0 -1.5 0.5t-1.5 0.5q0 1 -2.5 -2.5t-2.5 -7.5l-6 -9h-9v-2q-1 -1 -3.5 -1.5t-4.5 -2.5q0 -3 1 -4l-2 -2h-5v-2h-3v-1h-2v-7h-55v3z
M61 240q-3 3 -3 5v3l-3 2l-0.5 0.5t-0.5 1.5v3h-2v2q-1 1 -1 6h1v1h3q2 -2 2 -3l1 -1h2v-3l2 -4t1 -3v-3h-1q0 -1 0.5 -1.5t0.5 -1.5h5q-2 -1 -3.5 -1.5t-3.5 -2.5zM54 283q-3 2 -3 4q3 2 3 4h-1v6h-2v8h1l1 1v-1h1v-4q0 -1 0.5 -1t0.5 -1t2 -1v-2l1 -1q1 0 1 -0.5t1 -0.5
v-8h-1l-2 -2v-1h-3zM221 126q-5 3 -5 4q-1 0 -1.5 -0.5l-0.5 -0.5q-1 0 -1 2h-6l-3 2q0 3 1 3v4h1q2 0 3 -0.5t6 -0.5q0 3 2 3h3q1 0 1 0.5t2 0.5h3q-3 2 -5 1.5t-2 2.5h-3q-1 -1 -2 0t-1 2l1 1v3h11q1 0 0.5 1t0.5 1l3 -2h5q0 2 3 2q2 0 4.5 -2.5t2.5 -4.5v-1h-8
q0 -2 -4 -2v-3q1 0 2 1h4q1 0 2 1q0 -1 4 -3t4 -6q2 0 -3.5 -2.5t-10.5 -2.5h-3q-1 -1 -6 -1v-2q-3 0 -4 -1zM238 158q-1 0 -1 4h2h0.5t1.5 -1v2h10q1 -1 1 -1.5v-0.5q-3 -3 -11 -3h-3zM287 74l-2 0.5t-2 2.5l2 4q-1 0 0 1.5t-1 2.5h4v2h1v2h2l3.5 5t7.5 6l-4 3l0.5 0.5
t1.5 0.5h2v7l2 3l-2 2h1l1 0.5t1 3.5v2h2v5h2q0 2 1.5 1.5t1.5 0.5v2h4v1h5q2 1 4 6.5t9 5.5q4 0 4 -5v-3q0 -1 -0.5 -1t-0.5 -1h1q0 -1 -1 -2h-2v-3q-1 -2 -3 -2t-4 -2l-6 -4q-3 -5 -6 -5l-2 -2l-2 -4t-3 -4v-3l-2 -3q-1 0 -1 0.5t-1 0.5q-4 0 -4 -5q1 -2 1 -5.5v-3.5v-7
h-5v-3h-6q-1 0 -1.5 -1.5t-2.5 -1.5zM297 260q-1 0 -4.5 5t-5.5 5h-17q0 1 -1 1q0 3 1 4t1 3v1t-1 2l-5 4q1 1 1 2v1l-1 6q2 0 2 2v1l1.5 1t0.5 2v3h1l4 4l3 1.5t6 1.5v2q0 2 1 3h7v2l7 1l4 -3h9l3 -5h5q0 -4 4 -4q2 0 5 2t4 2q0 -3 2 -4.5l2 -1.5l1 1v-4h4v-2q4 0 4 -2v-3
l-2 -2h1q0 -1 -2 -3t-2 -4q0 -1 1 -1t1 -1q0 -7 -9.5 -6.5t-13.5 -3.5v-2q-1 0 -2 -0.5t-3 -0.5v-3q-1 -1 -3 -2.5t-2 -3.5h-12v-1z" />
    <glyph glyph-name="acutecomb.case" horiz-adv-x="0" 
d="M0 534l94 87h50l-111 -87h-33z" />
    <glyph glyph-name="uni0306.case" horiz-adv-x="0" 
d="M102 528q-38 0 -59 14t-29 35.5t-8 42.5h33q0 -23 14 -44t49 -21q38 0 52.5 21t15.5 44h32q0 -40 -23 -66t-77 -26z" />
    <glyph glyph-name="uni03060301" horiz-adv-x="0" 
d="M102 528q-38 0 -59 14t-29 35.5t-8 42.5h33q0 -25 14 -44.5t49 -19.5q38 0 53 19t15 45h32q0 -38 -23 -65t-77 -27zM55 645l87 95h49l-103 -95h-33z" />
    <glyph glyph-name="uni03060301.case" horiz-adv-x="0" 
d="M88 420q-31 0 -49 11.5t-25 29t-7 35.5h33q0 -18 11 -33.5t37 -15.5q28 0 39.5 15.5t12.5 33.5h32q0 -33 -19.5 -54.5t-64.5 -21.5zM45 517l72 77h47l-85 -77h-34z" />
    <glyph glyph-name="uni03060300" horiz-adv-x="0" 
d="M107 528q-38 0 -59 14t-29 35.5t-8 42.5h33q0 -25 14 -44.5t49 -19.5q38 0 53 19t15 45h32q0 -38 -23 -65t-77 -27zM109 645l-103 95h50l86 -95h-33z" />
    <glyph glyph-name="uni03060300.case" horiz-adv-x="0" 
d="M92 420q-30 0 -48 11.5t-25 29.5t-7 35h32q0 -18 12 -33.5t38 -15.5q27 0 38.5 15.5t11.5 33.5h34q0 -33 -20 -54.5t-66 -21.5zM93 517l-86 77h49l69 -77h-32z" />
    <glyph glyph-name="uni03060309" horiz-adv-x="0" 
d="M102 528q-38 0 -59 14t-29 35.5t-8 42.5h33q0 -25 14 -44.5t49 -19.5q38 0 53 19t15 45h32q0 -38 -23 -65t-77 -27zM89 645q0 12 8 21t18.5 16.5t18.5 16.5t8 23t-12 23.5t-27 9.5q-23 0 -33.5 -12.5t-13.5 -28.5l-23 9q3 27 23 42.5t53 15.5q30 0 48 -15.5t18 -38.5
q0 -20 -8.5 -31.5t-19 -18.5t-18.5 -14t-8 -18h-32z" />
    <glyph glyph-name="uni03060309.case" horiz-adv-x="0" 
d="M88 420q-31 0 -49 11.5t-25 29t-7 35.5h33q0 -18 11 -33.5t37 -15.5q28 0 39.5 15.5t12.5 33.5h32q0 -33 -19.5 -54.5t-64.5 -21.5zM75 517q0 14 10 22t20.5 16.5t10.5 22.5q0 11 -8.5 18t-19.5 7q-17 0 -25 -9.5t-11 -20.5l-22 8q3 22 19.5 34.5t44.5 12.5q25 0 40 -12
t15 -33t-10 -31t-21 -16t-11 -19h-32z" />
    <glyph glyph-name="uni03060303" horiz-adv-x="0" 
d="M102 528q-38 0 -59 14t-29 35.5t-8 42.5h33q0 -25 14 -44.5t49 -19.5q38 0 53 19t15 45h32q0 -38 -23 -65t-77 -27zM2 640q0 41 15.5 59.5t38.5 18.5q21 0 35.5 -10.5t27.5 -21.5t28 -11q20 0 26.5 14t6.5 28h26q0 -41 -17 -57.5t-37 -16.5q-21 0 -35.5 11.5t-26.5 22
t-28 10.5t-24.5 -12.5t-8.5 -34.5h-27z" />
    <glyph glyph-name="uni03060303.case" horiz-adv-x="0" 
d="M88 420q-31 0 -49 11.5t-25 29.5t-7 35h33q0 -17 11 -33t37 -16q28 0 39.5 15.5t11.5 33.5h33q0 -32 -19.5 -54t-64.5 -22zM3 514q0 34 13 50t33 16q17 0 29.5 -8t23 -16t22.5 -8q16 0 21 10.5t5 22.5h25q0 -36 -14 -50.5t-32 -14.5q-16 0 -28 8.5t-22 17t-23 8.5
q-12 0 -19 -10t-7 -26h-27z" />
    <glyph glyph-name="uni0311.case" horiz-adv-x="0" 
d="M102 622q54 0 77 -27t23 -65h-32q0 27 -15 45.5t-53 18.5q-35 0 -49 -19.5t-14 -44.5h-33q0 21 8 42t29 35.5t59 14.5z" />
    <glyph glyph-name="uni030C.alt" horiz-adv-x="0" 
d="M-25 328l25 142h34l-35 -142h-24z" />
    <glyph glyph-name="uni030C.alt.case" horiz-adv-x="0" 
d="M-25 328l25 142h34l-35 -142h-24z" />
    <glyph glyph-name="uni030C.case" horiz-adv-x="0" 
d="M2 623h37l74 -63l73 63h35l-84 -89h-50z" />
    <glyph glyph-name="uni0302.case" horiz-adv-x="0" 
d="M2 534l85 89h50l84 -89h-35l-73 64l-74 -64h-37z" />
    <glyph glyph-name="uni03020301" horiz-adv-x="0" 
d="M2 534l85 89h50l84 -89h-35l-73 64l-74 -64h-37zM213 608l87 95h49l-103 -95h-33z" />
    <glyph glyph-name="uni03020301.case" horiz-adv-x="0" 
d="M2 426l68 72h49l67 -72h-35l-55 48l-56 -48h-38zM180 484l70 77h49l-85 -77h-34z" />
    <glyph glyph-name="uni03020300" horiz-adv-x="0" 
d="M2 534l85 89h50l84 -89h-35l-73 64l-74 -64h-37zM241 608l-103 95h50l86 -95h-33z" />
    <glyph glyph-name="uni03020300.case" horiz-adv-x="0" 
d="M2 426l68 72h49l67 -72h-35l-55 48l-56 -48h-38zM203 484l-85 77h47l72 -77h-34z" />
    <glyph glyph-name="uni03020309" horiz-adv-x="0" 
d="M2 534l85 89h50l84 -89h-35l-73 64l-74 -64h-37zM231 608q0 12 8 21t18.5 16.5t18.5 16.5t8 23t-12 23.5t-27 9.5q-23 0 -33.5 -12.5t-13.5 -28.5l-23 9q3 27 23 42.5t53 15.5q30 0 48 -15.5t18 -38.5q0 -20 -8.5 -31.5t-19 -18.5t-18.5 -14t-8 -18h-32z" />
    <glyph glyph-name="uni03020309.case" horiz-adv-x="0" 
d="M2 426l68 72h49l67 -72h-35l-55 48l-56 -48h-38zM192 484q0 14 10.5 22t20.5 16.5t10 22.5q0 11 -8.5 18t-20.5 7q-15 0 -23.5 -9t-11.5 -21l-22 9q3 21 19.5 33t43.5 12q25 0 41 -11.5t16 -32.5q0 -16 -6.5 -25.5t-15 -15.5t-15 -11t-6.5 -14h-32z" />
    <glyph glyph-name="uni03020303" horiz-adv-x="0" 
d="M2 534l85 89h50l84 -89h-35l-73 64l-74 -64h-37zM9 648q0 41 15.5 59.5t38.5 18.5q21 0 35.5 -10.5t27.5 -21.5t28 -11q20 0 26.5 14t6.5 28h26q0 -41 -17 -57.5t-37 -16.5q-21 0 -35.5 11.5t-26.5 22t-28 10.5t-24.5 -12.5t-8.5 -34.5h-27z" />
    <glyph glyph-name="uni03020303.case" horiz-adv-x="0" 
d="M2 426l68 72h49l67 -72h-35l-55 48l-56 -48h-38zM7 518q0 34 13.5 51t33.5 17q17 0 29.5 -8.5t23 -17t22.5 -8.5q15 0 20.5 11t5.5 22h25q0 -35 -14.5 -50t-32.5 -15q-16 0 -28 9t-22 17t-23 8q-12 0 -19 -9.5t-7 -26.5h-27z" />
    <glyph glyph-name="uni030F.case" horiz-adv-x="0" 
d="M83 534l-103 95h50l86 -95h-33zM162 534l-103 95h50l86 -95h-33z" />
    <glyph glyph-name="uni0308.case" horiz-adv-x="0" 
d="M142 530q-17 0 -20 6.5t-3 17.5q0 14 3 19.5t20 5.5q18 0 21.5 -5.5t3.5 -19.5q0 -11 -3.5 -17.5t-21.5 -6.5zM43 530q-17 0 -20 6.5t-3 17.5q0 14 3 19.5t20 5.5q18 0 21 -5.5t3 -19.5q0 -11 -3 -17.5t-21 -6.5z" />
    <glyph glyph-name="uni0307.case" horiz-adv-x="0" 
d="M24 532q-18 0 -21 6t-3 18q0 13 3 19t20 6q18 0 21 -6t3 -19q0 -12 -3 -18t-20 -6z" />
    <glyph glyph-name="gravecomb.case" horiz-adv-x="0" 
d="M103 534l-111 87h50l94 -87h-33z" />
    <glyph glyph-name="hookabovecomb.case" horiz-adv-x="0" 
d="M56 534q0 12 8 21t18.5 16.5t18.5 16.5t8 23t-12 23.5t-27 9.5q-23 0 -33.5 -12.5t-13.5 -28.5l-23 9q3 27 23 42.5t53 15.5q30 0 48 -15.5t18 -38.5q0 -20 -8.5 -31.5t-19 -18.5t-18.5 -14t-8 -18h-32z" />
    <glyph glyph-name="uni031B.case" horiz-adv-x="0" 
d="M3 450l-3 20q33 0 45 12t11 38h31q0 -37 -19 -53.5t-65 -16.5z" />
    <glyph glyph-name="uni030B.case" horiz-adv-x="0" 
d="M0 534l38 95h49l-54 -95h-33zM81 534l38 95h50l-54 -95h-34z" />
    <glyph glyph-name="i.loclTRK" horiz-adv-x="169" 
d="M60 470h50v-470h-50v470zM84 532q-18 0 -21 6t-3 18q0 13 3 19t20 6q18 0 21 -6t3 -19q0 -12 -3 -18t-20 -6z" />
    <glyph glyph-name="uni0304.case" horiz-adv-x="0" 
d="M0 540v33h214v-33h-214z" />
    <glyph glyph-name="periodcentered.loclCAT" horiz-adv-x="70" 
d="M34 210q-18 0 -21 6t-3 18q0 13 3 19.5t21 6.5t21.5 -6.5t3.5 -19.5q0 -12 -4 -18t-21 -6z" />
    <glyph glyph-name="periodcentered.loclCAT.case" horiz-adv-x="56" 
d="M35 264q-18 0 -21 6t-3 18q0 13 3 19.5t21 6.5t21.5 -6.5t3.5 -19.5q0 -12 -4 -18t-21 -6z" />
    <glyph glyph-name="uni030A.case" horiz-adv-x="0" 
d="M75 529q-32 0 -53.5 20.5t-21.5 48.5q0 29 21.5 50t53.5 21q31 0 52.5 -21t21.5 -50q0 -28 -21.5 -48.5t-52.5 -20.5zM75 551q20 0 34.5 14t14.5 32q0 21 -14.5 35.5t-34.5 14.5q-21 0 -35.5 -14.5t-14.5 -35.5q0 -18 14.5 -32t35.5 -14z" />
    <glyph glyph-name="tildecomb.case" horiz-adv-x="0" 
d="M4 529q0 41 15.5 59.5t38.5 18.5q21 0 35.5 -10.5t27.5 -21.5t28 -11q20 0 26.5 14t6.5 28h26q0 -41 -17 -57.5t-37 -16.5q-21 0 -35.5 11.5t-26.5 22t-28 10.5t-24.5 -12.5t-8.5 -34.5h-27z" />
    <glyph glyph-name="uni03030307" horiz-adv-x="0" 
d="M4 529q0 41 15.5 59.5t38.5 18.5q21 0 35.5 -10.5t27.5 -21.5t28 -11q20 0 26.5 14t6.5 28h26q0 -41 -17 -57.5t-37 -16.5q-21 0 -35.5 11.5t-26.5 22t-28 10.5t-24.5 -12.5t-8.5 -34.5h-27zM105 631q-18 0 -21 6t-3 18q0 13 3 19t20 6q18 0 21 -6t3 -19q0 -12 -3 -18
t-20 -6z" />
    <glyph glyph-name="uni03030304" horiz-adv-x="0" 
d="M8 529q0 41 15.5 59.5t38.5 18.5q21 0 35.5 -10.5t27.5 -21.5t28 -11q20 0 26.5 14t6.5 28h26q0 -41 -17 -57.5t-37 -16.5q-21 0 -35.5 11.5t-26.5 22t-28 10.5t-24.5 -12.5t-8.5 -34.5h-27zM2 639v33h214v-33h-214z" />
    </font>
</defs>
</svg>
